<svg width="20" height="15" viewBox="0 0 20 15" fill="none" xmlns="http://www.w3.org/2000/svg">
<path d="M16.6525 0H3.34748C2.46 0.00103486 1.60917 0.344689 0.981629 0.955582C0.354085 1.56648 0.00106306 2.39473 0 3.25866V11.7413C0.00106306 12.6053 0.354085 13.4335 0.981629 14.0444C1.60917 14.6553 2.46 14.999 3.34748 15H16.6525C17.54 14.999 18.3908 14.6553 19.0184 14.0444C19.6459 13.4335 19.9989 12.6053 20 11.7413V3.25866C19.9989 2.39473 19.6459 1.56648 19.0184 0.955582C18.3908 0.344689 17.54 0.00103486 16.6525 0V0ZM3.34748 1.30346H16.6525C17.185 1.30402 17.6956 1.51019 18.0721 1.87674C18.4486 2.24329 18.6604 2.74028 18.661 3.25866V4.11347H1.33899V3.25866C1.33956 2.74028 1.55135 2.24329 1.92789 1.87674C2.30443 1.51019 2.81497 1.30402 3.34748 1.30346ZM16.6525 13.6965H3.34748C2.81497 13.696 2.30443 13.4898 1.92789 13.1233C1.55135 12.7567 1.33956 12.2597 1.33899 11.7413V5.41694H18.661V11.7413C18.6604 12.2597 18.4486 12.7567 18.0721 13.1233C17.6956 13.4898 17.185 13.696 16.6525 13.6965ZM16.831 10.6485C16.831 10.8214 16.7605 10.9871 16.6349 11.1094C16.5094 11.2316 16.3391 11.3002 16.1615 11.3002H14.5563C14.3788 11.3002 14.2085 11.2316 14.0829 11.1094C13.9574 10.9871 13.8868 10.8214 13.8868 10.6485C13.8868 10.4757 13.9574 10.3099 14.0829 10.1877C14.2085 10.0655 14.3788 9.99679 14.5563 9.99679H16.1615C16.3391 9.99679 16.5094 10.0655 16.6349 10.1877C16.7605 10.3099 16.831 10.4757 16.831 10.6485Z" fill="#00192F"/>
</svg>
