<svg width="186" height="156" viewBox="0 0 186 156" fill="none" xmlns="http://www.w3.org/2000/svg">
<path d="M43.9029 82.8776C49.4323 80.025 55.2351 76.7719 60.7059 73.4699C60.747 73.4505 60.7938 73.4469 60.8374 73.4597C60.881 73.4725 60.9184 73.5009 60.9424 73.5394C60.9665 73.5779 60.9756 73.624 60.968 73.6688C60.9605 73.7136 60.9367 73.754 60.9013 73.7825C55.4208 77.0845 49.6081 80.3474 44.0788 83.2C44.037 83.2153 43.9911 83.2152 43.9494 83.1995C43.9077 83.1838 43.8731 83.1537 43.8518 83.1146C43.8304 83.0755 43.8239 83.0301 43.8333 82.9866C43.8427 82.9431 43.8674 82.9044 43.9029 82.8776Z" fill="#0063D2"/>
<path d="M77.5867 40.8701C71.8192 34.6447 64.1088 30.5618 55.7181 29.2901C47.3274 28.0183 38.7535 29.633 31.4002 33.8697C24.0469 38.1065 18.3499 44.7143 15.2419 52.6112C12.1339 60.5082 11.7991 69.2264 14.2924 77.3384C-7.95202 95.4211 -3.72197 103.051 23.4363 92.6467C27.2195 96.5177 31.8021 99.5163 36.8641 101.433C41.926 103.35 47.3454 104.139 52.7438 103.744C52.771 103.751 52.7993 103.751 52.8266 103.745C52.8539 103.739 52.8795 103.727 52.9014 103.709C52.9233 103.692 52.941 103.67 52.9532 103.644C52.9654 103.619 52.9717 103.592 52.9717 103.564C52.9717 103.536 52.9654 103.508 52.9532 103.483C52.941 103.458 52.9233 103.436 52.9014 103.418C52.8795 103.401 52.8539 103.389 52.8266 103.383C52.7993 103.376 52.771 103.377 52.7438 103.383C47.4281 103.766 42.0925 102.992 37.1052 101.113C32.1179 99.2343 27.5976 96.2957 23.8564 92.5001C26.455 91.5232 29.2294 90.3412 32.1406 89.0321C32.1677 89.0265 32.1932 89.0148 32.2152 88.9981C32.2372 88.9813 32.2552 88.9599 32.2679 88.9353C32.2805 88.9107 32.2875 88.8835 32.2883 88.8559C32.2892 88.8282 32.2838 88.8008 32.2726 88.7754C32.2615 88.7501 32.2448 88.7276 32.2238 88.7096C32.2028 88.6916 32.1781 88.6784 32.1514 88.6712C32.1247 88.664 32.0967 88.6628 32.0695 88.6678C32.0423 88.6727 32.0165 88.6837 31.9941 88.6999C29.0308 90.0025 26.2238 91.1748 23.5731 92.2168C16.7909 85.3265 13.0058 76.0357 13.0419 66.3676C13.0861 57.4474 16.3409 48.8414 22.2106 42.1243C28.0803 35.4073 36.1724 31.0284 45.0062 29.789C53.84 28.5495 62.8247 30.5324 70.3163 35.3748C77.8079 40.2172 83.3053 47.5952 85.8026 56.1589C82.7742 58.6207 79.3159 61.2193 75.4668 63.9156C75.4422 63.9267 75.4202 63.9431 75.4026 63.9636C75.3849 63.9841 75.3719 64.0082 75.3646 64.0342C75.3572 64.0603 75.3556 64.0876 75.3599 64.1143C75.3643 64.141 75.3743 64.1665 75.3895 64.1889C75.4047 64.2113 75.4246 64.2301 75.4478 64.244C75.471 64.2579 75.497 64.2665 75.5239 64.2694C75.5508 64.2722 75.578 64.2691 75.6036 64.2603C75.6291 64.2515 75.6525 64.2372 75.672 64.2184C79.4917 61.5417 82.9109 58.9724 85.9101 56.5496C88.2321 65.0174 87.4775 74.0342 83.7804 81.9983C83.7597 82.0436 83.7578 82.0953 83.7752 82.1421C83.7926 82.1888 83.8278 82.2267 83.8732 82.2474C83.9185 82.2681 83.9702 82.27 84.017 82.2526C84.0637 82.2352 84.1016 82.1999 84.1223 82.1546C87.8715 74.058 88.616 64.8912 86.2227 56.2956C108.037 38.5353 103.915 30.9544 77.5867 40.8701ZM0.664378 95.47C-0.947533 92.676 4.18127 86.0427 14.4096 77.7194C16.1532 83.2247 19.1647 88.2439 23.2018 92.3731C10.8145 97.0526 2.31537 98.3128 0.664378 95.47ZM86.1543 55.9049C84.5424 50.4297 81.7023 45.3945 77.8505 41.1827C103.534 31.521 107.471 38.4571 86.1543 55.9049Z" fill="#0063D2"/>
<path d="M150.484 63.0755L150.201 61.1217C150.141 60.7388 150.167 60.3474 150.277 59.9757C150.386 59.604 150.577 59.2614 150.836 58.9725C148.706 53.7655 144.222 56.8135 144.974 61.3952C144.828 61.5906 144.798 62.3721 143.743 61.1901C142.161 59.4316 140.138 62.3526 143.313 64.6483C144.574 69.6892 143.313 69.9432 142.161 68.8979C142.915 69.6307 143.71 70.319 144.544 70.9592C145.014 71.3486 145.565 71.6264 146.158 71.772C146.75 71.9175 147.367 71.9269 147.964 71.7994C147.839 71.0064 147.839 70.1989 147.964 69.4059C149.703 69.7869 151.94 69.4059 151.871 65.0587C151.5 64.8609 151.181 64.5782 150.94 64.2335C150.699 63.8888 150.543 63.492 150.484 63.0755Z" fill="#E6E7E8"/>
<path d="M181.257 36.2004C182.752 31.0032 181.726 26.7439 180.446 32.1658C181.101 27.5645 180.31 25.4153 179.235 29.6062C178.981 30.5832 178.727 31.4526 178.444 32.2244C178.476 31.5996 178.476 30.9735 178.444 30.3487C178.2 26.7536 177.35 26.9979 176.773 30.0947C176.513 31.5467 176.167 32.982 175.738 34.3931C175.638 34.1471 175.521 33.9087 175.386 33.68C173.432 30.1826 172.748 30.2705 173.559 34.2759C174.243 37.6463 171.898 41.9642 171.898 41.9642C174.304 42.9385 176.373 44.5958 177.848 46.7316C177.848 46.7316 181.414 40.9287 182.264 36.9624C183.006 33.5921 181.726 35.116 181.257 36.2004Z" fill="#E6E7E8"/>
<path d="M116.918 34.7546C116.585 34.138 116.446 33.4359 116.517 32.7392C116.589 32.0425 116.868 31.3833 117.318 30.8469C118.901 28.9517 121.03 26.1089 120.327 25.3371C119.233 24.1551 115.775 28.18 113.938 28.4047C113.283 28.4828 112.756 26.4508 112.648 25.767C112.443 24.4384 111.759 19.9739 111.671 19.5245C111.115 15.4508 109.718 16.1444 109.718 19.7394C109.718 23.0609 109.718 25.2492 109.718 25.3664C109.083 23.3442 107.588 18.655 107.471 18.2643C106.289 14.3566 105.038 15.2261 105.624 18.7625C106.181 22.1426 106.787 26.2652 106.787 26.2652C106.22 25.0636 105.312 23.0218 104.354 20.4037C102.938 16.5449 101.883 17.473 102.547 21.0485C103.055 23.735 103.69 26.3824 103.983 27.3594C103.242 26.1749 102.589 24.9374 102.029 23.6568C100.417 19.8469 99.421 20.8922 100.31 24.5068C100.964 27.1347 101.521 28.4144 102.84 33.1232C103.456 35.3017 105.546 41.1925 107.363 43.9669C110.763 44.1525 116.781 40.6259 118.236 37.5584C118.275 37.4607 116.986 34.8718 116.918 34.7546Z" fill="#E6E7E8"/>
<path d="M166.751 7.06889C165.243 7.16261 163.796 7.70141 162.594 8.61715C161.393 9.53289 160.489 10.7844 159.999 12.2135C159.508 13.6427 159.453 15.1851 159.839 16.6459C160.225 18.1067 161.035 19.4201 162.168 20.4202C163.301 21.4203 164.704 22.0621 166.202 22.2644C167.699 22.4667 169.223 22.2204 170.58 21.5567C171.937 20.8931 173.068 19.8418 173.827 18.5358C174.587 17.2299 174.943 15.728 174.849 14.2199C174.788 13.2182 174.53 12.2383 174.09 11.3364C173.65 10.4345 173.036 9.62834 172.284 8.96407C171.531 8.29979 170.655 7.79046 169.706 7.46526C168.756 7.14005 167.752 7.00536 166.751 7.06889ZM163.214 18.2643C162.911 18.172 162.643 17.9922 162.442 17.7474C162.242 17.5026 162.118 17.204 162.087 16.889C162.056 16.5741 162.119 16.257 162.268 15.9778C162.417 15.6986 162.645 15.4698 162.924 15.3201C163.203 15.1705 163.52 15.1068 163.835 15.1371C164.15 15.1674 164.449 15.2902 164.694 15.4902C164.939 15.6902 165.12 15.9583 165.213 16.2608C165.306 16.5632 165.307 16.8865 165.217 17.1897C165.093 17.5971 164.812 17.9387 164.437 18.1401C164.062 18.3414 163.622 18.3861 163.214 18.2643ZM168.216 13.8194C167.779 13.681 167.393 13.4167 167.106 13.0597C166.819 12.7026 166.644 12.2687 166.603 11.8125C166.561 11.3562 166.656 10.898 166.874 10.4952C167.092 10.0924 167.425 9.76309 167.829 9.54856C168.234 9.33403 168.693 9.24385 169.149 9.28935C169.605 9.33486 170.037 9.51401 170.392 9.80432C170.746 10.0946 171.007 10.4832 171.141 10.9211C171.275 11.3591 171.277 11.827 171.147 12.2661C171.059 12.562 170.913 12.8375 170.717 13.0763C170.521 13.3152 170.28 13.5127 170.007 13.6573C169.734 13.8019 169.435 13.8907 169.128 13.9185C168.82 13.9463 168.51 13.9126 168.216 13.8194ZM169.437 19.085C169.213 19.0176 169.025 18.864 168.914 18.6579C168.803 18.4517 168.779 18.21 168.846 17.9859C168.913 17.7618 169.067 17.5736 169.273 17.4628C169.479 17.352 169.721 17.3275 169.945 17.3949C170.169 17.4597 170.358 17.6108 170.471 17.8151C170.584 18.0194 170.611 18.26 170.546 18.4842C170.481 18.7083 170.33 18.8975 170.126 19.0102C169.921 19.1228 169.681 19.1497 169.457 19.085H169.437Z" fill="#0063D2"/>
<path d="M67.4071 51.1571C63.8133 51.5837 60.37 52.8486 57.3546 54.8498C56.6805 52.427 47.859 35.8488 48.5624 34.5495C49.8714 32.029 56.9931 41.3879 61.7214 43.5273C66.4497 45.6668 66.2055 48.7929 67.4071 51.1571Z" fill="#E6E7E8"/>
<path d="M49.5691 85.8082C47.2503 88.3318 45.513 91.333 44.4793 94.6005C43.6978 93.8092 24.4916 86.1892 24.4428 84.3038C24.3646 81.4609 35.2768 84.4894 40.3372 83.3269C45.3976 82.1643 47.1561 84.6652 49.5691 85.8082Z" fill="#E6E7E8"/>
<path d="M108.388 36.9039C108.295 35.1543 108.57 33.4047 109.194 31.7676C109.818 30.1305 110.778 28.6422 112.012 27.3985C112.047 27.3635 112.094 27.3439 112.144 27.3439C112.193 27.3439 112.241 27.3635 112.276 27.3985C112.311 27.4335 112.33 27.4809 112.33 27.5304C112.33 27.5799 112.311 27.6273 112.276 27.6623C111.075 28.8711 110.141 30.318 109.534 31.9097C108.927 33.5014 108.659 35.2026 108.749 36.9039C108.756 36.9311 108.756 36.9594 108.75 36.9867C108.743 37.014 108.731 37.0396 108.714 37.0615C108.696 37.0834 108.674 37.1011 108.649 37.1133C108.624 37.1255 108.596 37.1318 108.568 37.1318C108.54 37.1318 108.513 37.1255 108.488 37.1133C108.462 37.1011 108.44 37.0834 108.423 37.0615C108.406 37.0396 108.393 37.014 108.387 36.9867C108.381 36.9594 108.381 36.9311 108.388 36.9039Z" fill="#000001"/>
<path d="M55.3025 125.364C55.293 125.316 55.2652 125.274 55.225 125.246C55.1848 125.219 55.1355 125.209 55.0876 125.217L52.5183 125.667C51.9252 125.769 51.3157 125.632 50.8232 125.286C50.3307 124.94 49.9953 124.413 49.8904 123.82L49.441 121.251C49.4319 121.202 49.4037 121.158 49.3625 121.13C49.3213 121.101 49.2704 121.09 49.2212 121.099C49.172 121.109 49.1284 121.137 49.1 121.178C49.0716 121.219 49.0607 121.27 49.0698 121.319L49.5289 123.889C49.5809 124.182 49.5743 124.484 49.5095 124.775C49.4448 125.066 49.3231 125.342 49.1516 125.586C48.98 125.83 48.7619 126.038 48.5099 126.198C48.2578 126.357 47.9766 126.466 47.6826 126.516L45.1133 126.976C45.0707 126.99 45.0346 127.019 45.0119 127.058C44.9892 127.096 44.9812 127.142 44.9896 127.186C44.9979 127.23 45.022 127.27 45.0573 127.298C45.0926 127.325 45.1368 127.339 45.1817 127.337L47.751 126.878C48.3441 126.776 48.9536 126.913 49.4461 127.259C49.9385 127.605 50.2739 128.132 50.3789 128.724L50.8282 131.294C50.8373 131.343 50.8656 131.386 50.9068 131.415C50.948 131.443 50.9988 131.454 51.048 131.445C51.0973 131.436 51.1409 131.408 51.1693 131.366C51.1977 131.325 51.2085 131.274 51.1995 131.225L50.7403 128.656C50.6381 128.063 50.775 127.453 51.121 126.961C51.467 126.468 51.994 126.133 52.5867 126.028L55.156 125.579C55.2037 125.569 55.2458 125.541 55.2732 125.501C55.3006 125.461 55.3111 125.412 55.3025 125.364ZM50.4179 127.738C50.2246 127.432 49.972 127.168 49.675 126.962C49.378 126.755 49.0427 126.611 48.6888 126.536C48.9963 126.346 49.2622 126.096 49.4704 125.8C49.6786 125.505 49.8248 125.17 49.9002 124.817C50.0902 125.123 50.3407 125.388 50.6363 125.594C50.9319 125.801 51.2664 125.945 51.6195 126.018C51.3071 126.204 51.037 126.452 50.8267 126.748C50.6164 127.045 50.4705 127.382 50.3984 127.738H50.4179Z" fill="#0063D2"/>
<path d="M90.4526 13.8878L88.6453 14.2102C88.2402 14.2785 87.8245 14.1846 87.4881 13.9488C87.1517 13.7129 86.9217 13.3541 86.8478 12.95L86.5254 11.1329C86.5112 11.0903 86.4821 11.0543 86.4433 11.0316C86.4046 11.0088 86.359 11.0009 86.3148 11.0092C86.2707 11.0176 86.2311 11.0416 86.2034 11.077C86.1756 11.1123 86.1616 11.1565 86.164 11.2013L86.4864 13.0086C86.5573 13.4141 86.4645 13.8311 86.2282 14.1681C85.9919 14.5052 85.6315 14.7346 85.2261 14.8061L83.4188 15.1285C83.3919 15.1284 83.3652 15.1342 83.3407 15.1454C83.3162 15.1566 83.2944 15.173 83.2769 15.1935C83.2594 15.214 83.2466 15.2381 83.2393 15.264C83.232 15.29 83.2305 15.3172 83.2348 15.3438C83.2391 15.3704 83.2492 15.3958 83.2643 15.4181C83.2794 15.4405 83.2992 15.4592 83.3223 15.4731C83.3454 15.487 83.3712 15.4958 83.398 15.4987C83.4248 15.5016 83.4519 15.4986 83.4775 15.49L85.2945 15.1676C85.4996 15.1254 85.7112 15.1255 85.9163 15.1677C86.1214 15.2099 86.3158 15.2934 86.4876 15.4131C86.6594 15.5329 86.8051 15.6863 86.9157 15.8641C87.0263 16.0419 87.0996 16.2403 87.1311 16.4474L87.4535 18.2644C87.4677 18.307 87.4969 18.343 87.5356 18.3658C87.5743 18.3885 87.62 18.3965 87.6641 18.3881C87.7082 18.3798 87.7478 18.3557 87.7756 18.3204C87.8033 18.2851 87.8173 18.2409 87.815 18.196L87.5023 16.379C87.4658 16.1794 87.4693 15.9745 87.5126 15.7762C87.5558 15.578 87.638 15.3903 87.7543 15.224C87.8706 15.0577 88.0187 14.9161 88.1901 14.8075C88.3615 14.6989 88.5528 14.6254 88.7528 14.5912L90.5699 14.2688C90.6204 14.2533 90.6627 14.2183 90.6874 14.1716C90.7121 14.1249 90.7173 14.0702 90.7017 14.0197C90.6862 13.9692 90.6512 13.9269 90.6045 13.9022C90.5578 13.8774 90.5032 13.8723 90.4526 13.8878ZM87.1311 15.5877C86.8736 15.2279 86.5017 14.9661 86.076 14.8452C86.4359 14.5877 86.6976 14.2158 86.8185 13.7901C87.076 14.1499 87.448 14.4117 87.8736 14.5326C87.5138 14.7901 87.252 15.1621 87.1311 15.5877Z" fill="#0063D2"/>
<path d="M185.799 68.7708L181.305 69.5621C180.775 69.661 180.23 69.6542 179.702 69.5421C179.174 69.4301 178.673 69.215 178.229 68.9092C177.784 68.6033 177.404 68.2128 177.111 67.7599C176.817 67.307 176.616 66.8007 176.518 66.2699L175.727 61.7761C175.726 61.7497 175.719 61.7238 175.706 61.7003C175.694 61.6768 175.677 61.6562 175.656 61.6399C175.636 61.6235 175.611 61.6118 175.586 61.6055C175.56 61.5992 175.533 61.5985 175.507 61.6035C175.481 61.6084 175.457 61.6188 175.435 61.6341C175.413 61.6493 175.395 61.669 175.382 61.6918C175.368 61.7147 175.36 61.7401 175.357 61.7664C175.354 61.7928 175.357 61.8194 175.366 61.8445L176.157 66.3285C176.344 67.4036 176.098 68.5091 175.472 69.4027C174.845 70.2964 173.89 70.9052 172.816 71.0959L168.332 71.8872C168.291 71.8967 168.255 71.9198 168.229 71.9526C168.203 71.9854 168.188 72.026 168.188 72.0679C168.188 72.1098 168.203 72.1504 168.229 72.1833C168.255 72.2161 168.291 72.2391 168.332 72.2487C168.439 72.2487 169.367 72.0728 172.855 71.4573C173.927 71.2699 175.03 71.5152 175.922 72.1397C176.814 72.7642 177.422 73.7167 177.612 74.7886L178.404 79.2824C178.418 79.3251 178.447 79.3611 178.486 79.3838C178.525 79.4066 178.57 79.4145 178.614 79.4062C178.659 79.3978 178.698 79.3737 178.726 79.3384C178.754 79.3031 178.768 79.2589 178.765 79.2141L177.974 74.7203C177.787 73.6464 178.033 72.5421 178.66 71.65C179.286 70.7579 180.241 70.151 181.315 69.9627L185.799 69.1714C185.852 69.1714 185.903 69.1503 185.941 69.1127C185.978 69.0752 185.999 69.0242 185.999 68.9711C185.999 68.918 185.978 68.867 185.941 68.8295C185.903 68.7919 185.852 68.7708 185.799 68.7708ZM177.632 73.46C177.292 72.7861 176.789 72.2083 176.167 71.7799C175.546 71.3514 174.827 71.086 174.076 71.008C174.741 70.6744 175.313 70.1813 175.741 69.5727C176.169 68.9641 176.439 68.259 176.528 67.5204C176.86 68.1875 177.354 68.7607 177.965 69.1874C178.576 69.614 179.285 69.8806 180.025 69.9627C179.365 70.3015 178.799 70.7979 178.376 71.408C177.954 72.018 177.688 72.7228 177.603 73.46H177.632Z" fill="#0063D2"/>
<path d="M153.073 115.311L118.627 129.457C118.588 129.479 118.558 129.514 118.542 129.557C118.527 129.599 118.528 129.646 118.545 129.688C118.562 129.73 118.593 129.764 118.634 129.785C118.674 129.805 118.72 129.81 118.764 129.799L150.709 116.679L110.489 139.998C110.468 140.01 110.45 140.026 110.435 140.046C110.42 140.065 110.409 140.087 110.403 140.111C110.396 140.134 110.395 140.159 110.398 140.183C110.401 140.207 110.409 140.231 110.421 140.252C110.433 140.273 110.449 140.291 110.469 140.306C110.488 140.321 110.51 140.332 110.534 140.339C110.557 140.345 110.582 140.347 110.606 140.343C110.631 140.34 110.654 140.332 110.675 140.32L150.885 117.001L101.17 155.658C101.136 155.679 101.111 155.712 101.098 155.749C101.085 155.787 101.086 155.828 101.099 155.866C101.113 155.903 101.139 155.935 101.173 155.956C101.207 155.977 101.247 155.985 101.287 155.98C101.385 155.98 98.6785 158.061 153.249 115.633C153.425 115.428 153.23 115.252 153.073 115.311Z" fill="#0063D2"/>
<path d="M153.132 120C152.28 119.999 151.447 119.756 150.728 119.299C150.01 118.843 149.436 118.192 149.073 117.422C148.71 116.651 148.574 115.794 148.679 114.949C148.785 114.105 149.128 113.307 149.669 112.65C150.21 111.993 150.927 111.503 151.736 111.237C152.544 110.972 153.412 110.941 154.237 111.149C155.063 111.357 155.812 111.796 156.398 112.413C156.984 113.031 157.383 113.802 157.547 114.637C157.676 115.289 157.658 115.961 157.496 116.605C157.333 117.25 157.03 117.85 156.608 118.363C156.185 118.876 155.655 119.289 155.053 119.572C154.452 119.855 153.796 120.001 153.132 120ZM153.132 111.374C152.282 111.374 151.453 111.636 150.759 112.124C150.064 112.613 149.537 113.304 149.25 114.104C148.963 114.903 148.93 115.772 149.155 116.591C149.381 117.41 149.853 118.139 150.509 118.679C151.165 119.219 151.971 119.543 152.818 119.607C153.665 119.672 154.511 119.473 155.241 119.038C155.97 118.603 156.548 117.954 156.894 117.178C157.241 116.403 157.339 115.539 157.176 114.705C156.995 113.766 156.494 112.919 155.758 112.308C155.023 111.697 154.098 111.36 153.141 111.355L153.132 111.374Z" fill="#0063D2"/>
<path d="M145.394 74.7203C145.394 74.9301 145.311 75.1314 145.162 75.2798C145.014 75.4282 144.813 75.5116 144.603 75.5116C144.393 75.5116 144.192 75.4282 144.043 75.2798C143.895 75.1314 143.812 74.9301 143.812 74.7203C143.812 74.5104 143.895 74.3091 144.043 74.1607C144.192 74.0123 144.393 73.929 144.603 73.929C144.813 73.929 145.014 74.0123 145.162 74.1607C145.311 74.3091 145.394 74.5104 145.394 74.7203Z" fill="#000001"/>
<path d="M158.368 70.3242C158.346 70.5202 158.253 70.7012 158.106 70.8327C157.959 70.9642 157.769 71.0369 157.572 71.0369C157.374 71.0369 157.184 70.9642 157.037 70.8327C156.89 70.7012 156.797 70.5202 156.775 70.3242C156.797 70.1282 156.89 69.9472 157.037 69.8157C157.184 69.6842 157.374 69.6115 157.572 69.6115C157.769 69.6115 157.959 69.6842 158.106 69.8157C158.253 69.9472 158.346 70.1282 158.368 70.3242Z" fill="#000001"/>
<path d="M163.537 56.2468C163.515 56.4428 163.422 56.6238 163.275 56.7553C163.128 56.8868 162.938 56.9595 162.741 56.9595C162.543 56.9595 162.353 56.8868 162.206 56.7553C162.059 56.6238 161.966 56.4428 161.944 56.2468C161.966 56.0508 162.059 55.8698 162.206 55.7383C162.353 55.6068 162.543 55.5341 162.741 55.5341C162.938 55.5341 163.128 55.6068 163.275 55.7383C163.422 55.8698 163.515 56.0508 163.537 56.2468Z" fill="#000001"/>
<path d="M175.748 49.213C175.726 49.4089 175.633 49.59 175.486 49.7215C175.339 49.853 175.149 49.9257 174.951 49.9257C174.754 49.9257 174.564 49.853 174.417 49.7215C174.27 49.59 174.177 49.4089 174.155 49.213C174.177 49.017 174.27 48.836 174.417 48.7045C174.564 48.573 174.754 48.5002 174.951 48.5002C175.149 48.5002 175.339 48.573 175.486 48.7045C175.633 48.836 175.726 49.017 175.748 49.213Z" fill="#000001"/>
<path d="M142.18 87.8598C142.18 88.0696 142.097 88.2709 141.949 88.4193C141.8 88.5677 141.599 88.6511 141.389 88.6511C141.179 88.6511 140.978 88.5677 140.829 88.4193C140.681 88.2709 140.598 88.0696 140.598 87.8598C140.598 87.6499 140.681 87.4486 140.829 87.3002C140.978 87.1519 141.179 87.0685 141.389 87.0685C141.599 87.0685 141.8 87.1519 141.949 87.3002C142.097 87.4486 142.18 87.6499 142.18 87.8598Z" fill="#000001"/>
<path d="M128.279 83.112C128.257 83.308 128.164 83.4891 128.017 83.6206C127.87 83.7521 127.68 83.8248 127.483 83.8248C127.286 83.8248 127.095 83.7521 126.948 83.6206C126.802 83.4891 126.708 83.308 126.687 83.112C126.708 82.9161 126.802 82.735 126.948 82.6035C127.095 82.472 127.286 82.3993 127.483 82.3993C127.68 82.3993 127.87 82.472 128.017 82.6035C128.164 82.735 128.257 82.9161 128.279 83.112Z" fill="#000001"/>
<path d="M132.402 69.396C132.38 69.5919 132.287 69.773 132.14 69.9045C131.993 70.036 131.803 70.1087 131.606 70.1087C131.409 70.1087 131.218 70.036 131.071 69.9045C130.925 69.773 130.831 69.5919 130.81 69.396C130.831 69.2 130.925 69.019 131.071 68.8874C131.218 68.7559 131.409 68.6832 131.606 68.6832C131.803 68.6832 131.993 68.7559 132.14 68.8874C132.287 69.019 132.38 69.2 132.402 69.396Z" fill="#000001"/>
<path d="M128.788 55.0648C128.766 55.2608 128.673 55.4418 128.526 55.5733C128.379 55.7048 128.189 55.7775 127.992 55.7775C127.794 55.7775 127.604 55.7048 127.457 55.5733C127.31 55.4418 127.217 55.2608 127.195 55.0648C127.217 54.8688 127.31 54.6878 127.457 54.5563C127.604 54.4248 127.794 54.3521 127.992 54.3521C128.189 54.3521 128.379 54.4248 128.526 54.5563C128.673 54.6878 128.766 54.8688 128.788 55.0648Z" fill="#000001"/>
<path d="M113.596 49.2131C113.596 49.4229 113.513 49.6242 113.365 49.7726C113.216 49.921 113.015 50.0044 112.805 50.0044C112.595 50.0044 112.394 49.921 112.245 49.7726C112.097 49.6242 112.014 49.4229 112.014 49.2131C112.014 49.0032 112.097 48.8019 112.245 48.6535C112.394 48.5051 112.595 48.4218 112.805 48.4218C113.015 48.4218 113.216 48.5051 113.365 48.6535C113.513 48.8019 113.596 49.0032 113.596 49.2131Z" fill="#000001"/>
<path d="M182.37 34.7546C182.175 34.6862 181.94 34.8523 181.725 35.0965C181.928 34.2225 182.062 33.3341 182.126 32.4393C182.204 31.3843 182.233 29.5867 181.608 29.5086C181.491 29.5086 181.188 29.4402 180.797 30.378C180.846 29.6649 180.993 27.3301 180.289 27.2226C179.586 27.1151 179.088 29.5184 178.629 31.0423C178.629 30.2999 178.502 27.6134 177.73 27.5645C177.554 27.5645 177.046 27.5645 176.567 30.0947C176.336 31.3822 176.039 32.6571 175.678 33.9145L175.522 33.6312C174.115 31.1596 173.637 30.9153 173.314 31.0326C172.992 31.1498 172.796 31.6383 173.314 34.3541C173.9 37.2848 172.142 40.9873 171.751 41.7689L171.116 41.5247C171.078 41.5109 171.036 41.5101 170.997 41.5225C170.958 41.5348 170.925 41.5596 170.901 41.593C166.807 47.495 162.377 53.1573 157.635 58.5523C157.478 58.7281 157.752 58.9724 157.918 58.7868C162.646 53.414 167.063 47.7744 171.145 41.8959C174.087 42.9151 176.572 44.9433 178.16 47.6206C168.391 63.4076 155.271 76.2052 149.517 81.4414C150.181 78.2274 148.618 74.2318 148.54 74.0462C148.517 74.0092 148.483 73.9811 148.442 73.9668C148.401 73.9526 148.357 73.953 148.316 73.9681C148.276 73.9831 148.242 74.0118 148.22 74.0493C148.198 74.0867 148.19 74.1306 148.198 74.1732C148.198 74.31 152.105 88.0747 126.754 102.504C128.708 98.8501 125.533 89.247 123.824 85.1244C122.114 81.0018 118.021 73.1083 114.084 71.1545H120.688C128.64 78.7842 128.161 78.3642 128.278 78.3642C128.31 78.3622 128.342 78.352 128.368 78.3345C128.395 78.3169 128.417 78.2927 128.432 78.2641C128.447 78.2356 128.454 78.2037 128.453 78.1715C128.451 78.1394 128.442 78.1082 128.425 78.0808L106.542 44.006C109.903 45.2076 118.324 40.2644 118.783 36.7671C123.667 45.0904 136.611 65.4103 144.397 71.1154C144.891 71.5171 145.468 71.8042 146.087 71.9563C146.705 72.1083 147.349 72.1214 147.973 71.9947C148.017 71.9795 148.054 71.95 148.079 71.911C148.104 71.872 148.115 71.8257 148.11 71.7797C148.008 71.0669 148.008 70.3433 148.11 69.6305C151.041 70.1776 152.125 68.0577 152.105 65.0586C152.105 65.0093 152.086 64.9621 152.051 64.9273C152.016 64.8925 151.969 64.8729 151.92 64.8729C151.871 64.8729 151.823 64.8925 151.789 64.9273C151.754 64.9621 151.734 65.0093 151.734 65.0586C151.734 67.1296 151.246 68.468 150.259 69.0346C148.628 70.0115 146.136 68.5168 146.048 68.468C146.02 68.4507 145.988 68.4411 145.955 68.4403C145.923 68.4394 145.89 68.4474 145.861 68.4633C145.832 68.4792 145.808 68.5025 145.791 68.5308C145.774 68.5591 145.765 68.5914 145.765 68.6243C145.765 68.722 145.667 68.5462 147.67 71.1838C147.67 71.3401 147.67 71.5062 147.719 71.6723C145.873 72.0142 144.525 70.8321 143.128 69.5915C144.593 69.5328 143.811 66.0355 143.45 64.6092C143.442 64.5727 143.422 64.5398 143.394 64.5153C143.366 64.4907 143.331 64.4757 143.294 64.4724C140.47 62.3818 142.151 59.7832 143.548 61.3365C144.026 61.8738 144.378 62.079 144.661 62.0204C144.945 61.9617 145.13 61.483 145.111 61.3756C144.437 57.0283 148.618 54.0487 150.669 59.0408C150.691 59.0802 150.727 59.1104 150.769 59.1255C150.812 59.1406 150.859 59.1397 150.9 59.123C150.942 59.1062 150.977 59.0747 150.997 59.0344C151.018 58.9941 151.023 58.9477 151.011 58.904V58.8258C151.17 58.671 151.347 58.5365 151.539 58.4253C151.558 58.4632 151.589 58.4934 151.627 58.5111C151.666 58.5288 151.709 58.5329 151.75 58.5226C151.791 58.5124 151.827 58.4884 151.853 58.4547C151.878 58.421 151.892 58.3796 151.89 58.3374C151.47 35.458 147.787 31.2963 146.224 30.5637C145.918 30.4162 145.575 30.3616 145.239 30.4068C144.902 30.4519 144.586 30.5948 144.329 30.8177C143.876 31.2666 143.518 31.8028 143.278 32.3939C143.038 32.9849 142.92 33.6185 142.932 34.2564C140.558 27.3398 137.334 24.4872 135.224 24.8585C133.476 25.1418 132.528 27.3691 132.635 30.9837C132.739 34.9423 133.417 38.8649 134.648 42.6286C132.645 39.1605 130.916 37.5877 129.685 38.1836C127.731 39.1605 128.2 45.022 130.535 49.9066C136.856 63.1243 143.088 63.8374 143.606 68.468C143.538 68.9369 143.382 69.0932 143.294 69.1421C143.206 69.1909 142.668 69.1421 142.219 68.6927C134.277 61.0727 124.253 45.3053 118.695 35.8292C118.552 35.5636 118.343 35.3395 118.088 35.1786C117.833 35.0177 117.54 34.9255 117.239 34.9109L117.102 34.6276C116.787 34.0452 116.655 33.3812 116.723 32.7224C116.791 32.0636 117.056 31.4407 117.483 30.9349C121.391 26.2164 120.707 25.4446 120.483 25.1906C119.222 23.8132 115.774 27.9651 113.937 28.1898C113.498 28.2484 112.96 26.529 112.843 25.7084C112.843 25.7084 111.944 19.8469 111.866 19.4757C111.72 18.3717 111.358 16.5449 110.596 16.5449C109.834 16.5449 109.619 18.8211 109.619 19.7199C109.619 21.6249 109.619 23.1684 109.619 24.1453C108.906 21.8886 107.832 18.5183 107.734 18.1861C107.411 17.1018 106.757 15.314 105.975 15.4898C105.389 15.6266 105.213 16.8868 105.526 18.7821C105.887 20.9606 106.278 23.4908 106.503 24.9855C105.966 23.7936 105.301 22.211 104.617 20.3353C104.149 19.0556 103.445 17.5707 102.771 17.7563C101.941 17.981 102.322 20.3549 102.459 21.0778C102.664 22.211 103.162 24.5849 103.572 26.148C103.152 25.386 102.713 24.5165 102.312 23.5787C101.775 22.3283 101.003 20.8727 100.358 21.0876C99.5278 21.3709 100.065 23.8132 100.251 24.5556C100.905 27.1738 101.433 28.3949 102.781 33.172C103.62 35.9425 104.642 38.6545 105.839 41.2902C105.067 42.824 105.839 43.4199 105.839 43.5371L123.277 70.7931C111.055 70.7931 112.98 70.7247 112.003 70.9298C110.567 71.5355 110.049 73.9778 110.596 77.7682L84.2195 82.1839C68.5107 48.451 69.6439 50.7565 69.4583 50.7858C68.7744 50.7858 68.1394 50.8835 67.5045 50.9617C66.3908 48.6855 66.4787 45.53 61.7309 43.3613C56.9831 41.1925 49.8027 31.6383 48.3276 34.4615C47.5851 35.8781 56.1429 51.8116 57.1198 54.7716C56.4946 55.1917 55.8889 55.6411 55.3223 56.11C55.2945 56.1333 55.2742 56.1642 55.2638 56.1989C55.2533 56.2337 55.2533 56.2707 55.2637 56.3054C58.8001 68.1163 62.5417 79.9468 66.5275 91.5525C49.793 83.913 50.7894 84.3038 50.6526 84.4308C50.2717 84.7923 49.8907 85.1733 49.5292 85.564C47.1651 84.4015 45.3578 81.9201 40.2876 83.112C35.2174 84.3038 24.1685 81.1581 24.2564 84.3136C24.3052 86.2674 42.5052 93.5161 44.2636 94.6591C44.0389 95.4016 43.8338 96.144 43.6677 96.8767C43.6604 96.911 43.663 96.9465 43.6751 96.9794C43.6872 97.0122 43.7083 97.041 43.7361 97.0623C55.3214 106.124 67.7115 114.106 80.7514 120.909C82.3288 121.754 84.077 122.232 85.8652 122.307C87.6534 122.381 89.4352 122.05 91.0774 121.339C102.615 116.442 113.648 110.432 124.019 103.393C124.407 103.584 124.842 103.659 125.272 103.608C125.702 103.558 126.108 103.385 126.442 103.109C139.064 96.0268 144.544 89.12 146.908 84.2354C156.677 76.0196 170.061 61.4342 178.55 47.6988C178.569 47.6713 178.579 47.639 178.579 47.606C178.579 47.5729 178.569 47.5406 178.55 47.5132C178.403 47.234 178.24 46.9633 178.062 46.7023C178.541 45.911 181.657 40.6357 182.439 37.0113C182.868 35.1747 182.634 34.8328 182.37 34.7546ZM105.887 18.743C105.555 16.711 105.887 15.9295 106.063 15.8806C106.239 15.8318 106.757 16.2323 107.382 18.3229C107.48 18.6453 109.824 26.0503 109.883 26.2261C109.097 26.5502 108.345 26.9494 107.636 27.418C107.558 27.2031 107.714 27.6231 107.05 26.2164C107.001 25.8549 106.415 21.9375 105.887 18.743ZM102.82 21.0387C102.429 18.9872 102.693 18.1861 102.82 18.108C102.947 18.0298 103.474 18.4304 104.227 20.4623C105.109 22.8756 106.12 25.2399 107.255 27.545C106.604 28.0148 105.993 28.5376 105.428 29.1081C104.976 28.5486 104.574 27.9503 104.227 27.3203C103.64 25.2545 103.17 23.1574 102.82 21.0387ZM103.123 33.1036C101.794 28.3656 101.276 27.2421 100.602 24.497C100.075 22.3771 100.29 21.5663 100.466 21.4686C100.641 21.3709 101.13 21.7714 101.97 23.7546C102.845 25.7743 103.946 27.6883 105.252 29.4597C104.666 30.0752 104.1 30.759 103.514 31.5113C103.357 31.6969 103.65 31.9216 103.797 31.736C105.946 28.9811 107.871 27.1738 111.348 26.0796C111.375 26.0754 111.4 26.0656 111.422 26.051C111.444 26.0363 111.462 26.017 111.476 25.9945C111.491 25.972 111.5 25.9468 111.503 25.9205C111.506 25.8942 111.504 25.8675 111.496 25.8421C111.489 25.8167 111.476 25.7933 111.458 25.7735C111.441 25.7536 111.419 25.7377 111.395 25.7269C111.37 25.7161 111.344 25.7106 111.318 25.7107C111.291 25.7109 111.265 25.7168 111.241 25.7279C110.889 25.8354 110.547 25.9526 110.264 26.0796L110.03 25.3469C110.03 25.0539 110.03 22.9144 110.03 19.7492C110.03 17.6781 110.459 16.9552 110.655 16.9454C110.85 16.9357 111.28 17.4144 111.573 19.5636C111.622 19.9153 112.55 25.7963 112.55 25.7963C112.55 25.7963 113.048 28.7271 114.054 28.6001C115.872 28.3656 119.359 24.4872 120.277 25.4739C120.444 25.6595 120.727 26.5876 117.269 30.7395C116.796 31.3028 116.503 31.995 116.428 32.7265C116.353 33.458 116.5 34.1952 116.848 34.8426C116.848 34.95 118.128 37.4118 118.226 37.5877C116.751 40.5184 111.055 43.9181 107.665 43.8106C105.767 40.4173 104.243 36.8271 103.123 33.1036ZM69.3606 51.157C81.2887 76.7913 83.5063 81.6368 84.0143 82.4867C84.112 82.6724 84.0143 82.6431 84.3172 82.604L119.027 76.7425C121.137 80.0096 122.89 83.4945 124.253 87.1369L86.398 93.311C84.5429 93.6152 82.6398 93.2638 81.0156 92.3171C79.3915 91.3704 78.1478 89.8877 77.4983 88.1236L64.1829 51.9777C65.8767 51.5302 67.6114 51.2553 69.3606 51.157ZM48.6988 34.6374C49.8418 32.4393 56.9831 41.5735 61.6136 43.6934C66.2442 45.8133 66.0195 48.578 67.1332 51.0105C63.6842 51.4585 60.3777 52.6664 57.452 54.5469C56.4458 51.6846 48.1127 35.7511 48.6988 34.6374ZM24.6081 84.3038C24.5495 81.7834 35.4128 84.6457 40.3657 83.4734C45.1624 82.3402 46.872 84.636 49.2557 85.8473C47.0567 88.2969 45.3931 91.1783 44.3711 94.3074C42.427 93.1449 24.6667 85.8962 24.6081 84.3038ZM90.9309 120.977C89.3406 121.668 87.6145 121.99 85.882 121.919C84.1496 121.848 82.4557 121.386 80.9273 120.567C67.9422 113.79 55.6016 105.844 44.0585 96.8279C45.0603 92.2425 47.4153 88.0634 50.8187 84.8313L66.6838 92.0801L69.6146 100.335C70.5037 102.836 72.1997 104.97 74.4354 106.401C76.6711 107.832 79.3193 108.478 81.9628 108.238C96.9389 106.861 108.75 104.692 119.134 101.4C119.175 101.381 119.208 101.348 119.226 101.307C119.244 101.266 119.247 101.22 119.234 101.177C119.221 101.134 119.193 101.098 119.155 101.074C119.117 101.05 119.071 101.041 119.027 101.048C108.662 104.311 96.8803 106.47 81.9042 107.887C79.3353 108.114 76.7638 107.479 74.5964 106.081C72.429 104.683 70.7895 102.603 69.937 100.169C65.0524 86.3846 60.9786 74.349 55.674 56.3152C58.061 54.3573 60.8289 52.9169 63.8019 52.0851L77.1271 88.231C77.7261 89.8554 78.8086 91.2571 80.2286 92.2475C81.6487 93.2378 83.3381 93.7692 85.0694 93.7701C86.0463 93.7701 82.8225 94.2488 124.351 87.469C126.383 92.8909 127.37 98.0002 126.901 100.921C115.679 108.899 103.617 115.625 90.9309 120.977ZM180.612 32.2049C181.149 29.958 181.589 29.831 181.589 29.831C181.589 29.831 181.94 30.4171 181.804 32.4003C181.629 34.4122 181.158 36.3873 180.407 38.2618C180.241 37.5915 180.016 36.9376 179.733 36.3079C180.12 34.9688 180.414 33.6043 180.612 32.2244V32.2049ZM179.391 29.6551C179.889 27.7013 180.231 27.545 180.231 27.545C180.231 27.545 180.553 28.1409 180.455 29.9384C180.356 31.9233 180.028 33.8901 179.479 35.7999C179.178 35.1773 178.818 34.5852 178.404 34.0317C178.518 33.4421 178.583 32.8442 178.599 32.244C178.873 31.5406 179.137 30.6516 179.391 29.6747V29.6551ZM182.077 36.9625C181.344 40.3621 178.502 45.2662 177.828 46.3995C176.375 44.4036 174.401 42.8456 172.122 41.8959C172.562 41.0362 174.33 37.3141 173.715 34.2564C173.197 31.7262 173.412 31.394 173.441 31.3257C173.471 31.2573 173.891 31.4429 175.2 33.7484C176.509 36.0539 177.261 41.5051 177.271 41.5637C177.271 41.8177 177.661 41.7396 177.632 41.5637C177.306 39.1273 176.73 36.731 175.913 34.4127C176.319 33.0126 176.645 31.5905 176.89 30.1534C177.222 28.3656 177.574 27.9358 177.661 27.926C177.749 27.9162 178.033 28.0725 178.189 30.3878C178.252 31.4995 178.213 32.6146 178.072 33.7191C177.939 33.5567 177.795 33.4033 177.642 33.2599C177.466 33.0939 177.212 33.3674 177.388 33.5237C178.932 35.2103 179.918 37.3323 180.211 39.6001C180.211 39.6494 180.231 39.6966 180.266 39.7314C180.3 39.7662 180.348 39.7857 180.397 39.7857C180.446 39.7857 180.493 39.7662 180.528 39.7314C180.563 39.6966 180.582 39.6494 180.582 39.6001C180.475 38.8186 180.426 39.1019 180.582 38.6232C180.739 38.1445 181.09 37.2751 181.364 36.3177C181.537 35.8598 181.818 35.4507 182.185 35.1259C182.185 35.1259 182.439 35.3212 182.077 36.9625Z" fill="#000001"/>
<path d="M158.533 59.8712C158.483 59.4931 158.356 59.1293 158.16 58.8017C157.965 58.4742 157.705 58.1899 157.396 57.966C157.087 57.7422 156.736 57.5834 156.364 57.4995C155.992 57.4156 155.606 57.4082 155.231 57.4777C175.112 37.1579 139.884 20.4722 160.233 0.318395C160.268 0.283417 160.288 0.235977 160.288 0.186511C160.288 0.137045 160.268 0.0896046 160.233 0.0546269C160.198 0.0196492 160.151 2.92528e-09 160.101 0C160.052 -2.92527e-09 160.004 0.0196492 159.969 0.0546269C139.269 20.5699 175.014 37.3533 154.626 57.595L148.413 58.5719C147.787 58.6682 147.212 58.9719 146.779 59.4343C146.347 59.8967 146.083 60.491 146.029 61.1216C138.145 62.0986 138.595 62.0302 138.497 62.1572C138.399 62.2842 138.751 62.4502 141.027 64.9023C141.154 65.0195 140.871 64.9902 146.488 64.3162C146.687 64.8534 147.045 65.3172 147.515 65.6454C147.984 65.9736 148.543 66.1506 149.116 66.1528C149.409 66.1528 148.93 66.1528 156.462 65.0782C157.201 64.9625 157.863 64.5599 158.306 63.9579C158.749 63.3559 158.936 62.6033 158.826 61.8641L158.533 59.8712ZM156.404 64.6679L153.473 65.1172C153.15 65.1742 152.818 65.1653 152.498 65.0912C152.178 65.0171 151.877 64.8793 151.611 64.6859C151.346 64.4926 151.122 64.2477 150.954 63.966C150.785 63.6843 150.675 63.3714 150.63 63.0462C150.337 61.0923 150.23 60.7504 150.386 60.1154C150.506 59.6476 150.761 59.2252 151.118 58.9005C151.476 58.5759 151.921 58.3631 152.398 58.2886L155.329 57.849C155.647 57.8006 155.971 57.8156 156.283 57.8932C156.595 57.9709 156.888 58.1095 157.146 58.3012C157.404 58.4928 157.622 58.7337 157.786 59.0099C157.95 59.2861 158.058 59.5921 158.104 59.9103L158.387 61.8641C158.492 62.4984 158.343 63.1485 157.971 63.6734C157.6 64.1983 157.037 64.5556 156.404 64.6679Z" fill="#0063D2"/>
</svg>
