<svg width="18" height="11" viewBox="0 0 18 11" fill="none" xmlns="http://www.w3.org/2000/svg">
<g opacity="0.52">
<path d="M8.54586 2.74951C8.00187 2.74951 7.4701 2.91082 7.01779 3.21305C6.56548 3.51527 6.21295 3.94483 6.00478 4.44741C5.7966 4.94999 5.74213 5.50301 5.84826 6.03655C5.95439 6.57008 6.21634 7.06017 6.601 7.44482C6.98566 7.82948 7.47574 8.09144 8.00927 8.19756C8.54281 8.30369 9.09583 8.24922 9.59841 8.04105C10.101 7.83287 10.5306 7.48034 10.8328 7.02803C11.135 6.57572 11.2963 6.04395 11.2963 5.49996C11.2958 4.77064 11.0059 4.07133 10.4902 3.55563C9.97449 3.03992 9.27518 2.74999 8.54586 2.74951ZM8.33719 4.68418C8.17021 4.68418 8.01007 4.75051 7.892 4.86859C7.77393 4.98666 7.70759 5.1468 7.70759 5.31378H6.80097C6.80471 4.90717 6.96765 4.51822 7.25484 4.23036C7.54203 3.9425 7.9306 3.77865 8.33719 3.77396V4.68418Z" fill="#747C8B"/>
<path d="M16.8908 4.93066C15.9607 3.774 12.6419 0 8.54496 0C4.44807 0 1.12918 3.774 0.199176 4.93066C0.0702293 5.09224 0 5.29283 0 5.49955C0 5.70627 0.0702293 5.90686 0.199176 6.06844C1.12828 7.2251 4.44807 11 8.54496 11C12.6419 11 15.9607 7.2224 16.8908 6.06844C17.0197 5.90686 17.0899 5.70627 17.0899 5.49955C17.0899 5.29283 17.0197 5.09224 16.8908 4.93066ZM8.54496 9.48267C7.75727 9.48267 6.98726 9.24909 6.33231 8.81147C5.67737 8.37384 5.1669 7.75184 4.86546 7.0241C4.56402 6.29636 4.48515 5.49558 4.63882 4.72302C4.7925 3.95046 5.17181 3.24082 5.7288 2.68383C6.28578 2.12684 6.99542 1.74753 7.76799 1.59386C8.54055 1.44019 9.34133 1.51906 10.0691 1.8205C10.7968 2.12194 11.4188 2.6324 11.8564 3.28735C12.2941 3.9423 12.5276 4.7123 12.5276 5.5C12.5276 6.55627 12.108 7.56928 11.3611 8.31617C10.6142 9.06306 9.60123 9.48267 8.54496 9.48267V9.48267Z" fill="#747C8B"/>
</g>
</svg>
