<svg width="17" height="18" viewBox="0 0 17 18" fill="none" xmlns="http://www.w3.org/2000/svg">
<path d="M7.0301 16.202H3.48032C2.33009 16.1978 1.39749 15.2686 1.38904 14.1184V7.05743C1.3913 6.67238 1.5636 6.30801 1.85977 6.06194L2.48484 5.59893C2.71304 5.3558 2.73625 4.9848 2.54012 4.71513C2.344 4.44546 1.9839 4.35323 1.68229 4.49541L1.04178 4.97386C0.39569 5.47378 0.012278 6.2406 0 7.05743V14.1261C0.00424393 16.0465 1.55995 17.6022 3.48032 17.6064H7.0301C7.41367 17.6064 7.72462 17.2955 7.72462 16.9119C7.72462 16.5283 7.41367 16.2174 7.0301 16.2174V16.202Z" fill="#0084F8"/>
<path d="M16.676 7.042C16.6679 6.23118 16.297 5.46663 15.6651 4.95844L10.3327 0.706422C9.16096 -0.235474 7.49174 -0.235474 6.31995 0.706422L4.62995 1.93341C4.31244 2.16142 4.23988 2.60366 4.4679 2.92117C4.69591 3.23869 5.13815 3.31124 5.45566 3.08323L7.16881 1.80222C7.84123 1.24864 8.81148 1.24864 9.48389 1.80222L14.8163 6.05424C15.1232 6.29752 15.3045 6.66584 15.3102 7.05744V14.1261C15.3102 15.2768 14.3773 16.2097 13.2266 16.2097H11.6446C11.4827 16.2097 11.3514 16.0784 11.3514 15.9164V12.7294C11.3514 11.7138 10.5303 10.8893 9.51475 10.885H7.19968C6.71053 10.885 6.24142 11.0793 5.89554 11.4252C5.54966 11.7711 5.35534 12.2402 5.35534 12.7294V13.9486C5.35534 14.3322 5.66629 14.6432 6.04986 14.6432C6.43344 14.6432 6.74438 14.3322 6.74438 13.9486V12.7294C6.74231 12.6093 6.78855 12.4935 6.87272 12.4079C6.95688 12.3223 7.07191 12.274 7.19197 12.2741H9.50704C9.75423 12.2741 9.95462 12.4745 9.95462 12.7216V15.9164C9.95887 16.8468 10.7143 17.5987 11.6446 17.5987H13.188C15.1101 17.5987 16.6683 16.0405 16.6683 14.1184L16.676 7.042Z" fill="#0084F8"/>
</svg>
