<svg width="360" height="41" viewBox="0 0 360 41" fill="none" xmlns="http://www.w3.org/2000/svg">
<path d="M-51 36.4515C-47.1271 33.8382 -35.1919 31.6582 -24.6898 29.6134C-11.7068 27.0856 3.01304 24.5041 13.6791 21.7145C15.9441 21.1222 15.2005 18.6482 19.4345 20.0086C29.1745 23.1382 38.6568 26.1225 44.0089 29.5131C47.8816 31.9664 52.4102 34.3651 56.7986 36.7955C57.5196 37.1949 58.0814 37.6004 58.8084 37.9997C58.8618 38.029 61.1278 35.8219 61.9145 35.491C72.489 31.0425 90.9117 27.1608 101.562 22.718C102.554 22.3044 107.56 18.3329 112.616 19.8509C116.687 21.073 118.223 22.5629 120.107 23.8935C123.705 26.4341 128.015 28.9266 132.44 31.434C134.721 32.7265 136.327 34.1864 140.297 35.3906C142.666 36.1094 151.59 32.5665 152.173 32.3515C162.117 28.6863 170.219 23.566 194.562 21.4565C201.375 20.866 210.012 24.6736 211.919 25.3844C212.885 25.7443 217.761 26.1575 219.593 26.5886C222.616 27.3002 224.96 27.5153 230.281 27.8215C240.433 28.4056 247.314 29.799 252.48 31.2333C258.766 32.9783 261.259 33.8777 269.29 31.7494C271.26 31.2271 273.283 30.3846 277.146 30.1152C280.097 29.9094 282.175 30.9666 283.45 31.2333C284.287 31.4086 295 25.8263 296.696 25.0977C302.115 22.7706 304.022 25.369 305.466 26.3306C307.559 27.7242 307.639 29.2002 309.943 30.5739C310.962 31.1815 313.336 30.2398 313.871 30.1008C321.926 28.0086 331.169 26.0367 340.364 24.0656C348.15 22.3963 355.928 20.6714 365.395 19.2201C373.967 17.906 379.511 17.5049 383.849 19.4495C385.055 19.9904 394.166 24.5701 396.273 23.5781C402.65 20.5759 406.743 17.3338 419.02 14.7331C427.197 13.0008 443.335 22.0341 449.076 22.2593C454.868 22.4865 477.372 16.102 480.685 15.2062C480.834 15.1659 483.654 14.0445 485.435 14.3747C495.185 16.183 497.39 19.5015 502.61 21.6859C503.94 22.2426 506.105 23.7548 508.091 23.2484C511.999 22.2519 512.496 20.4227 514.486 19.3062C520.738 15.7967 527.566 12.3496 534.218 8.86988C536.79 7.52481 540.729 6.01015 540.979 4.59788C541.059 4.14121 541.281 2.38809 546.003 3.22167C549.493 3.83781 551.356 4.83414 552.489 5.63004C561.205 11.7522 564 18.3128 564 24.5816" stroke="url(#paint0_linear_4470_65963)" stroke-width="5" stroke-linecap="round"/>
<defs>
<linearGradient id="paint0_linear_4470_65963" x1="564" y1="0.374997" x2="404.271" y2="284.22" gradientUnits="userSpaceOnUse">
<stop stop-color="#0D0214"/>
<stop offset="0.371672" stop-color="#1D72E9"/>
<stop offset="0.701274" stop-color="#00D8D8"/>
<stop offset="1" stop-color="#0685CD"/>
</linearGradient>
</defs>
</svg>
