<svg width="361" height="370" viewBox="0 0 361 370" fill="none" xmlns="http://www.w3.org/2000/svg">
<g opacity="0.7">
<path d="M335.399 173.202L331.976 144.968L358.425 156.157L335.399 173.202Z" fill="#84C4FF"/>
<path d="M353.103 164.331L332.867 179.312L329.858 154.497L353.103 164.331Z" stroke="#222222" stroke-width="2"/>
</g>
<path d="M307.256 339.851H292.124V334.861C292.124 334.79 292.096 334.722 292.045 334.671C291.995 334.621 291.927 334.593 291.856 334.593H284.377V302.664C287.37 302.062 290.109 300.562 292.228 298.363C295.05 298.45 297.842 297.773 300.311 296.404C302.78 295.035 304.834 293.024 306.255 290.584L306.274 290.523C306.287 290.455 306.275 290.385 306.238 290.326C306.084 290.133 306.685 290.203 296.285 290.203C296.406 289.431 296.466 288.651 296.467 287.87C296.467 287.798 296.439 287.729 296.389 287.678C296.338 287.627 296.27 287.598 296.198 287.597H266.57C266.498 287.597 266.43 287.625 266.379 287.676C266.329 287.726 266.3 287.794 266.3 287.866C266.299 288.648 266.36 289.43 266.481 290.203C256.6 290.203 256.955 290.186 256.807 290.203C256.746 290.215 256.692 290.249 256.654 290.297C256.616 290.345 256.596 290.406 256.598 290.467V290.5C256.601 290.516 256.604 290.532 256.61 290.547L256.62 290.576C258.031 292.999 260.067 294.999 262.515 296.367C264.962 297.736 267.731 298.422 270.534 298.354C272.653 300.554 275.392 302.055 278.385 302.657V334.585H270.861C270.79 334.585 270.721 334.614 270.671 334.664C270.621 334.714 270.592 334.783 270.592 334.854V339.842H252.505V332.904C252.505 332.833 252.477 332.765 252.427 332.715C252.377 332.664 252.309 332.636 252.238 332.635H197.216C197.145 332.636 197.078 332.664 197.027 332.715C196.977 332.765 196.949 332.833 196.949 332.904V346.262H175.281C174.861 343.58 174.741 342.612 174.655 342.238C174.601 342.001 174.563 342.004 174.468 341.952C170.366 340.511 169.802 339.204 169.757 334.787C169.891 333.136 170.43 331.544 171.328 330.153C172.16 328.903 173.049 327.693 173.949 326.067C177.969 325.991 185.676 321.051 185.675 309.748C185.675 309.677 185.646 309.609 185.596 309.559C185.546 309.508 185.477 309.48 185.406 309.48H177.815C177.853 308.52 177.87 307.623 177.87 306.607C177.857 306.484 177.972 306.407 177.56 306.357C176.62 306.241 172.927 306.267 158.681 306.227C158.61 306.227 158.542 306.255 158.491 306.306C158.441 306.356 158.413 306.424 158.413 306.496C158.413 307.484 158.434 308.496 158.473 309.484H150.882C150.811 309.484 150.743 309.512 150.693 309.563C150.642 309.613 150.614 309.681 150.614 309.753C150.614 321 158.341 325.944 162.426 326.065C163.264 327.58 164.077 328.737 164.805 329.895C165.787 331.352 166.383 333.033 166.54 334.783C166.44 338.981 166.053 340.465 161.843 341.947C161.794 341.961 161.75 341.989 161.717 342.028C161.683 342.066 161.661 342.113 161.653 342.164L161.018 346.255H142.2C142.129 346.255 142.061 346.284 142.01 346.334C141.96 346.384 141.932 346.453 141.932 346.524V360.152C141.932 360.224 141.96 360.292 142.01 360.342C142.061 360.393 142.129 360.421 142.2 360.421C142.271 360.421 142.339 360.393 142.39 360.342C142.44 360.292 142.468 360.224 142.468 360.152V346.792H196.951C196.951 359.547 196.911 360.109 196.971 360.255C196.994 360.313 197.037 360.361 197.092 360.39C197.147 360.42 197.21 360.429 197.272 360.417C197.333 360.405 197.388 360.372 197.427 360.323C197.466 360.275 197.488 360.215 197.488 360.152V333.173H251.969C251.969 360.495 251.929 360.118 251.989 360.262L252.014 360.308C252.046 360.355 252.092 360.391 252.145 360.411C252.199 360.43 252.257 360.432 252.312 360.416C252.367 360.4 252.415 360.367 252.45 360.322C252.484 360.277 252.504 360.222 252.505 360.165V340.394H306.995V360.165C306.995 360.236 307.023 360.305 307.073 360.355C307.124 360.405 307.192 360.434 307.263 360.434C307.334 360.434 307.403 360.405 307.453 360.355C307.503 360.305 307.532 360.236 307.532 360.165V340.12C307.532 340.084 307.524 340.048 307.511 340.015C307.497 339.982 307.476 339.952 307.451 339.927C307.425 339.902 307.394 339.882 307.361 339.869C307.328 339.856 307.292 339.85 307.256 339.851V339.851ZM296.195 290.741H305.557C304.19 292.908 302.297 294.693 300.054 295.931C297.812 297.168 295.293 297.818 292.732 297.82C294.493 295.809 295.688 293.366 296.195 290.741V290.741ZM257.325 290.741H266.574C267.082 293.364 268.276 295.805 270.034 297.816C267.494 297.793 264.999 297.134 262.779 295.898C260.559 294.663 258.684 292.89 257.325 290.741V290.741ZM281.385 292.644C281.935 292.644 282.474 292.807 282.932 293.113C283.39 293.419 283.747 293.854 283.958 294.363C284.169 294.872 284.224 295.433 284.116 295.973C284.009 296.514 283.744 297.01 283.354 297.4C282.965 297.789 282.469 298.055 281.929 298.162C281.389 298.27 280.829 298.214 280.32 298.003C279.811 297.792 279.377 297.435 279.071 296.977C278.765 296.518 278.602 295.98 278.602 295.429C278.603 294.69 278.896 293.982 279.418 293.46C279.939 292.938 280.647 292.645 281.385 292.644V292.644ZM177.79 310.024H185.132C185.017 320.488 178.116 325.218 174.241 325.523C175.9 322.341 177.436 317.761 177.79 310.024ZM151.154 310.024H158.495C158.868 317.781 160.46 322.333 162.127 325.513C158.193 325.173 151.272 320.44 151.154 310.028V310.024ZM164.75 320.713L165.947 316.756L162.655 314.256L166.787 314.171L168.143 310.266L169.499 314.171L173.639 314.256L170.346 316.756L171.542 320.713L168.149 318.35L164.75 320.713ZM161.578 346.147L162.149 342.475H174.14L174.711 346.147H161.578ZM271.138 335.125H291.589V339.84H271.138V335.125Z" fill="#0063D2"/>
<path d="M328.499 359.891C195.923 359.891 120.33 359.817 118.379 359.937C117.765 359.974 117.752 360.349 118.404 360.387C119.723 360.462 286.771 360.427 328.499 360.427C328.57 360.427 328.639 360.398 328.689 360.348C328.739 360.298 328.767 360.23 328.767 360.159C328.767 360.088 328.739 360.02 328.689 359.969C328.639 359.919 328.57 359.891 328.499 359.891V359.891Z" fill="#000001"/>
<path d="M300.038 89.2686C300.038 89.1973 300.009 89.129 299.959 89.0787C299.909 89.0283 299.84 89 299.769 89C299.698 89 299.63 89.0283 299.579 89.0787C299.529 89.129 299.501 89.1973 299.501 89.2686V94.26C277.892 86.6672 256.073 102.171 234.649 94.3871C234.479 94.3271 234.327 94.4057 234.313 94.6471C234.252 95.6142 234.289 100.728 234.289 127.553C234.289 127.608 234.306 127.662 234.338 127.707C234.369 127.752 234.414 127.787 234.466 127.805C256.12 135.675 278.023 120.065 299.501 127.743V139.6C299.501 139.671 299.529 139.739 299.579 139.79C299.63 139.84 299.698 139.868 299.769 139.868C299.84 139.868 299.909 139.84 299.959 139.79C300.009 139.739 300.038 139.671 300.038 139.6C300.038 135.425 300.039 128.72 300.038 89.2686ZM234.826 127.364V95.0214C256.47 102.624 278.046 87.1643 299.494 94.8285V127.171C277.941 119.598 256.203 135.005 234.826 127.364Z" fill="#0063D2"/>
<path d="M299.499 176.782V155.124C299.499 155.053 299.527 154.984 299.578 154.934C299.628 154.884 299.696 154.855 299.767 154.855C299.839 154.855 299.907 154.884 299.957 154.934C300.008 154.984 300.036 155.053 300.036 155.124V176.782C300.036 176.853 300.008 176.922 299.957 176.972C299.907 177.022 299.839 177.051 299.767 177.051C299.696 177.051 299.628 177.022 299.578 176.972C299.527 176.922 299.499 176.853 299.499 176.782Z" fill="#0063D2"/>
<path d="M237.739 210.235L231.805 302.814C224.968 305.627 217.319 305.737 210.404 303.123L214.9 242.552L228.374 229.715L202.293 246.329C199.425 248.155 196 248.895 192.636 248.416C189.271 247.938 186.187 246.272 183.942 243.719L163.284 220.25C166.954 214.092 172.751 209.493 179.579 207.321L194.977 225.538C194.977 225.538 207.608 208.626 216.533 204.092C221.312 209.038 233.101 213.005 237.739 210.235Z" fill="#E6E7E8"/>
<path d="M233.05 192.625L236.589 173.988C236.602 173.917 236.587 173.845 236.547 173.786C236.507 173.727 236.445 173.686 236.375 173.673C236.305 173.659 236.233 173.674 236.174 173.714C236.115 173.754 236.074 173.816 236.06 173.886L232.581 192.205L220.03 174.258C219.987 174.205 219.926 174.17 219.858 174.16C219.791 174.151 219.722 174.167 219.667 174.207C219.611 174.246 219.572 174.304 219.557 174.371C219.543 174.438 219.554 174.508 219.589 174.566L232.23 192.639C231.084 192.764 230.031 193.327 229.288 194.21C228.546 195.093 228.173 196.228 228.246 197.38C228.318 198.531 228.832 199.61 229.679 200.393C230.527 201.175 231.643 201.6 232.796 201.58C233.949 201.56 235.049 201.096 235.869 200.285C236.689 199.473 237.164 198.377 237.197 197.224C237.23 196.07 236.817 194.949 236.045 194.092C235.272 193.236 234.199 192.71 233.05 192.625V192.625Z" fill="#0063D2"/>
<path d="M275.543 223.979C274.549 223.979 273.577 223.685 272.75 223.132C271.924 222.58 271.28 221.795 270.899 220.876C270.518 219.957 270.419 218.946 270.612 217.97C270.806 216.995 271.285 216.099 271.987 215.395C272.69 214.692 273.585 214.213 274.56 214.019C275.535 213.824 276.545 213.924 277.464 214.305C278.382 214.685 279.167 215.33 279.719 216.157C280.271 216.984 280.566 217.956 280.566 218.95C280.565 220.283 280.035 221.561 279.093 222.504C278.151 223.447 276.874 223.977 275.543 223.979V223.979ZM275.543 214.46C274.655 214.46 273.787 214.723 273.048 215.217C272.31 215.71 271.735 216.412 271.395 217.232C271.055 218.053 270.966 218.956 271.139 219.828C271.312 220.699 271.74 221.5 272.367 222.128C272.995 222.756 273.795 223.184 274.666 223.357C275.537 223.53 276.439 223.441 277.259 223.101C278.079 222.761 278.78 222.185 279.273 221.446C279.767 220.707 280.03 219.839 280.029 218.95C280.028 217.76 279.555 216.619 278.713 215.777C277.872 214.935 276.732 214.462 275.543 214.46V214.46Z" fill="#0063D2"/>
<path d="M195.142 127.888H190.542V123.281C190.542 123.21 190.514 123.143 190.464 123.092C190.414 123.042 190.346 123.014 190.275 123.014C190.205 123.014 190.137 123.042 190.087 123.092C190.037 123.143 190.008 123.21 190.008 123.281V127.886H185.405C185.334 127.886 185.266 127.914 185.216 127.964C185.166 128.014 185.138 128.082 185.138 128.153C185.138 128.224 185.166 128.291 185.216 128.342C185.266 128.392 185.334 128.42 185.405 128.42H190.006V133.027C190.006 133.098 190.034 133.166 190.084 133.216C190.134 133.266 190.202 133.294 190.273 133.294C190.343 133.294 190.411 133.266 190.461 133.216C190.511 133.166 190.54 133.098 190.54 133.027V128.423H195.143C195.214 128.423 195.282 128.394 195.332 128.344C195.382 128.294 195.41 128.226 195.41 128.155C195.409 128.084 195.381 128.016 195.331 127.966C195.281 127.916 195.213 127.888 195.142 127.888Z" fill="#0063D2"/>
<path d="M167.59 281.27L170.785 274.154H165.087C165.042 274.151 164.998 274.137 164.959 274.114C164.921 274.091 164.888 274.059 164.864 274.02C164.841 273.982 164.826 273.939 164.822 273.894C164.818 273.849 164.825 273.803 164.842 273.762L168.206 266.283C168.235 266.219 168.289 266.169 168.355 266.144C168.422 266.119 168.495 266.121 168.56 266.15C168.624 266.179 168.675 266.233 168.7 266.299C168.725 266.365 168.724 266.438 168.695 266.503L165.502 273.619C171.693 273.619 171.299 273.56 171.425 273.762C171.55 273.963 171.729 273.379 168.08 281.497C168.05 281.562 167.995 281.613 167.928 281.637C167.861 281.662 167.787 281.659 167.722 281.629C167.657 281.599 167.607 281.544 167.582 281.477C167.557 281.409 167.56 281.335 167.59 281.27Z" fill="#0063D2"/>
<path d="M131.32 195.075C138.17 200.41 145.72 204.776 153.759 208.051C156.22 208.726 158.473 210.008 160.313 211.778L165.112 217.189C164.331 218.189 163.186 219.846 163.036 220.145C163.012 220.209 162.924 220.168 163.096 220.403C163.654 221.162 166.919 224.779 183.739 243.898C186.018 246.512 189.162 248.219 192.595 248.707C196.028 249.195 199.522 248.431 202.44 246.555L214.926 238.6C209.917 306.053 210.088 303.111 210.181 303.271C211.474 303.801 212.812 304.213 214.178 304.503C214.393 307.269 214.152 310.051 213.464 312.738C213.286 313.296 213.138 313.801 213.009 314.253C211.938 318.01 212.405 318.667 213.536 319.786C215.767 322.219 217.066 325.364 217.203 328.664C217.318 329.882 217.881 331.013 218.782 331.839C219.683 332.664 220.859 333.126 222.081 333.133H240.658C240.675 333.133 240.695 333.17 240.712 333.167L240.761 333.151L240.809 333.127C240.846 333.101 240.875 333.068 240.896 333.028C240.917 332.989 240.927 332.946 240.928 332.901C240.503 331.783 239.882 330.749 239.095 329.85C237.984 328.549 236.617 327.491 235.08 326.744C233.542 325.996 231.867 325.574 230.158 325.504C228.573 318.51 228.16 311.301 228.936 304.171C229.971 303.867 230.983 303.487 231.963 303.036C232.151 302.893 231.806 307.091 238.011 210.283C240.748 201.284 244.191 198.149 244.669 191.672C249.043 189.462 255.19 186.181 258.706 182.982C259.038 182.618 258.458 179.411 258.374 179.031C268.742 173.154 278.752 166.666 288.352 159.602C293.517 155.814 297.189 155.661 301.609 155.237C301.763 155.237 301.914 155.247 302.064 155.247C302.507 155.217 302.927 155.04 303.258 154.744C303.588 154.448 303.811 154.05 303.889 153.612C303.968 153.175 303.898 152.725 303.691 152.332C303.485 151.939 303.152 151.626 302.748 151.444C303.206 151.434 303.647 151.27 304.001 150.98C304.354 150.689 304.6 150.287 304.699 149.84C304.798 149.392 304.744 148.925 304.545 148.512C304.347 148.099 304.015 147.765 303.604 147.563C303.989 147.389 304.313 147.104 304.536 146.746C304.759 146.387 304.871 145.97 304.857 145.548C304.844 145.126 304.705 144.717 304.459 144.374C304.213 144.031 303.871 143.768 303.476 143.62C303.883 143.38 304.199 143.013 304.376 142.575C304.553 142.136 304.58 141.652 304.453 141.197C304.326 140.742 304.053 140.341 303.675 140.058C303.297 139.774 302.836 139.624 302.364 139.63C302.364 139.63 300.621 139.63 300.058 139.64C299.833 138.154 298.985 137.925 296.592 137.755C293.209 137.558 269.611 156.062 249.566 166.495C249.138 166.781 240.387 171.907 236.224 173.708C234.598 174.409 233.98 174.582 233.282 174.327C232.837 174.146 232.454 173.842 232.176 173.451C231.898 173.06 231.737 172.597 231.711 172.118C231.768 171.677 231.88 171.245 232.047 170.832C237.479 171.482 237.403 163.498 235.503 158.495C234.218 155.094 231.533 150.807 227.987 150.067C227.19 149.923 226.372 149.937 225.581 150.11C224.79 150.284 224.04 150.611 223.376 151.075C223.912 149.848 224.063 148.487 223.809 147.172C223.556 145.857 222.909 144.649 221.956 143.71C221.444 143.036 220.797 142.479 220.055 142.073C219.313 141.668 218.494 141.424 217.651 141.358C216.809 141.291 215.962 141.404 215.166 141.688C214.37 141.973 213.643 142.422 213.033 143.007C212.423 143.593 211.943 144.3 211.625 145.084C211.308 145.868 211.159 146.71 211.189 147.555C211.22 148.4 211.428 149.229 211.802 149.988C212.175 150.747 212.704 151.418 213.355 151.958C214.213 152.908 215.328 153.59 216.564 153.919C217.801 154.249 219.107 154.213 220.324 153.815C219.608 154.598 219.07 155.527 218.748 156.539C218.426 157.55 218.328 158.619 218.459 159.672C219.162 164.387 224.794 167.911 225.937 168.584C225.906 171.108 225.509 173.527 223.048 174.249C222.548 174.395 222.025 174.437 221.509 174.372C216.375 173.715 211.327 172.504 206.454 170.758C194.762 166.717 180.3 160.267 170.151 155.615C168.831 155.01 167.412 153.314 167.649 152.074C168.058 149.945 169.295 146.104 167.736 145.798C165.612 145.38 164.637 150.564 162.928 151.73C162.597 151.955 161.202 151.144 160.358 150.353C160.358 150.353 155.9 146.155 155.639 145.9C154.103 144.4 152.961 143.837 152.421 144.315C151.903 144.777 152.278 145.95 153.433 147.458C154.32 148.594 155.105 149.806 155.779 151.08C153.637 149.553 150.51 147.32 150.224 147.103C149.208 146.328 147.405 145.135 146.745 145.85C146.116 146.531 147.306 148.075 148.073 148.935C149.619 150.67 151.543 152.584 152.664 153.677C151.552 153.226 150.466 152.716 149.409 152.148C147.967 151.378 146.15 150.614 145.68 151.347C145.151 152.175 147.023 153.73 147.853 154.361C149.994 155.992 151.279 156.948 152.053 157.504C150.83 157.254 149.629 156.907 148.461 156.467C145.223 155.238 144.911 155.871 144.808 156.08C144.094 157.525 150.271 160.337 155.479 163.374C155.689 163.495 179.021 176.477 198.057 183.641C197.847 186.255 198.468 188.121 199.696 188.532C200.384 188.768 205.824 190.818 213.303 193.038C214.692 196.547 215.673 200.204 216.225 203.938C207.986 208.262 196.621 222.933 194.965 225.108C178.751 205.924 179.801 207.048 179.552 207.054C179.153 207.136 177.734 207.665 177.242 207.864C165.215 193.645 165.841 194.329 165.699 194.274L165.663 194.264C155.717 192.454 137.779 191.539 131.372 194.624C131.331 194.643 131.295 194.673 131.269 194.71C131.242 194.747 131.226 194.79 131.22 194.835C131.215 194.88 131.222 194.926 131.239 194.968C131.257 195.01 131.285 195.047 131.32 195.075ZM174.165 209.945L190.398 229.138C193.417 232.828 195.893 232.729 198.628 229.138C207.289 217.792 214.124 210.489 219.517 206.819C219.957 207.105 220.517 207.439 220.945 207.676C213.183 213.056 204.06 224.762 199.268 231.326C198.76 232.021 198.103 232.593 197.345 232.998C196.586 233.404 195.746 233.633 194.887 233.669C194.028 233.705 193.172 233.547 192.382 233.206C191.593 232.865 190.89 232.351 190.327 231.7L172.411 211.033C172.984 210.648 173.569 210.285 174.165 209.945ZM210.686 302.937L215.159 242.676L221.774 236.373L216.896 304.448C214.781 304.154 212.701 303.648 210.686 302.937V302.937ZM240.244 332.595H222.077C222.054 332.595 222.034 332.553 222.014 332.555C220.94 332.541 219.909 332.131 219.119 331.403C218.329 330.675 217.835 329.681 217.731 328.611C217.546 325.576 216.484 322.659 214.672 320.217C213.275 318.537 212.335 318.828 213.396 314.856C214.148 315.61 216.067 317.081 216.582 317.697C218.328 320.056 219.348 322.874 219.516 325.804C219.623 326.897 220.093 327.922 220.851 328.716C221.609 329.509 222.611 330.025 223.697 330.181C224.499 330.298 222.515 330.264 238.759 330.264C239.357 330.97 239.857 331.755 240.244 332.595V332.595ZM231.546 302.634C227.094 304.514 222.219 305.165 217.43 304.518L222.352 235.823C227.367 231.045 228.491 230.015 228.594 229.87C228.624 229.83 228.642 229.782 228.646 229.732C228.65 229.682 228.64 229.632 228.617 229.587C228.594 229.542 228.558 229.505 228.515 229.48C228.472 229.454 228.423 229.441 228.372 229.442C228.23 229.442 229.36 228.765 202.148 246.097C199.339 247.903 195.975 248.638 192.669 248.168C189.363 247.698 186.337 246.055 184.141 243.538L163.619 220.225C165.798 216.749 168.633 213.732 171.966 211.341L189.921 232.055C190.537 232.766 191.306 233.329 192.169 233.702C193.033 234.075 193.969 234.248 194.909 234.209C195.849 234.17 196.768 233.919 197.597 233.475C198.427 233.031 199.145 232.406 199.7 231.646C204.519 225.045 213.731 213.228 221.474 207.968C225.217 210.024 229.378 211.199 233.643 211.405C234.943 211.442 236.237 211.199 237.434 210.691L231.546 302.634ZM302.084 154.71C300.875 154.71 299.457 154.455 297.203 154.204C294.949 153.952 294.962 151.293 297.095 151.411C298.859 151.484 300.045 151.59 301.747 151.728C303.877 151.9 303.791 154.704 302.084 154.71ZM302.885 150.904C301.619 150.944 300.261 150.73 297.827 150.527C295.516 150.337 295.4 147.621 297.62 147.621C299.08 147.621 301.412 147.755 302.474 147.81C304.702 147.927 304.652 150.848 302.885 150.904ZM300.098 140.177C300.639 140.17 302.352 140.167 302.352 140.167C304.454 140.167 304.494 143.083 302.826 143.235C301.89 143.298 300.951 143.298 300.015 143.235C300.096 142.218 300.123 141.197 300.098 140.177ZM299.981 143.853C300.358 143.868 302.028 143.968 302.538 143.981C304.811 144.043 304.822 147.025 303.019 147.124C301.783 147.194 300.188 147.003 297.871 146.871C297.556 146.889 297.244 146.801 296.984 146.622C296.724 146.443 296.53 146.183 296.434 145.883C296.368 145.634 296.362 145.373 296.416 145.121C296.47 144.869 296.583 144.634 296.745 144.434C297.821 146.833 299.843 146.434 299.924 144.905L299.981 143.853ZM296.544 138.291C299.97 138.531 299.731 138.48 299.387 144.881C299.33 145.947 297.878 146.007 297.093 143.864C296.844 143.13 296.683 142.369 296.614 141.597C296.605 141.527 296.57 141.463 296.515 141.42C296.46 141.376 296.39 141.355 296.32 141.362C296.25 141.369 296.186 141.403 296.141 141.458C296.096 141.512 296.074 141.581 296.08 141.651C296.472 145.508 294.718 147.91 292.307 148.677C292.239 148.699 292.182 148.747 292.149 148.81C292.117 148.873 292.111 148.947 292.132 149.015C292.154 149.083 292.202 149.14 292.266 149.173C292.329 149.205 292.403 149.211 292.471 149.19C293.231 148.954 293.934 148.561 294.534 148.037C295.134 147.514 295.617 146.87 295.954 146.148C296.032 146.374 296.154 146.581 296.313 146.758C296.473 146.936 296.666 147.079 296.882 147.18C296.477 147.293 296.12 147.538 295.868 147.875C295.615 148.212 295.481 148.622 295.486 149.044C295.49 149.465 295.633 149.873 295.893 150.204C296.153 150.535 296.514 150.772 296.922 150.877C294.264 150.933 294.282 154.424 297.145 154.742C297.783 154.814 298.344 154.885 298.848 154.948C294.913 155.3 291.159 156.766 288.025 159.174C278.484 166.193 268.539 172.643 258.24 178.491C257.122 173.717 254.264 169.532 250.227 166.754C269.948 156.402 293.596 138.038 296.544 138.291ZM226.461 168.434C226.439 166.21 226.232 163.991 225.844 161.801C225.836 161.753 225.816 161.707 225.784 161.67C225.752 161.632 225.711 161.604 225.664 161.588C223.079 160.722 224.144 157.764 225.819 158.925C226.675 159.551 227.507 159.79 227.65 158.738C228.467 153.892 231.994 152.595 234.3 157.064L234.989 158.691C236.261 162.271 236.674 167.207 234.933 169.304C233.249 171.335 230.197 169.732 229.42 169.5C229.213 169.465 228.908 169.618 229.29 170.101C229.564 170.448 230.147 171.051 231.16 172.209C231.199 172.683 231.344 173.141 231.585 173.55C231.825 173.959 232.154 174.309 232.548 174.574C229.738 175.469 226.715 175.436 223.926 174.478C226.113 173.382 226.439 170.834 226.461 168.434ZM148.46 148.577C147.168 147.127 147.004 146.348 147.126 146.215C147.216 146.117 147.949 146.054 149.886 147.53C150.213 147.778 157.081 152.684 157.228 152.787C156.751 153.379 156.327 154.011 155.961 154.677C155.26 154.564 154.571 154.385 153.903 154.142C153.509 153.764 150.615 150.994 148.46 148.577ZM148.174 153.935C146.393 152.581 146.048 151.768 146.13 151.64C146.19 151.545 146.915 151.43 149.153 152.625C151.193 153.81 153.403 154.673 155.706 155.182C155.293 156.048 154.972 156.955 154.749 157.888C154.094 157.847 153.782 157.794 153.333 157.735C152.846 157.484 149.345 154.822 148.177 153.935H148.174ZM155.74 162.914C151.572 160.485 149.84 159.708 147.475 158.237C145.593 157.062 145.268 156.424 145.276 156.331C145.276 156.331 145.704 156.004 148.263 156.975C150.307 157.742 152.447 158.227 154.622 158.418C154.565 158.683 154.512 158.951 154.464 159.221C154.451 159.291 154.467 159.363 154.507 159.422C154.548 159.48 154.61 159.52 154.68 159.533C154.75 159.546 154.822 159.53 154.881 159.49C154.939 159.449 154.979 159.387 154.992 159.317C155.398 156.338 156.84 153.598 159.063 151.577C159.115 151.527 159.144 151.459 159.145 151.388C159.146 151.317 159.119 151.248 159.069 151.197C159.02 151.146 158.952 151.116 158.88 151.115C158.809 151.114 158.741 151.141 158.689 151.191C158.278 151.588 157.909 151.98 157.575 152.37L156.652 151.707C155.921 150.067 154.978 148.53 153.847 147.135C152.674 145.605 152.644 144.833 152.765 144.724C152.864 144.638 153.57 144.651 155.25 146.295C155.515 146.555 159.977 150.755 159.977 150.755C160 150.777 162.281 152.827 163.218 152.184C164.946 151.001 166.111 146.041 167.619 146.335C168.488 146.503 167.407 150.43 167.108 151.983C166.822 153.48 168.392 155.411 169.919 156.117C173.362 157.688 182.825 161.974 193.055 166.164C197.489 167.982 202.257 169.735 206.427 171.329C207.239 171.639 207.711 172.839 207.737 174.568C207.577 178.386 206.331 182.078 204.147 185.212C189.61 180.577 165.125 168.338 155.749 162.914H155.74ZM214.942 195.974C215.853 194.698 216.272 194.152 216.448 193.878C216.624 193.604 216.548 193.449 216.375 193.376C211.313 191.948 206.21 190.308 201.216 188.512C205.514 187.084 209.991 175.607 207.632 171.721C212.115 173.23 216.736 174.296 221.427 174.904C221.989 174.974 222.56 174.933 223.106 174.785C227.035 176.042 230.699 176.071 233.198 174.868C234.068 175.154 234.872 174.868 236.427 174.202C240.964 172.046 245.388 169.658 249.68 167.047C254.464 169.851 258.198 176.655 258.245 182.667C254.838 185.729 248.986 188.877 244.699 191.051C244.754 189.61 244.687 188.167 244.501 186.737C244.497 186.701 244.485 186.668 244.468 186.637C244.451 186.606 244.427 186.579 244.399 186.557C244.372 186.535 244.34 186.519 244.306 186.51C244.272 186.501 244.236 186.498 244.201 186.502C244.166 186.507 244.132 186.518 244.101 186.535C244.071 186.553 244.044 186.576 244.022 186.604C244 186.632 243.984 186.663 243.975 186.698C243.965 186.732 243.963 186.767 243.967 186.802C245.192 196.802 240.836 199.174 237.512 210.053C232.497 212.921 220.915 208.196 216.774 203.961C216.341 201.261 215.729 198.592 214.942 195.974V195.974ZM179.489 207.631C195.335 226.381 194.718 225.721 194.895 225.793L194.942 225.803H194.969C195.011 225.805 195.053 225.796 195.091 225.778C195.129 225.759 195.162 225.733 195.188 225.699C195.315 225.533 207.72 209.002 216.474 204.414C217.259 205.189 218.117 205.886 219.035 206.498C213.622 210.239 206.801 217.545 198.201 228.81C195.632 232.166 193.559 232.146 190.809 228.785L174.644 209.679C176.19 208.843 177.812 208.157 179.489 207.631ZM165.467 194.774L167.406 197.066C156.18 195.281 140.916 194.816 134.991 197.154C133.936 196.405 132.932 195.659 132.001 194.928C138.395 192.228 155.575 192.988 165.467 194.774Z" fill="#000001"/>
<path d="M162.905 161.391C160.336 159.835 159.526 157.272 160.487 153.773C160.496 153.738 160.499 153.703 160.495 153.668C160.49 153.633 160.479 153.599 160.462 153.568C160.444 153.538 160.421 153.511 160.393 153.489C160.365 153.467 160.333 153.451 160.299 153.442C160.265 153.432 160.23 153.43 160.195 153.434C160.16 153.439 160.126 153.45 160.095 153.467C160.064 153.485 160.037 153.508 160.016 153.536C159.994 153.564 159.978 153.596 159.969 153.63C158.937 157.39 159.826 160.155 162.627 161.851C162.688 161.888 162.761 161.899 162.83 161.882C162.899 161.865 162.959 161.821 162.996 161.76C163.033 161.699 163.044 161.626 163.027 161.557C163.01 161.488 162.966 161.428 162.905 161.391V161.391Z" fill="#000001"/>
<path d="M350.384 26.7249C349.941 24.6572 348.701 22.8446 346.929 21.6734C345.156 20.5021 342.991 20.0649 340.895 20.4548V20.4548L337.158 21.2601L334.43 8.62481L345.342 6.2459C345.516 6.18227 345.663 6.06213 345.76 5.90502C345.857 5.74791 345.898 5.56304 345.875 5.38048C345.853 5.19791 345.769 5.02837 345.637 4.89938C345.505 4.77039 345.333 4.68954 345.148 4.66996L334.188 7.01158L333.194 2.46435C333.058 1.35694 331.414 1.81837 331.605 2.65967L332.594 7.16429C328.856 7.96958 325.851 7.9931 323.714 11.5416C322.868 12.8307 322.409 14.3322 322.393 15.8692C322.377 17.4062 322.804 18.9149 323.623 20.2176C324.443 21.5204 325.621 22.5631 327.019 23.223C328.416 23.8829 329.976 24.1325 331.514 23.9426L336.025 23.0422L338.753 35.6775L327.679 38.1627C327.505 38.2264 327.358 38.3465 327.261 38.5036C327.164 38.6607 327.124 38.8456 327.146 39.0281C327.168 39.2107 327.252 39.3803 327.384 39.5093C327.516 39.6382 327.688 39.7191 327.873 39.7387L338.876 37.3918L339.827 41.9443C339.854 42.1589 339.965 42.3542 340.136 42.4871C340.308 42.6201 340.526 42.6799 340.743 42.6533C340.959 42.6267 341.156 42.5159 341.29 42.3453C341.425 42.1747 341.486 41.9583 341.459 41.7437L340.47 37.2391L344.208 36.4338C345.258 36.2021 346.252 35.7664 347.132 35.1518C348.012 34.5372 348.76 33.7558 349.335 32.853C349.909 31.9501 350.298 30.9437 350.478 29.8918C350.658 28.84 350.626 27.7636 350.384 26.7249V26.7249ZM331.594 22.4627C330.732 22.7134 329.828 22.7852 328.938 22.6738C328.047 22.5623 327.19 22.2701 326.419 21.8151C325.649 21.3602 324.981 20.7524 324.458 20.0297C323.936 19.3069 323.569 18.4847 323.381 17.6144C323.193 16.7441 323.188 15.8443 323.366 14.9712C323.544 14.0981 323.902 13.2703 324.417 12.5397C324.931 11.809 325.592 11.1911 326.358 10.7244C327.123 10.2578 327.977 9.95247 328.866 9.82747L332.604 9.02218L335.332 21.6574L331.594 22.4627ZM347.882 31.918C347.436 32.6295 346.851 33.246 346.162 33.7315C345.473 34.2171 344.694 34.5619 343.87 34.7459L340.047 35.5617L337.276 22.9318L341.013 22.1265C342.254 21.8564 343.546 21.9506 344.732 22.3976C345.918 22.8446 346.947 23.6251 347.691 24.6435C348.436 25.662 348.865 26.8743 348.926 28.1322C348.987 29.3901 348.676 30.6391 348.033 31.7265L347.882 31.918Z" fill="#0063D2"/>
<path d="M111.285 204.834C111.005 203.295 110.131 201.926 108.847 201.019C107.564 200.112 105.973 199.739 104.415 199.978V199.978L101.633 200.487L99.9087 191.081L108.032 189.576C108.162 189.533 108.274 189.448 108.349 189.334C108.424 189.22 108.458 189.084 108.446 188.949C108.434 188.813 108.376 188.686 108.281 188.587C108.187 188.489 108.061 188.425 107.925 188.406L99.7675 189.883L99.138 186.498C99.0631 185.676 97.8372 185.979 97.9585 186.606L98.5852 189.959C95.8031 190.468 93.5807 190.415 91.9187 192.989C91.2628 193.923 90.889 195.022 90.8415 196.158C90.7939 197.294 91.0744 198.419 91.65 199.402C92.2256 200.384 93.0724 201.182 94.0907 201.703C95.109 202.223 96.2564 202.444 97.3979 202.339L100.754 201.778L102.478 211.183L94.2328 212.764C94.1026 212.807 93.9908 212.892 93.9156 213.006C93.8403 213.12 93.8061 213.256 93.8184 213.391C93.8308 213.527 93.889 213.654 93.9835 213.752C94.0781 213.851 94.2035 213.915 94.3393 213.933L102.529 212.454L103.127 215.842C103.141 216.001 103.219 216.148 103.343 216.25C103.467 216.352 103.626 216.402 103.787 216.387C103.948 216.372 104.096 216.295 104.199 216.172C104.303 216.049 104.352 215.891 104.338 215.731L103.711 212.378L106.493 211.869C107.275 211.722 108.02 211.423 108.685 210.989C109.35 210.555 109.921 209.995 110.367 209.341C110.813 208.687 111.123 207.952 111.281 207.178C111.438 206.404 111.44 205.608 111.285 204.834V204.834ZM97.4914 201.247C96.8483 201.412 96.178 201.444 95.5223 201.341C94.8666 201.238 94.2396 201.002 93.6803 200.648C93.1211 200.294 92.6416 199.829 92.2719 199.282C91.9022 198.736 91.65 198.119 91.5313 197.471C91.4126 196.824 91.4297 196.158 91.5817 195.517C91.7338 194.875 92.0174 194.272 92.4149 193.743C92.8123 193.215 93.3152 192.774 93.892 192.446C94.4688 192.119 95.1073 191.913 95.7675 191.841L98.5495 191.333L100.273 200.738L97.4914 201.247ZM109.315 208.616C108.968 209.131 108.521 209.574 108.001 209.917C107.48 210.26 106.896 210.496 106.283 210.613L103.437 211.128L101.681 201.725L104.463 201.217C105.387 201.046 106.34 201.146 107.207 201.504C108.073 201.862 108.815 202.463 109.342 203.233C109.869 204.003 110.158 204.91 110.174 205.841C110.19 206.772 109.931 207.689 109.431 208.478L109.315 208.616Z" fill="#0063D2"/>
<path opacity="0.38" d="M146.634 83.2222L113.868 131.565C113.821 131.618 113.756 131.653 113.685 131.663C113.614 131.673 113.541 131.657 113.481 131.618C113.421 131.579 113.377 131.519 113.357 131.451C113.338 131.383 113.344 131.31 113.376 131.247L143.765 86.4147L94.8718 140.712C94.8462 140.741 94.815 140.764 94.7801 140.781C94.7453 140.797 94.7074 140.807 94.6685 140.81C94.6297 140.812 94.5907 140.807 94.5538 140.794C94.5169 140.782 94.4828 140.762 94.4535 140.737C94.4242 140.711 94.4002 140.681 94.3829 140.646C94.3656 140.612 94.3553 140.574 94.3527 140.536C94.3501 140.498 94.3551 140.46 94.3675 140.424C94.38 140.388 94.3995 140.354 94.4251 140.326L143.315 86.0434L67.507 150.056C67.4629 150.1 67.4045 150.129 67.3414 150.136C67.2784 150.144 67.2144 150.13 67.16 150.097C67.1056 150.065 67.064 150.015 67.042 149.956C67.0201 149.897 67.0191 149.833 67.0392 149.774C67.0694 149.624 62.9795 153.116 146.184 82.8508C146.559 82.646 146.774 83.001 146.634 83.2222Z" fill="#0063D2"/>
<path d="M133.258 243.527L76.7085 318.208C76.6295 318.29 76.5225 318.341 76.4076 318.351C76.2927 318.36 76.1777 318.328 76.0843 318.261C75.9908 318.193 75.9253 318.095 75.8999 317.984C75.8746 317.873 75.8912 317.757 75.9466 317.658L128.394 248.4L45.5104 331.263C45.467 331.307 45.4152 331.342 45.3579 331.365C45.3006 331.389 45.2391 331.402 45.1767 331.402C45.1142 331.403 45.0522 331.391 44.9942 331.368C44.9362 331.345 44.8832 331.311 44.8383 331.267C44.7935 331.224 44.7577 331.173 44.7328 331.116C44.708 331.06 44.6947 330.999 44.6937 330.938C44.6927 330.877 44.704 330.816 44.7269 330.759C44.7499 330.702 44.784 330.65 44.8274 330.607L127.704 247.767L0.890159 343.927C0.815768 343.995 0.719855 344.036 0.618217 344.043C0.516578 344.05 0.415252 344.022 0.330848 343.965C0.246444 343.908 0.183996 343.825 0.153765 343.729C0.123533 343.633 0.12731 343.53 0.164482 343.437C0.225452 343.2 -6.61948 348.449 132.569 242.894C133.187 242.598 133.501 243.185 133.258 243.527Z" fill="#0063D2"/>
</svg>
