<svg width="360" height="295" viewBox="0 0 360 295" fill="none" xmlns="http://www.w3.org/2000/svg">
<g opacity="0.7">
<path d="M43.2822 245.459L86.154 245.393L64.6621 283L43.2822 245.459Z" fill="#84C4FF"/>
<path d="M53.3829 272.571L35.4376 241.06L71.4222 241.005L53.3829 272.571Z" stroke="#222222" stroke-width="4"/>
</g>
<path d="M35.593 54.0001L34.5406 72.446L15.7093 71.1416L14.6569 89.5876L-4.17443 88.2832L-5.22682 106.729L-24.0581 105.425L-25.1105 123.871" stroke="#84C4FF" stroke-width="4"/>
<path d="M41.1105 60.1292L40.0582 78.5752L21.2268 77.2708L20.1745 95.7168L1.34315 94.4124L0.29076 112.858L-18.5405 111.554L-19.5929 130" stroke="#381DDB" stroke-width="4"/>
<g opacity="0.51">
<path d="M316.348 10.8522L323.36 46.6982L277.286 36.9625L316.348 10.8522Z" fill="#84C4FF"/>
<path d="M287.759 25.1493L320.377 3.34649L326.232 33.2788L287.759 25.1493Z" stroke="#222222" stroke-width="4"/>
</g>
<path d="M256.925 59.7259C256.859 59.6849 256.78 59.6701 256.703 59.6843C256.626 59.6984 256.557 59.7406 256.51 59.8026C256.462 59.8646 256.439 59.942 256.445 60.0199C256.452 60.0978 256.487 60.1706 256.543 60.2242C274.273 73.9181 286.314 93.6836 290.35 115.719C294.386 137.755 290.133 160.505 278.408 179.594C266.683 198.683 248.314 212.763 226.834 219.126C205.355 225.489 182.281 223.686 162.05 214.064C163.147 190.478 175.239 176.941 176.634 175.28C179.174 176.725 182.016 177.557 184.934 177.71C187.852 177.863 190.766 177.332 193.443 176.16C198.177 174.364 202.446 171.526 205.933 167.855C209.993 162.968 212.62 157.053 213.524 150.764C213.527 150.714 213.519 150.665 213.5 150.619C213.482 150.573 213.453 150.532 213.417 150.498C213.38 150.465 213.336 150.44 213.289 150.426C213.241 150.411 213.191 150.408 213.142 150.415C209.953 151.251 206.895 152.525 204.057 154.202C203.426 151.788 202.32 149.525 200.804 147.544C199.287 145.564 197.39 143.906 195.224 142.668C193.058 141.431 190.667 140.638 188.19 140.337C185.714 140.036 183.202 140.232 180.803 140.914C180.802 137.656 180.349 134.414 179.457 131.281C179.441 131.235 179.414 131.193 179.379 131.159C179.343 131.125 179.301 131.1 179.254 131.086C179.207 131.071 179.158 131.068 179.11 131.076C179.061 131.084 179.015 131.103 178.976 131.131C174.001 135.078 170.227 140.336 168.08 146.313C166.71 151.1 166.421 156.132 167.233 161.045C167.561 163.871 168.522 166.586 170.043 168.99C171.564 171.394 173.606 173.424 176.019 174.931C174.192 176.924 162.864 190.096 161.386 212.569C160.414 206.479 158.148 200.668 154.742 195.527C135.624 165.962 134.81 153.887 133.781 137.393C137.393 136.844 140.667 134.956 142.952 132.104C145.236 129.252 146.364 125.645 146.111 122C145.857 118.354 144.242 114.938 141.585 112.429C138.928 109.92 135.425 108.503 131.771 108.459C131.165 105.704 129.801 103.173 127.834 101.151C125.704 99.1968 123.058 97.8942 120.21 97.3968C120.161 97.3869 120.11 97.3897 120.062 97.4049C120.014 97.42 119.97 97.4471 119.936 97.4836C119.901 97.52 119.876 97.5647 119.863 97.6134C119.85 97.6621 119.849 97.7133 119.862 97.7623C120.454 100.586 121.836 103.184 123.848 105.253C125.507 106.79 127.496 107.926 129.661 108.575C125.829 109.038 122.337 111.004 119.954 114.041C117.571 117.078 116.492 120.937 116.955 124.77C117.418 128.602 119.384 132.094 122.421 134.477C125.458 136.86 129.317 137.939 133.149 137.476C134.279 155.747 135.907 167.606 154.211 195.909C157.719 201.217 159.989 207.246 160.855 213.549C155.337 210.838 150.112 207.571 145.258 203.799C144.328 195.948 141.176 188.526 136.172 182.406C136.145 182.364 136.108 182.331 136.065 182.307C136.021 182.284 135.973 182.272 135.923 182.272C135.874 182.272 135.825 182.284 135.782 182.307C135.738 182.331 135.701 182.364 135.674 182.406C134.134 185.201 132.924 188.167 132.07 191.242C117.92 174.788 110.157 153.796 110.195 132.095C110.195 86.5174 142.584 48.7635 187.214 42.4019C187.298 42.4019 187.378 42.3687 187.437 42.3095C187.497 42.2503 187.53 42.17 187.53 42.0863C187.53 42.0026 187.497 41.9224 187.437 41.8632C187.378 41.804 187.298 41.7708 187.214 41.7708C171.035 44.2358 155.815 51.002 143.146 61.3618C130.477 71.7216 120.823 85.2946 115.194 100.662C109.565 116.029 108.168 132.627 111.148 148.719C114.129 164.811 121.377 179.807 132.136 192.139C129.462 202.105 130.475 211.39 136.438 221.389C132.518 217.148 127.724 213.81 122.386 211.606C114.952 209.028 106.947 208.568 99.2656 210.277C99.2192 210.29 99.1766 210.314 99.1409 210.347C99.1053 210.379 99.0776 210.419 99.0599 210.464C99.0423 210.509 99.0352 210.558 99.0392 210.606C99.0431 210.654 99.0581 210.7 99.0829 210.742C103.61 217.178 109.838 222.227 117.071 225.325C121.407 226.935 126.001 227.734 130.625 227.684C133.849 227.701 137.064 227.35 140.209 226.637C142.002 227.8 155.971 237.7 154.344 262.232C152.217 276.915 155.008 274.191 151.271 267.747C148.711 263.667 145.064 260.382 140.74 258.262C140.696 258.24 140.647 258.23 140.598 258.231C140.548 258.233 140.5 258.246 140.457 258.271C140.415 258.296 140.379 258.331 140.353 258.372C140.327 258.414 140.311 258.462 140.308 258.512C139.836 263.287 140.861 268.092 143.242 272.258C145.623 276.425 149.242 279.748 153.596 281.765L137.352 286.1C136.275 286.454 135.375 287.207 134.836 288.204C134.297 289.201 134.16 290.366 134.453 291.461C134.746 292.556 135.448 293.497 136.413 294.091C137.378 294.685 138.535 294.886 139.644 294.654L173.312 285.502C173.874 285.354 174.401 285.097 174.863 284.745C175.325 284.393 175.713 283.953 176.005 283.451C176.298 282.949 176.488 282.394 176.566 281.819C176.644 281.243 176.608 280.658 176.459 280.096C176.311 279.534 176.054 279.007 175.702 278.545C175.35 278.083 174.91 277.695 174.408 277.402C173.906 277.11 173.351 276.92 172.776 276.842C172.2 276.764 171.615 276.8 171.053 276.948L154.244 281.45C154.323 279.534 154.223 277.616 153.945 275.719C153.679 255.588 161.619 238.912 162.084 221.588C162.091 221.539 162.091 221.488 162.084 221.439C162.084 220.542 162.084 219.495 161.984 217.004C161.984 216.24 161.984 215.476 161.984 214.745C182.378 224.539 205.681 226.418 227.38 220.017C249.08 213.617 267.632 199.391 279.446 180.096C291.259 160.801 295.492 137.809 291.325 115.572C287.159 93.3354 274.889 73.4355 256.892 59.7259H256.925ZM204.256 154.9C206.958 153.292 209.863 152.052 212.893 151.212C211.957 157.207 209.408 162.834 205.518 167.49C203.352 169.861 200.81 171.859 197.994 173.403C200.645 171.198 202.633 168.302 203.738 165.036C204.843 161.77 205.023 158.261 204.256 154.9ZM193.244 175.629C192.249 176.035 191.228 176.373 190.187 176.642C191.105 170.638 193.643 164.999 197.529 160.331C199.328 158.34 201.403 156.618 203.691 155.215C204.564 159.301 204.002 163.562 202.098 167.28C200.195 170.999 197.068 173.948 193.244 175.629ZM168.927 165.082C173.806 161.139 177.512 155.934 179.64 150.033C180.485 147.305 180.927 144.468 180.952 141.612C183.289 140.939 185.737 140.743 188.15 141.036C190.564 141.328 192.894 142.104 195.002 143.316C197.109 144.528 198.952 146.151 200.419 148.09C201.886 150.029 202.948 152.243 203.542 154.601C201.132 156.057 198.944 157.852 197.047 159.933C193.023 164.747 190.413 170.583 189.506 176.792C185.237 177.641 180.805 176.925 177.02 174.775C173.235 172.625 170.35 169.184 168.894 165.082H168.927ZM131.688 136.945C128.932 136.945 126.237 136.127 123.946 134.596C121.654 133.065 119.868 130.888 118.813 128.342C117.758 125.796 117.482 122.994 118.02 120.29C118.558 117.587 119.885 115.104 121.834 113.155C123.783 111.206 126.266 109.879 128.969 109.341C131.672 108.804 134.474 109.08 137.021 110.134C139.567 111.189 141.744 112.975 143.275 115.267C144.806 117.559 145.623 120.253 145.623 123.009C145.623 126.705 144.155 130.25 141.542 132.863C138.928 135.476 135.384 136.945 131.688 136.945ZM174.026 277.928C174.675 278.305 175.198 278.866 175.529 279.539C175.86 280.212 175.984 280.968 175.887 281.712C175.789 282.456 175.474 283.155 174.98 283.72C174.486 284.285 173.837 284.691 173.113 284.888L139.411 293.924C138.436 294.186 137.396 294.049 136.52 293.545C135.645 293.04 135.006 292.209 134.744 291.233C134.482 290.257 134.618 289.217 135.123 288.342C135.627 287.467 136.459 286.828 137.435 286.565L171.136 277.53C172.115 277.284 173.15 277.427 174.026 277.928ZM136.139 183.153C140.76 188.963 143.726 195.912 144.726 203.267C140.386 199.848 136.366 196.04 132.718 191.89C133.537 188.862 134.685 185.932 136.139 183.153ZM117.188 224.677C110.211 221.695 104.181 216.865 99.7473 210.709C107.168 209.146 114.874 209.634 122.038 212.12C129.012 215.098 135.038 219.929 139.461 226.089C132.04 227.63 124.34 227.119 117.188 224.611V224.677ZM155.041 257.532C154.775 236.254 142.501 227.302 140.541 225.973C144.025 219.399 145.742 212.033 145.524 204.596C150.399 208.318 155.628 211.55 161.137 214.247C162.748 228.298 157.765 242.251 155.041 257.532Z" fill="#0063D2"/>
<path d="M189.442 164.966C189.687 164.536 189.846 164.063 189.908 163.572C189.97 163.081 189.934 162.583 189.803 162.106C189.672 161.629 189.447 161.183 189.143 160.793C188.839 160.403 188.461 160.076 188.03 159.833L186.369 158.903L189.492 153.438C191.023 154.439 192.621 155.332 194.275 156.113C194.342 156.108 194.405 156.083 194.456 156.041C194.508 155.998 194.544 155.941 194.561 155.876C194.578 155.812 194.573 155.744 194.549 155.682C194.524 155.62 194.481 155.567 194.425 155.531L189.791 152.89L190.92 150.914C190.952 150.879 190.975 150.838 190.989 150.793C191.002 150.748 191.006 150.701 190.999 150.655C190.992 150.608 190.975 150.564 190.949 150.525C190.923 150.486 190.888 150.454 190.848 150.43C190.808 150.406 190.762 150.391 190.716 150.387C190.669 150.383 190.622 150.389 190.578 150.405C190.534 150.421 190.494 150.447 190.462 150.48C190.429 150.514 190.404 150.554 190.388 150.598L189.259 152.575L187.598 151.645C186.949 151.281 186.208 151.116 185.466 151.171C184.725 151.226 184.015 151.498 183.427 151.953C182.839 152.408 182.398 153.026 182.159 153.731C181.92 154.435 181.894 155.194 182.084 155.913C182.212 156.394 182.436 156.845 182.741 157.239C183.046 157.632 183.427 157.961 183.861 158.205L185.522 159.136L182.399 164.6L177.798 161.992C177.726 161.951 177.639 161.939 177.558 161.961C177.477 161.983 177.408 162.036 177.366 162.109C177.325 162.181 177.313 162.268 177.335 162.349C177.357 162.43 177.41 162.499 177.483 162.541L182.117 165.182L180.987 167.158C180.961 167.206 180.948 167.261 180.95 167.316C180.951 167.371 180.967 167.424 180.995 167.471C181.024 167.518 181.064 167.557 181.112 167.584C181.161 167.61 181.215 167.624 181.27 167.623C181.502 167.623 181.436 167.623 182.665 165.48C183.665 166.283 184.877 166.779 186.153 166.909C186.825 166.907 187.483 166.726 188.062 166.385C188.64 166.043 189.116 165.553 189.442 164.966ZM184.226 157.657C183.502 157.243 182.971 156.558 182.751 155.753C182.532 154.948 182.641 154.088 183.055 153.364C183.469 152.639 184.154 152.109 184.96 151.889C185.765 151.669 186.624 151.779 187.349 152.193L189.01 153.123L185.854 158.67L184.226 157.657ZM184.592 165.829L182.931 164.916L186.037 159.435L187.698 160.365C188.059 160.568 188.376 160.842 188.63 161.17C188.884 161.498 189.07 161.874 189.176 162.275C189.331 162.872 189.308 163.503 189.109 164.087C188.91 164.672 188.543 165.185 188.055 165.563C187.567 165.942 186.979 166.168 186.363 166.216C185.748 166.263 185.132 166.129 184.592 165.829Z" fill="#0063D2"/>
<path d="M254.319 58.6632C253.406 58.6632 235.816 41.9371 205.254 39.8277C205.17 39.8277 205.09 39.7945 205.031 39.7353C204.972 39.6761 204.938 39.5958 204.938 39.5121C204.938 39.4284 204.972 39.3482 205.031 39.289C205.09 39.2298 205.17 39.1965 205.254 39.1965C223.174 40.4629 240.309 47.0439 254.469 58.0984C254.519 58.1362 254.556 58.188 254.577 58.2472C254.597 58.3065 254.6 58.3704 254.584 58.431C254.568 58.4916 254.534 58.546 254.487 58.5873C254.44 58.6287 254.381 58.6551 254.319 58.6632Z" fill="#0063D2"/>
<path d="M348.695 113.724C348.695 113.724 327.684 129.205 318.681 143.622C313.974 138.549 310.055 132.799 307.054 126.564C297.088 106.267 284.531 105.968 278.984 104.323C275.429 108.775 268.686 113.027 262.723 115.618C258.63 131.263 256 147.255 254.866 163.388C254.642 166.308 255.296 169.229 256.743 171.775L283.884 219.578C290.457 217.751 296.616 214.672 302.021 210.509C295.378 191.823 289.614 174.45 279.432 162.341C281.874 157.591 285.395 151.096 287.737 145.914C292.205 153.388 299.679 160.863 308.948 167.739C311.899 169.938 315.568 170.948 319.229 170.569C322.889 170.191 326.274 168.452 328.713 165.696L363.079 126.913C359.117 121.687 354.244 117.219 348.695 113.724Z" fill="#E6E7E8"/>
<path d="M191.784 58.1652L175.606 26.7229C175.574 26.654 175.516 26.6001 175.445 26.5723C175.374 26.5445 175.295 26.5449 175.224 26.5734L143.998 37.7352C143.926 37.7615 143.866 37.8131 143.829 37.8804C143.793 37.9476 143.782 38.0259 143.798 38.1006L147.27 54.2121L125.345 46.5384C125.27 46.516 125.189 46.5224 125.119 46.5561C125.048 46.5899 124.993 46.6487 124.963 46.7211L123.485 50.2091C123.468 50.2451 123.459 50.284 123.457 50.3235C123.456 50.3631 123.462 50.4026 123.476 50.4397C123.49 50.4768 123.511 50.5107 123.538 50.5396C123.565 50.5684 123.598 50.5916 123.634 50.6078L149.329 63.7627C151.422 73.4794 151.223 72.7818 151.406 72.8814C151.588 72.9811 151.406 72.8815 154.113 72.0177C154.192 71.9891 154.257 71.9301 154.293 71.8538C154.329 71.7775 154.333 71.6901 154.304 71.6108C154.275 71.5315 154.217 71.4668 154.14 71.431C154.064 71.3952 153.976 71.3912 153.897 71.4198C153.615 70.7554 154.877 70.2903 157.867 70.2405C157.87 70.289 157.883 70.3363 157.907 70.3786C157.931 70.421 157.964 70.4572 158.005 70.4845C158.045 70.5119 158.091 70.5296 158.139 70.5362C158.187 70.5428 158.236 70.5383 158.282 70.5229L174.626 64.6762C174.686 64.6384 174.732 64.5813 174.756 64.5142C174.78 64.447 174.78 64.3739 174.757 64.3065C174.734 64.2392 174.689 64.1816 174.629 64.1432C174.569 64.1048 174.498 64.0877 174.427 64.0949C173.895 62.4339 173.879 61.2878 176.47 63.3973C176.426 63.4505 176.401 63.5167 176.398 63.5856C176.395 63.6546 176.415 63.7225 176.455 63.7791C176.494 63.8356 176.551 63.8776 176.617 63.8986C176.683 63.9197 176.754 63.9186 176.819 63.8956L191.767 58.5638C191.819 58.5111 191.849 58.4412 191.852 58.3677C191.855 58.2941 191.831 58.222 191.784 58.1652Z" fill="#0063D2"/>
<path d="M107.755 69.3929C104.183 61.9683 104.433 62.3835 104.233 62.3337C104.034 62.2839 104.582 62.0015 97.4067 66.2702C97.3707 66.2909 97.3391 66.3186 97.3138 66.3515C97.2885 66.3844 97.2699 66.422 97.2591 66.4621C97.2483 66.5022 97.2455 66.544 97.2509 66.5852C97.2563 66.6264 97.2697 66.6661 97.2904 66.7021C97.3323 66.7748 97.4013 66.8279 97.4823 66.8497C97.5224 66.8605 97.5642 66.8632 97.6054 66.8579C97.6466 66.8525 97.6863 66.8391 97.7223 66.8183L103.552 63.3137L98.0046 81.2522C79.4515 87.4477 80.5478 87.0324 80.4647 87.2484L75.0333 98.5928C75.0148 98.6299 75.0037 98.6703 75.0008 98.7116C74.9979 98.753 75.0031 98.7945 75.0162 98.8338C75.0293 98.8732 75.05 98.9095 75.0772 98.9409C75.1044 98.9722 75.1374 98.9978 75.1745 99.0164C75.2116 99.0349 75.252 99.046 75.2933 99.0489C75.3347 99.0519 75.3762 99.0466 75.4155 99.0335C75.4549 99.0204 75.4912 98.9997 75.5225 98.9725C75.5539 98.9453 75.5795 98.9123 75.5981 98.8752L80.963 87.5972L98.4033 81.8004C98.6358 81.8004 98.2206 82.8302 104.217 63.5296L107.19 69.7251C107.234 69.7999 107.306 69.8543 107.39 69.8761C107.474 69.8979 107.563 69.8854 107.638 69.8413C107.713 69.7973 107.768 69.7253 107.789 69.6412C107.811 69.5571 107.799 69.4677 107.755 69.3929Z" fill="#0063D2"/>
<path d="M136.772 125.451C136.7 124.636 136.312 123.881 135.691 123.347C135.071 122.813 134.266 122.543 133.45 122.594L131.988 122.727L131.54 117.744L135.808 117.345C135.878 117.329 135.939 117.29 135.984 117.234C136.028 117.178 136.052 117.109 136.052 117.038C136.052 116.967 136.028 116.898 135.984 116.842C135.939 116.786 135.878 116.747 135.808 116.731L131.523 117.113L131.357 115.319C131.357 114.887 130.709 114.987 130.742 115.319L130.908 117.096C129.447 117.229 128.301 117.096 127.321 118.359C126.938 118.814 126.693 119.369 126.615 119.959C126.537 120.548 126.629 121.148 126.88 121.687C127.131 122.227 127.531 122.683 128.033 123.002C128.535 123.322 129.118 123.491 129.712 123.491L131.473 123.358L131.922 128.341L127.586 128.773C127.517 128.789 127.455 128.828 127.411 128.884C127.367 128.94 127.343 129.009 127.343 129.08C127.343 129.151 127.367 129.22 127.411 129.276C127.455 129.332 127.517 129.371 127.586 129.387L131.888 129.005L132.038 130.799C132.038 130.883 132.071 130.963 132.13 131.022C132.189 131.082 132.27 131.115 132.353 131.115C132.437 131.115 132.517 131.082 132.577 131.022C132.636 130.963 132.669 130.883 132.669 130.799L132.503 129.022L133.965 128.889C134.375 128.85 134.774 128.729 135.138 128.535C135.502 128.34 135.824 128.075 136.085 127.756C136.346 127.436 136.541 127.068 136.659 126.672C136.777 126.276 136.815 125.861 136.772 125.451ZM129.812 122.926C129.472 122.982 129.124 122.967 128.79 122.882C128.456 122.797 128.143 122.644 127.871 122.433C127.598 122.222 127.373 121.957 127.207 121.655C127.042 121.352 126.94 121.019 126.91 120.676C126.879 120.333 126.919 119.987 127.028 119.66C127.136 119.333 127.311 119.032 127.542 118.775C127.772 118.519 128.052 118.313 128.366 118.169C128.679 118.026 129.019 117.949 129.364 117.943L130.825 117.81L131.274 122.793L129.812 122.926ZM135.576 127.328C135.372 127.58 135.121 127.789 134.835 127.943C134.55 128.097 134.237 128.193 133.915 128.225L132.42 128.358L131.955 123.375L133.416 123.242C133.902 123.197 134.39 123.294 134.821 123.522C135.252 123.749 135.607 124.098 135.843 124.524C136.079 124.951 136.186 125.437 136.15 125.923C136.115 126.409 135.938 126.874 135.642 127.261L135.576 127.328Z" fill="#0063D2"/>
<path d="M196.251 248.613L175.223 239.062C169.908 236.637 166.204 244.643 171.52 247.101L192.581 256.668C197.846 259.043 201.55 251.071 196.251 248.613ZM192.813 256.087L171.785 246.536C170.869 246.113 170.158 245.344 169.809 244.397C169.46 243.45 169.502 242.403 169.925 241.487C170.348 240.571 171.117 239.86 172.064 239.511C173.011 239.162 174.058 239.204 174.974 239.627L196.002 249.177C200.57 251.303 197.314 258.147 192.813 256.087Z" fill="#0063D2"/>
<path d="M233.408 238.132C232.14 238.13 230.901 237.757 229.844 237.058C228.786 236.359 227.957 235.366 227.459 234.2C226.961 233.035 226.815 231.749 227.041 230.502C227.266 229.254 227.853 228.101 228.727 227.184C229.602 226.266 230.726 225.626 231.961 225.341C233.197 225.057 234.488 225.141 235.676 225.583C236.863 226.025 237.895 226.806 238.644 227.829C239.392 228.852 239.824 230.072 239.885 231.338C239.928 232.215 239.792 233.091 239.486 233.914C239.18 234.737 238.709 235.489 238.103 236.124C237.498 236.759 236.769 237.265 235.962 237.61C235.154 237.955 234.286 238.133 233.408 238.132ZM233.408 225.807C232.429 225.803 231.465 226.044 230.604 226.507C229.742 226.971 229.01 227.643 228.475 228.462C227.939 229.281 227.618 230.221 227.538 231.196C227.459 232.172 227.626 233.151 228.022 234.046C228.418 234.94 229.032 235.721 229.808 236.318C230.584 236.915 231.496 237.307 232.462 237.461C233.429 237.615 234.418 237.524 235.34 237.197C236.263 236.87 237.089 236.318 237.743 235.59C238.491 234.748 238.981 233.708 239.155 232.595C239.329 231.482 239.18 230.343 238.725 229.312C238.27 228.281 237.529 227.403 236.589 226.782C235.649 226.161 234.551 225.822 233.424 225.807H233.408Z" fill="#0063D2"/>
<path d="M250.083 253.014C248.816 253.012 247.577 252.639 246.519 251.94C245.462 251.242 244.633 250.248 244.135 249.083C243.637 247.917 243.491 246.631 243.717 245.384C243.942 244.137 244.528 242.983 245.403 242.066C246.278 241.149 247.402 240.508 248.637 240.224C249.872 239.939 251.164 240.023 252.351 240.466C253.539 240.908 254.571 241.689 255.319 242.712C256.068 243.735 256.499 244.955 256.561 246.221C256.604 247.097 256.468 247.974 256.162 248.797C255.855 249.619 255.385 250.371 254.779 251.006C254.173 251.642 253.445 252.147 252.637 252.492C251.83 252.838 250.961 253.015 250.083 253.014ZM250.083 240.69C248.915 240.691 247.774 241.042 246.808 241.698C245.841 242.354 245.093 243.284 244.66 244.369C244.227 245.454 244.129 246.643 244.378 247.785C244.628 248.926 245.213 249.966 246.06 250.771C246.906 251.577 247.974 252.11 249.126 252.303C250.278 252.495 251.461 252.339 252.523 251.852C253.586 251.366 254.478 250.573 255.085 249.575C255.692 248.577 255.986 247.421 255.93 246.254C255.85 244.758 255.202 243.35 254.118 242.316C253.035 241.282 251.598 240.7 250.1 240.69H250.083Z" fill="#0063D2"/>
<path d="M228.324 254.094C228.262 254.094 228.202 254.076 228.15 254.043C228.098 254.009 228.057 253.961 228.032 253.905C228.008 253.848 228 253.785 228.01 253.724C228.021 253.664 228.049 253.607 228.091 253.562L254.949 223.947C255.007 223.885 255.086 223.849 255.17 223.846C255.254 223.843 255.336 223.873 255.398 223.93C255.459 223.988 255.496 224.067 255.499 224.151C255.502 224.235 255.472 224.317 255.414 224.379C226.563 256.103 228.54 254.094 228.324 254.094Z" fill="#0063D2"/>
<path d="M322.668 98.6757C322.628 98.6804 322.587 98.6766 322.549 98.6646C322.511 98.6525 322.476 98.6324 322.446 98.6057C322.416 98.579 322.392 98.5463 322.376 98.5097C322.36 98.4731 322.352 98.4334 322.352 98.3934L321.604 83.2951C321.604 83.2114 321.638 83.1311 321.697 83.0719C321.756 83.0127 321.836 82.9795 321.92 82.9795C322.004 82.9795 322.084 83.0127 322.143 83.0719C322.202 83.1311 322.236 83.2114 322.236 83.2951L322.967 98.3934C322.962 98.4697 322.929 98.5416 322.873 98.5941C322.818 98.6466 322.744 98.6758 322.668 98.6757Z" fill="#0063D2"/>
<path d="M314.746 91.5007C314.676 91.4844 314.615 91.4453 314.57 91.3895C314.526 91.3337 314.502 91.2646 314.502 91.1934C314.502 91.1222 314.526 91.0531 314.57 90.9973C314.615 90.9415 314.676 90.9023 314.746 90.8861L329.844 90.1387C329.928 90.1387 330.008 90.1719 330.067 90.2311C330.126 90.2903 330.159 90.3706 330.159 90.4543C330.159 90.538 330.126 90.6182 330.067 90.6774C330.008 90.7366 329.928 90.7698 329.844 90.7698L314.746 91.5007Z" fill="#0063D2"/>
<path d="M391.05 99.2572C391.096 99.215 391.129 99.1601 391.144 99.0995C391.158 99.0389 391.155 98.9752 391.134 98.9165C391.112 98.8578 391.074 98.8068 391.024 98.7698C390.973 98.7329 390.913 98.7118 390.851 98.709C383.144 98.3769 363.877 103.21 357.997 106.449C357.598 106.682 354.426 111.714 351.353 115.153C350.522 114.577 349.675 114.023 348.811 113.492C348.761 113.455 348.7 113.436 348.637 113.436C348.574 113.436 348.513 113.455 348.463 113.492C348.23 113.658 327.7 128.889 318.565 143.19C313.99 138.246 310.178 132.648 307.254 126.58C298.584 108.608 287.92 106.15 281.459 104.672C280.562 104.473 279.798 104.29 279.117 104.091C278.048 103.276 277.022 102.405 276.044 101.483C277.188 101.514 278.332 101.402 279.449 101.151C281.427 100.827 283.287 99.9981 284.85 98.7438C286.413 97.4895 287.625 95.8526 288.369 93.9919C289.093 92.3527 289.44 90.5714 289.382 88.7801C289.325 86.9887 288.865 85.2333 288.036 83.644C284.15 76.4021 273.171 73.4124 270.912 72.8643C271.742 71.2033 274.749 63.8451 267.855 59.7093C262.308 56.3874 257.707 55.3742 254.202 56.7362C253.118 57.1701 252.137 57.8278 251.325 58.6664C250.512 59.505 249.885 60.5056 249.485 61.6028C249.086 62.5828 247.193 67.1505 246.761 68.2467C232.36 60.573 208.775 43.4317 208.559 43.3321C208.508 43.2956 208.447 43.276 208.384 43.276C208.322 43.276 208.261 43.2956 208.21 43.3321C207.778 43.5812 207.346 43.8304 206.931 44.1127C206.067 42.5362 205.589 40.7773 205.536 38.9803C205.52 37.1701 204.99 35.4017 204.008 33.8811C202.629 32.2202 201.632 31.3066 199.938 32.6022C199.54 32.1205 198.277 30.7087 198.277 30.7087C197.975 30.3275 197.557 30.0557 197.086 29.9346C196.616 29.8136 196.118 29.85 195.67 30.0383C195.222 30.2266 194.848 30.5564 194.605 30.9774C194.362 31.3984 194.263 31.8874 194.324 32.3696C193.956 31.9212 193.429 31.6327 192.853 31.5647C192.277 31.4966 191.698 31.6543 191.235 32.0046C190.773 32.355 190.465 32.8707 190.375 33.4436C190.285 34.0165 190.42 34.6019 190.753 35.077C190.314 34.9985 189.861 35.0539 189.453 35.236C189.046 35.4181 188.703 35.7184 188.468 36.0981C188.234 36.4777 188.118 36.9191 188.138 37.365C188.157 37.8108 188.31 38.2405 188.577 38.5983C188.693 38.7312 188.81 38.8807 188.959 39.0302C188.561 39.0164 188.166 39.1133 187.819 39.3101C187.472 39.5069 187.187 39.7959 186.994 40.1451C186.801 40.4942 186.709 40.8899 186.728 41.2883C186.746 41.6867 186.875 42.0721 187.099 42.4019C187.348 42.6843 187.614 42.9667 187.913 43.249C187.913 44.1792 188.411 48.8797 198.792 55.2911C198.56 55.9389 198.36 56.6033 198.178 57.2677C198.163 57.3309 198.165 57.397 198.186 57.4586C198.207 57.5203 198.244 57.5749 198.294 57.6165C206.383 63.4797 226.331 77.6977 235.118 82.5311C229.734 85.2923 224.613 88.5391 219.82 92.2312C218.574 91.3841 209.256 85.0226 194.573 75.1896C194.523 75.1605 194.465 75.1451 194.407 75.1451C194.349 75.1451 194.292 75.1605 194.241 75.1896C193.726 75.4886 193.211 75.8042 192.73 76.1198C187.782 72.7348 183.045 69.0517 178.545 65.0909C175.505 62.2008 174.525 61.7689 174.01 62.1842C173.495 62.5994 174.11 64.7089 174.459 65.6556C175.024 67.1505 178.545 72.0005 177.781 73.2297C177.565 73.5951 176.983 73.4788 176.817 73.5286C170.979 71.6874 164.949 70.5226 158.846 70.0572C153.58 69.9742 153.447 70.9541 153.398 71.2697C153.39 71.4205 153.418 71.5709 153.479 71.7092C153.539 71.8475 153.631 71.9699 153.746 72.067C155.042 73.3625 158.364 73.9273 162.433 75.3889C160.54 75.3889 158.297 75.555 158.165 75.555C155.557 75.7045 154.145 76.2028 154.062 77.0167C154.059 77.207 154.125 77.392 154.247 77.5382C154.369 77.6845 154.539 77.7823 154.726 77.814C156.935 78.3621 160.424 78.9102 162.948 79.4749C161.769 79.7407 158.696 80.4217 158.779 81.6508C158.806 81.8404 158.9 82.0142 159.042 82.1418C159.185 82.2694 159.368 82.3426 159.56 82.3484C165.955 82.8633 169.094 81.7671 178.661 84.8399C179.624 85.4711 181.983 87.4144 183.744 88.9425C183.561 89.6401 183.411 90.3709 183.279 91.1184C183.266 91.1766 183.271 91.2371 183.291 91.293C183.312 91.3488 183.348 91.3977 183.395 91.434C183.528 91.5336 196.35 100.802 205.22 107.163C212.429 112.329 217.079 115.319 224.952 111.582C230.789 108.498 236.451 105.093 241.911 101.383C247.176 106.366 255.581 113.01 262.291 115.95C258.246 131.53 255.638 147.448 254.501 163.504C254.266 166.487 254.931 169.473 256.411 172.074C284.781 222.037 283.502 219.977 283.784 220.043C285.006 219.775 286.21 219.431 287.389 219.014L291.009 225.292C294.032 241.237 296.972 248.014 301.889 255.837C302.603 256.967 302.686 256.668 303.052 255.638C305.809 248.014 307.221 229.062 306.091 222.734C305.992 222.203 302.088 217.502 299.447 212.768C300.361 212.17 301.274 211.523 302.204 210.858C302.261 210.818 302.303 210.761 302.324 210.695C302.345 210.629 302.344 210.558 302.321 210.493C296.225 193.368 290.428 174.948 279.798 162.324C281.99 158.056 285.362 151.86 287.82 146.595C292.156 153.638 299.215 160.846 308.799 168.005C311.819 170.232 315.561 171.252 319.294 170.865C323.027 170.478 326.481 168.712 328.979 165.912L363.362 127.112C363.401 127.056 363.422 126.989 363.422 126.921C363.422 126.852 363.401 126.786 363.362 126.73C362.73 125.899 362.066 125.069 361.385 124.288L365.322 119.903C379.706 111.698 385.104 106.698 391.05 99.2572ZM250 61.9849C250.611 61.9483 251.225 61.9873 251.827 62.1011C251.528 63.1309 251.229 64.8251 251.827 65.1905C252.026 65.3068 252.342 65.34 252.79 64.8583C254.302 63.1974 255.597 65.6888 252.624 67.7651C252.576 67.7966 252.537 67.8417 252.513 67.8948C252.49 67.9478 252.482 68.0067 252.491 68.064C253.762 75.8811 256.586 83.3644 260.796 90.072C257.474 87.6303 254.003 80.8369 248.754 79.5912C249.935 77.51 250.963 75.3449 251.827 73.1134C251.848 73.0586 251.853 72.9992 251.842 72.9417C251.831 72.8842 251.804 72.831 251.764 72.7879C251.725 72.7448 251.674 72.7136 251.617 72.6977C251.561 72.6819 251.501 72.682 251.445 72.6982C250.233 73.0636 246.678 74.0602 246.329 72.831C246.147 70.8046 247.857 67.3166 250 61.9849ZM197.829 31.0741L199.49 32.951C198.908 33.4825 198.211 34.2299 197.314 35.2265C196.597 34.499 195.926 33.728 195.304 32.9178C195.208 32.5896 195.215 32.2397 195.325 31.9158C195.435 31.5919 195.642 31.3099 195.918 31.1082C196.194 30.9065 196.526 30.795 196.868 30.7889C197.21 30.7828 197.545 30.8824 197.829 31.0741ZM193.942 32.7351C194.573 33.4161 196.068 34.9275 196.782 35.6916L196.035 36.5221C194.939 37.7346 196.035 39.5949 198.56 38.7312C198.554 39.0207 198.46 39.3016 198.29 39.5358C198.12 39.77 197.881 39.9461 197.608 40.0404C197.334 40.1347 197.038 40.1425 196.759 40.0628C196.481 39.9831 196.234 39.8198 196.051 39.5949C194.291 37.7678 192.165 35.7248 191.351 34.612C191.243 34.275 191.245 33.9123 191.357 33.5767C191.469 33.2411 191.686 32.9501 191.975 32.7462C192.264 32.5422 192.611 32.436 192.965 32.443C193.319 32.4499 193.661 32.5697 193.942 32.7849V32.7351ZM191.583 36.057C192.962 37.4855 194.523 39.0634 195.719 40.442C197.264 42.103 195.221 44.1127 193.51 42.4352C191.799 40.7576 189.922 39.08 189.075 38.1166C188.951 37.7846 188.936 37.4215 189.033 37.0804C189.13 36.7393 189.333 36.4381 189.613 36.2209C189.894 36.0037 190.236 35.882 190.591 35.8734C190.945 35.8648 191.293 35.9699 191.583 36.1733V36.057ZM187.58 41.9203C187.446 41.6088 187.42 41.2616 187.504 40.9332C187.589 40.6049 187.781 40.3141 188.049 40.1067C188.318 39.8993 188.647 39.787 188.986 39.7876C189.326 39.7882 189.655 39.9015 189.922 40.1098C191.218 41.3721 192.082 42.2192 193.344 43.5646C194.856 45.2256 192.945 47.0859 191.251 45.5246C189.557 43.9633 188.394 42.9999 187.58 42.0365V41.9203ZM188.61 43.8304C188.826 44.0297 190.271 45.3087 190.869 45.8734C192.945 47.7835 195.404 45.6741 194.274 43.6145C194.65 43.7057 195.043 43.6878 195.409 43.5628C195.774 43.4379 196.096 43.2111 196.337 42.9091C196.578 42.6071 196.728 42.2426 196.768 41.8585C196.809 41.4744 196.739 41.0866 196.566 40.741C196.951 40.8895 197.377 40.8895 197.762 40.741C197.163 42.3584 197.217 44.1453 197.912 45.7239C197.947 45.801 198.011 45.8609 198.091 45.8905C198.17 45.9201 198.258 45.9169 198.335 45.8817C198.412 45.8464 198.472 45.782 198.502 45.7026C198.532 45.6232 198.528 45.5352 198.493 45.4581C197.281 42.7009 198.294 39.5617 201.117 37.3027C201.433 36.8709 200.968 36.6051 200.719 36.8045C200.104 37.3371 199.416 37.779 198.676 38.1166C196.566 39.0468 195.736 37.8509 196.45 37.0536C201.051 32.0707 201.167 31.6056 203.459 34.2964C205.353 36.5221 204.29 41.4884 206.35 44.4948C202.887 47.0914 200.303 50.6848 198.942 54.7928C190.653 49.5275 188.959 45.5412 188.61 43.9467V43.8304ZM203.792 60.7059L198.809 57.1514C200.47 50.9228 203.792 46.4381 208.293 43.8636L213.176 47.3849C208.822 50.8698 205.564 55.5348 203.792 60.8222V60.7059ZM204.323 61.0879C206.038 55.7703 209.278 51.0742 213.641 47.5842C221.564 53.1651 236.363 63.3469 246.545 68.7616C245.017 73.0137 245.366 75.0235 249.867 75.9537C249.319 77.1164 248.738 78.2126 248.09 79.2756C244.884 78.7441 240.782 79.6576 235.749 82.0162C228.59 78.3455 212.811 67.3166 204.323 61.2042V61.0879ZM159.659 81.6342C159.543 81.6342 159.46 81.6342 159.46 81.5345C159.46 81.4349 160.025 80.6874 162.782 80.0895L164.443 79.7241C168.245 80.6855 171.994 81.8499 175.671 83.2121C167.948 81.2356 166.021 82.1491 159.659 81.6342ZM154.677 76.9835C154.677 76.8008 155.374 76.2526 158.181 76.1032C158.347 76.1032 162.184 75.8706 163.995 75.9204C168.397 77.5922 172.524 79.9158 176.236 82.8135C166.004 78.4285 154.677 77.5814 154.743 76.9835H154.677ZM158.547 73.3958C157.089 73.0624 155.694 72.5019 154.411 71.7348C153.813 71.3029 153.929 71.1534 154.527 70.9541C155.683 70.6662 156.876 70.5598 158.065 70.6385C160.191 70.406 171.253 71.9175 180.555 75.4222C180.953 75.555 181.169 74.9737 180.787 74.8408C179.874 74.492 178.96 74.1764 178.046 73.8608C180.006 72.5819 175.754 67.2169 175.09 65.4065C174.957 65.041 174.16 62.9814 174.376 62.6659C174.625 62.6659 175.671 63.1641 178.146 65.5227C182.612 69.4434 187.304 73.0983 192.198 76.4686C188.105 79.2765 185.158 83.4618 183.893 88.2615C175.638 81.219 169.991 76.5848 158.613 73.3958H158.547ZM183.976 90.9523C184.425 87.782 185.602 84.7587 187.415 82.1192C189.227 79.4797 191.626 77.2955 194.424 75.7377L199.506 79.0597C194.362 82.9704 190.819 88.6213 189.54 94.9552L183.976 90.9523ZM250 107.346C245.681 99.7555 245.25 99.0412 245.017 98.6924C244.984 98.6567 244.945 98.6281 244.9 98.6086C244.856 98.5891 244.808 98.579 244.76 98.579C244.711 98.579 244.663 98.5891 244.619 98.6086C244.575 98.6281 244.535 98.6567 244.502 98.6924C238.226 103.222 231.644 107.312 224.803 110.934C217.711 114.256 213.741 112.312 205.718 106.565C200.835 103.077 194.773 98.6924 190.271 95.4535C191.461 89.1003 194.979 83.42 200.137 79.5248C210.95 86.7832 217.877 91.5004 219.405 92.5302C217.843 93.6929 216.249 94.922 214.588 96.2176C214.555 96.2438 214.528 96.2761 214.508 96.3128C214.488 96.3495 214.475 96.3898 214.47 96.4315C214.466 96.4731 214.469 96.5153 214.481 96.5555C214.493 96.5958 214.512 96.6333 214.538 96.666C214.564 96.6988 214.597 96.726 214.633 96.7462C214.67 96.7664 214.71 96.7792 214.752 96.7838C214.794 96.7885 214.836 96.7848 214.876 96.7732C214.916 96.7615 214.954 96.7421 214.987 96.7159C233.108 82.3484 244.901 77.2824 251.063 81.2024C255.465 84.0094 258.438 89.8394 261.577 91.1682C262.424 92.5302 263.238 93.7759 264.052 94.8888C265.304 96.7136 266.943 98.24 268.852 99.3596C270.761 100.479 272.893 101.164 275.097 101.367C276.177 102.442 277.325 103.447 278.536 104.373C274.732 108.974 267.939 113.01 262.723 115.286C258.166 113.184 253.891 110.516 250 107.346ZM300.394 215.476C296.613 217.105 293.017 219.132 289.664 221.522L288.003 218.715C291.833 217.249 295.488 215.36 298.899 213.084C299.431 213.948 299.896 214.728 300.394 215.476ZM362.664 126.912L328.465 165.497C326.068 168.181 322.757 169.874 319.178 170.246C315.599 170.618 312.011 169.641 309.114 167.507C299.431 160.281 292.355 153.006 288.086 145.914C297.703 124.919 292.77 119.172 290.362 116.349L289.913 115.817C289.86 115.76 289.787 115.725 289.709 115.719C289.631 115.713 289.554 115.736 289.492 115.783C289.43 115.831 289.387 115.9 289.373 115.976C289.359 116.053 289.374 116.133 289.415 116.199L289.897 116.764C292.122 119.372 297.338 125.451 286.375 148.073C283.17 154.717 278.536 163.022 276.908 166.776C276.891 166.814 276.883 166.855 276.882 166.897C276.882 166.938 276.889 166.979 276.905 167.018C276.92 167.056 276.943 167.092 276.972 167.121C277.001 167.151 277.036 167.175 277.074 167.191C277.112 167.207 277.153 167.216 277.195 167.217C277.236 167.217 277.277 167.209 277.316 167.194C277.354 167.179 277.39 167.156 277.419 167.127C277.449 167.098 277.473 167.063 277.489 167.025C277.971 165.896 278.635 164.517 279.432 162.956C289.913 175.463 295.577 193.534 301.607 210.476C298.964 212.407 296.189 214.15 293.302 215.692L278.801 188.003C278.756 187.943 278.69 187.901 278.616 187.885C278.542 187.869 278.465 187.88 278.398 187.916C278.332 187.952 278.281 188.011 278.254 188.082C278.227 188.153 278.227 188.231 278.253 188.302L292.737 215.991C289.971 217.412 287.058 218.526 284.05 219.313L257.026 171.692C255.603 169.204 254.966 166.344 255.199 163.487C256.329 147.424 258.943 131.499 263.005 115.917C268.304 113.591 275.263 109.472 279.117 104.738C285.628 106.582 297.188 107.18 306.789 126.763C309.75 132.963 313.631 138.68 318.299 143.721C317.038 145.719 316.007 147.853 315.227 150.083C315.201 150.123 315.185 150.169 315.18 150.216C315.175 150.263 315.181 150.311 315.196 150.356C315.212 150.401 315.238 150.442 315.272 150.475C315.306 150.508 315.347 150.534 315.392 150.549C315.437 150.565 315.484 150.57 315.532 150.564C315.579 150.558 315.624 150.542 315.664 150.516C315.704 150.491 315.738 150.456 315.763 150.416C315.788 150.375 315.803 150.33 315.808 150.282C320.791 135.334 346.353 115.867 348.712 114.106C351.939 116.141 354.945 118.507 357.681 121.165L340.241 139.121C339.958 139.403 340.407 139.851 340.689 139.552L358.13 121.597C359.749 123.274 361.263 125.049 362.664 126.912ZM361.003 123.79C358.302 120.689 355.26 117.903 351.934 115.485L353.08 114.156C355.836 117.245 358.915 120.029 362.265 122.461L361.003 123.79Z" fill="#000001"/>
<path d="M199.473 32.9179C199.647 32.7627 199.83 32.6185 200.021 32.4861C199.783 31.3727 199.31 30.3228 198.634 29.4064C197.958 28.49 197.095 27.7279 196.101 27.1709C189.79 23.633 182.299 28.6658 178.827 34.8779C178.785 34.9505 178.774 35.0369 178.796 35.1179C178.818 35.1989 178.871 35.2679 178.944 35.3097C179.016 35.3516 179.103 35.3628 179.184 35.341C179.265 35.3192 179.334 35.2661 179.375 35.1934C182.614 29.3634 189.757 24.3307 195.803 27.719C196.76 28.2612 197.586 29.0084 198.22 29.9073C198.855 30.8061 199.283 31.8342 199.473 32.9179Z" fill="#0063D2"/>
<path d="M190.621 45.7241L186.701 49.4779C186.66 49.5219 186.632 49.5769 186.621 49.6363C186.61 49.6957 186.616 49.757 186.638 49.8129C186.661 49.8689 186.699 49.9172 186.749 49.952C186.798 49.9868 186.857 50.0068 186.917 50.0094C187.1 50.0094 186.784 50.2586 191.086 46.1394C190.936 46.0563 190.837 45.9567 190.621 45.7241Z" fill="#0063D2"/>
</svg>
