<svg width="360" height="381" viewBox="0 0 360 381" fill="none" xmlns="http://www.w3.org/2000/svg">
<g clip-path="url(#clip0_5611_66767)">
<g opacity="0.7">
<path d="M61.9487 346.55L92.1538 346.504L77.0118 373L61.9487 346.55Z" fill="#84C4FF"/>
<path d="M69.0661 364.46L57.4376 344.041L80.7556 344.005L69.0661 364.46Z" stroke="#222222" stroke-width="4"/>
</g>
<path d="M317.479 13.3958L326.369 58.9534L279.717 44.2789L317.479 13.3958Z" fill="#84C4FF"/>
<path d="M288.709 30.1008L321.015 3.67945L328.621 42.6552L288.709 30.1008Z" stroke="#222222" stroke-width="4"/>
<g clip-path="url(#clip1_5611_66767)">
<path d="M44.0259 252.203C43.7015 240.05 46.8299 228.053 53.0483 217.606C53.0762 217.585 53.0988 217.557 53.1146 217.526C53.1304 217.495 53.139 217.46 53.1396 217.425C53.1402 217.39 53.1329 217.355 53.1182 217.324C53.1035 217.292 53.0818 217.264 53.0547 217.241C53.0276 217.219 52.9959 217.203 52.9618 217.195C52.9277 217.187 52.8922 217.186 52.858 217.194C52.8237 217.201 52.7915 217.216 52.7639 217.238C52.7363 217.259 52.7139 217.287 52.6984 217.318C46.4304 227.84 43.2742 239.924 43.5962 252.167C43.6099 252.211 43.6365 252.25 43.6726 252.28C43.7087 252.309 43.7526 252.326 43.7988 252.33C43.845 252.334 43.8913 252.324 43.9317 252.301C43.9722 252.279 44.005 252.245 44.0259 252.203V252.203Z" fill="#0063D2"/>
<path d="M161.557 243.716C161.583 243.687 161.601 243.652 161.61 243.614C161.619 243.576 161.619 243.537 161.608 243.499C161.598 243.462 161.578 243.427 161.551 243.399C161.524 243.371 161.49 243.35 161.453 243.339C161.416 243.327 161.376 243.325 161.338 243.333C161.3 243.34 161.264 243.358 161.234 243.383C161.205 243.408 161.182 243.44 161.167 243.476C161.153 243.513 161.148 243.552 161.153 243.591C161.159 243.635 161.177 243.676 161.206 243.71C161.235 243.744 161.272 243.77 161.315 243.783C161.357 243.796 161.403 243.797 161.446 243.785C161.489 243.773 161.527 243.749 161.557 243.716V243.716Z" fill="#0063D2"/>
<path d="M47.5065 255.064C45.0264 258.641 42.0694 261.862 38.7175 264.639L28.9555 256.251C32.2289 253.433 35.0481 250.126 37.3135 246.448C40.4811 249.582 43.8892 252.463 47.5065 255.064V255.064Z" fill="#E6E7E8"/>
<path d="M53.9112 210.328C58.2849 209.516 62.5285 208.115 66.5258 206.163C64.7011 202.001 62.929 197.042 61.1643 192.248C56.8298 192.93 52.63 194.292 48.7197 196.283L53.9112 210.328Z" fill="#E6E7E8"/>
<path d="M219.767 212.114L220.423 211.797C223.133 209.271 227.689 204.885 227.689 204.885C223.435 207.728 212.468 198.936 211.169 197.836C206.486 193.892 205.929 191.311 206.008 190.251C205.54 191.071 204.333 192.868 203.479 194.099L203.583 194.185C203.599 194.238 203.596 194.295 203.573 194.346C203.551 194.397 203.511 194.438 203.46 194.462C203.41 194.486 203.353 194.491 203.299 194.476C203.245 194.462 203.199 194.428 203.168 194.382L193.818 174.906C193.036 173.242 192.938 171.338 193.544 169.602C194.15 167.867 195.412 166.437 197.06 165.621L209.909 159.494C206.197 159.344 191.411 158.554 184.651 154.361C176.521 149.406 182.031 135.837 192.33 142.067C200.694 147.182 207.893 155.429 210.173 158.19C209.234 154.724 206.664 144.102 207.344 134.328C208.163 122.322 222.462 125.691 221.81 135.123C221.243 143.121 213.301 155.753 211.341 158.754L223.923 152.74C224.759 152.339 225.665 152.107 226.591 152.057C227.516 152.007 228.443 152.14 229.317 152.449C230.191 152.758 230.995 153.236 231.684 153.857C232.372 154.478 232.931 155.228 233.329 156.066L249.836 190.473C250.63 192.155 250.724 194.084 250.098 195.837C249.472 197.589 248.177 199.021 246.496 199.82L219.964 212.529C219.91 212.545 219.853 212.542 219.802 212.519C219.751 212.497 219.71 212.457 219.686 212.406C219.662 212.356 219.657 212.299 219.672 212.245C219.687 212.191 219.72 212.145 219.767 212.114V212.114ZM192.068 142.501C182.328 136.556 177.263 149.35 184.822 153.979C191.823 158.148 207.247 158.876 210.274 159.05C208.65 157.034 201.045 147.93 192.068 142.501ZM221.345 135.091C221.961 126.262 208.559 122.997 207.801 134.37C207.088 144.878 210.11 156.3 210.8 158.737C212.437 156.264 220.773 143.21 221.345 135.091ZM235.962 204.363L213.765 158.1L207.607 161.041L229.797 207.315L235.962 204.363Z" fill="#0063D2"/>
<path d="M151.812 202.124C146.541 202.753 145.874 197.973 149.061 198.279C150.551 198.394 150.854 198.025 150.485 197.357C148.008 193.737 147.178 185.241 157.191 191.395C166.454 197.075 163.62 200.927 160.065 202.822C160.249 203.1 164.474 208.681 165.145 211.007C162.173 210.632 159.261 209.879 156.48 208.766C155.501 204.365 152.474 202.051 151.812 202.124Z" fill="#E6E7E8"/>
<path d="M144.254 238.275C142.357 233.545 138.1 220.696 142.472 218.616C144.318 217.74 147.158 219.298 150.416 223.085C150.451 223.129 150.469 223.184 150.466 223.24C150.464 223.297 150.441 223.35 150.402 223.391C147.88 226.025 145.091 228.391 142.08 230.45C143.879 236.997 146.653 243.235 150.309 248.956C154.291 248.078 158.016 246.291 161.194 243.734L161.137 243.688C161.119 243.658 161.107 243.625 161.104 243.591C161.1 243.556 161.104 243.522 161.115 243.489C161.127 243.457 161.145 243.427 161.17 243.402C161.194 243.378 161.223 243.359 161.256 243.347C161.288 243.336 161.323 243.331 161.357 243.334C161.392 243.338 161.425 243.349 161.455 243.366C161.484 243.384 161.51 243.408 161.529 243.437C161.548 243.466 161.56 243.499 161.565 243.533C162.949 247.634 165.493 257.38 161.829 259.138C159.485 260.255 156.213 257.295 153.676 254.307C149.725 249.483 146.547 244.074 144.254 238.275V238.275Z" fill="#0063D2"/>
<path d="M138.149 308.503C130.497 312.404 122.148 314.752 113.583 315.41C105.019 316.069 96.4093 315.025 88.2504 312.34C80.0915 309.655 72.5449 305.381 66.0459 299.764C59.547 294.148 54.2242 287.301 50.3847 279.617C50.3629 279.59 50.3475 279.558 50.3395 279.525C50.3315 279.491 50.3312 279.456 50.3385 279.422C50.3458 279.388 50.3606 279.356 50.3818 279.329C50.403 279.301 50.4301 279.279 50.4611 279.263C50.492 279.248 50.5261 279.239 50.5607 279.239C50.5954 279.238 50.6298 279.245 50.6614 279.259C50.693 279.273 50.7211 279.294 50.7434 279.321C50.7658 279.347 50.782 279.379 50.7908 279.412C54.6091 287.034 59.8974 293.826 66.3512 299.396C72.805 304.967 80.2968 309.205 88.3954 311.868C96.494 314.531 105.039 315.566 113.54 314.913C122.04 314.261 130.327 311.933 137.924 308.064C96.2804 221.618 85.7729 199.907 83.0627 194.161C82.6671 193.362 82.3141 192.543 82.0052 191.707C76.2346 194.306 70.881 197.746 66.1191 201.915C66.0714 201.954 66.0107 201.974 65.949 201.97C65.8874 201.967 65.8294 201.94 65.7867 201.895C65.748 201.848 65.7294 201.788 65.7348 201.727C65.7403 201.666 65.7694 201.61 65.8158 201.57C70.6098 197.387 75.9976 193.938 81.8036 191.335C81.0837 189.085 80.866 186.704 81.1659 184.36C81.4658 182.016 82.2761 179.767 83.5395 177.77L116.838 124.646C118.669 121.734 121.446 119.54 124.703 118.432C127.6 117.446 130.733 117.389 133.664 118.27C134.524 118.497 135.32 118.918 135.993 119.501C136.665 120.083 137.195 120.812 137.541 121.631L176.566 200.949C176.582 201.002 176.578 201.059 176.556 201.11C176.533 201.161 176.493 201.202 176.443 201.226C176.392 201.25 176.335 201.255 176.281 201.24C176.228 201.226 176.181 201.192 176.15 201.146L137.157 121.791C135.176 117.722 130.724 117.47 128.308 121.316L94.4649 175.545C92.5085 178.66 91.376 182.222 91.1736 185.895C90.9711 189.568 91.7055 193.232 93.3076 196.543C157.701 330.374 166.29 347.94 167.33 350.126C167.52 350.551 167.06 350.649 166.94 350.408L92.8919 196.741C91.2586 193.358 90.5096 189.617 90.7151 185.867C90.9205 182.117 92.0736 178.48 94.0666 175.297L127.919 121.076C128.314 120.382 128.842 119.774 129.474 119.287C130.106 118.8 130.828 118.443 131.599 118.237C128.817 117.838 125.979 118.254 123.429 119.434C120.878 120.614 118.724 122.508 117.227 124.887L83.9595 177.972C82.6957 180.08 81.929 182.449 81.7177 184.898C81.5064 187.347 81.856 189.811 82.74 192.105C83.9596 194.882 92.4333 212.338 161.919 356.788C161.937 356.816 161.95 356.847 161.955 356.88C161.961 356.913 161.959 356.947 161.95 356.979C161.941 357.011 161.925 357.041 161.904 357.067C161.882 357.093 161.856 357.113 161.825 357.128C161.795 357.142 161.762 357.15 161.729 357.15C161.695 357.151 161.662 357.144 161.631 357.13C161.601 357.117 161.573 357.097 161.551 357.072C161.529 357.047 161.513 357.017 161.503 356.985L138.149 308.503Z" fill="#0063D2"/>
<path d="M135.843 130.774C134.302 127.558 130.875 127.293 130.455 130.292C130.035 133.29 132.952 136.528 135.096 135.501C136.633 134.768 136.662 132.477 135.843 130.774ZM131.892 128.794C133.703 127.921 136.25 130.934 135.913 133.542C135.888 133.871 135.778 134.187 135.594 134.461C135.411 134.735 135.16 134.957 134.866 135.106C133.055 135.979 130.5 132.975 130.844 130.358C130.872 130.03 130.983 129.715 131.166 129.441C131.35 129.168 131.599 128.945 131.892 128.794V128.794Z" fill="#0063D2"/>
<path d="M159.869 119.031L166.324 115.921L163.221 109.457C163.203 109.429 163.19 109.398 163.185 109.365C163.179 109.332 163.181 109.298 163.19 109.266C163.199 109.233 163.215 109.203 163.236 109.178C163.258 109.152 163.284 109.131 163.315 109.117C163.345 109.103 163.378 109.095 163.411 109.095C163.445 109.094 163.478 109.101 163.509 109.115C163.539 109.128 163.566 109.148 163.589 109.173C163.611 109.198 163.627 109.228 163.637 109.26L166.747 115.715L173.202 112.605C173.249 112.583 173.302 112.579 173.353 112.591C173.403 112.604 173.448 112.633 173.48 112.674C173.512 112.714 173.529 112.765 173.529 112.817C173.529 112.869 173.512 112.919 173.48 112.96C173.418 113.036 173.658 112.917 166.944 116.13L170.046 122.595C170.06 122.646 170.055 122.701 170.033 122.749C170.012 122.798 169.974 122.837 169.926 122.861C169.879 122.885 169.824 122.892 169.772 122.881C169.72 122.87 169.674 122.841 169.64 122.799L166.538 116.335L160.066 119.447C160.013 119.463 159.955 119.46 159.904 119.437C159.853 119.414 159.812 119.374 159.788 119.324C159.765 119.274 159.76 119.216 159.774 119.163C159.789 119.109 159.823 119.062 159.869 119.031V119.031Z" fill="#0063D2"/>
<path d="M58.6139 143.464L55.744 136.35C55.7237 136.297 55.7238 136.238 55.7443 136.185C55.7647 136.131 55.8041 136.087 55.8549 136.061L69.3539 128.931L54.6556 133.047C54.5997 133.064 54.5397 133.059 54.4872 133.033C54.4348 133.008 54.3939 132.964 54.3725 132.909L51.5026 125.796C51.396 125.53 51.3548 125.243 51.3824 124.958C51.41 124.673 51.5055 124.399 51.6611 124.159C51.8166 123.919 52.0275 123.72 52.2761 123.578C52.5247 123.436 52.8037 123.356 53.0896 123.345L82.0488 122.027C82.419 122.016 82.7839 122.119 83.0935 122.322C83.4031 122.525 83.6425 122.819 83.7789 123.164C83.9153 123.508 83.9421 123.886 83.8557 124.246C83.7693 124.606 83.5738 124.931 83.296 125.176L61.4481 144.161C61.2321 144.348 60.9742 144.481 60.6962 144.548C60.4182 144.615 60.1282 144.614 59.8506 144.546C59.5729 144.477 59.3157 144.343 59.1005 144.155C58.8853 143.967 58.7184 143.73 58.6139 143.464V143.464ZM61.1526 143.807L83.0004 124.822C83.2142 124.645 83.3666 124.404 83.4359 124.135C83.5052 123.866 83.488 123.582 83.3866 123.323C83.2852 123.064 83.1049 122.844 82.8712 122.694C82.6375 122.543 82.3623 122.47 82.0848 122.485L53.1551 123.747C52.9423 123.754 52.7344 123.813 52.5491 123.918C52.3638 124.023 52.2066 124.171 52.0909 124.35C51.9751 124.528 51.9042 124.732 51.8842 124.944C51.8642 125.156 51.8957 125.37 51.976 125.567L54.704 132.564L71.2109 127.906C71.2658 127.877 71.3297 127.872 71.3886 127.891C71.4476 127.909 71.4966 127.951 71.5251 128.006C71.5535 128.06 71.559 128.124 71.5403 128.183C71.5216 128.242 71.4802 128.291 71.4253 128.32L56.1737 136.387L58.9406 143.336C59.0182 143.548 59.1484 143.737 59.319 143.886C59.4897 144.034 59.6952 144.136 59.9163 144.183C60.1374 144.231 60.3668 144.221 60.5831 144.155C60.7993 144.089 60.9953 143.969 61.1526 143.807Z" fill="#0063D2"/>
<path d="M133.236 326.05C133.294 325.748 132.801 325.692 132.775 325.956C130.346 338.223 115.55 329.231 113.077 341.842C113.066 341.874 113.062 341.907 113.065 341.941C113.068 341.974 113.078 342.006 113.095 342.035C113.112 342.064 113.135 342.089 113.162 342.108C113.189 342.128 113.22 342.141 113.253 342.147C113.286 342.154 113.32 342.153 113.352 342.145C113.385 342.137 113.415 342.122 113.441 342.101C113.467 342.08 113.489 342.054 113.504 342.024C113.519 341.995 113.528 341.962 113.529 341.928C115.916 329.595 130.728 338.743 133.236 326.05Z" fill="#0063D2"/>
<path d="M220.746 175.232C221.202 173.002 221.502 170.744 221.642 168.472C221.769 165.407 220.042 164.923 219.501 167.568C218.847 170.12 218.035 172.628 217.069 175.078C217.343 173.105 217.459 171.112 217.417 169.12C217.308 166.052 215.729 165.91 215.231 168.56C214.638 172.346 213.595 176.049 212.125 179.589C211.537 177.534 210.654 175.575 209.504 173.773C208.103 171.988 207.449 173.844 208.15 178.794C208.604 182.6 207.932 186.455 206.216 189.882C205.156 191.769 208.891 196.519 214.693 200.606C215.336 201.134 216.053 201.534 216.74 201.971C217.322 201.61 222.152 190.778 224.396 183.921C225.301 181.163 226.267 178.328 226.938 175.488C227.608 172.647 226.459 171.925 225.338 174.252C224.738 175.388 224.08 176.492 223.365 177.559C224.081 175.487 224.653 173.367 225.076 171.216C225.594 168.234 223.943 167.543 223.051 170.074C222.37 171.831 221.6 173.553 220.746 175.232V175.232Z" fill="#E6E7E8"/>
<path d="M213.307 276.584C210.329 277.952 206.934 278.104 203.846 277.007C200.757 275.909 198.22 273.649 196.773 270.708C195.327 267.767 195.086 264.377 196.102 261.261C197.118 258.145 199.31 255.549 202.212 254.025L191.011 231.269C190.998 231.241 190.99 231.211 190.988 231.18C190.986 231.149 190.99 231.118 191 231.089C191.01 231.06 191.026 231.033 191.046 231.01C191.067 230.986 191.092 230.967 191.12 230.954C191.147 230.94 191.178 230.932 191.208 230.93C191.239 230.929 191.27 230.933 191.299 230.943C191.329 230.953 191.356 230.969 191.379 230.989C191.402 231.01 191.421 231.034 191.435 231.062L202.626 253.811C205.589 252.533 208.93 252.444 211.957 253.561C214.985 254.678 217.467 256.917 218.889 259.813C220.312 262.709 220.567 266.041 219.602 269.12C218.636 272.199 216.524 274.789 213.702 276.354L219.067 287.276C219.083 287.33 219.08 287.387 219.057 287.438C219.034 287.489 218.994 287.53 218.944 287.554C218.894 287.578 218.836 287.583 218.783 287.568C218.729 287.553 218.682 287.52 218.651 287.474L213.307 276.584ZM196.01 263.809C195.772 265.941 196.105 268.098 196.974 270.06C197.843 272.022 199.217 273.718 200.956 274.975C202.695 276.231 204.736 277.004 206.872 277.214C209.007 277.423 211.16 277.063 213.11 276.168L202.436 254.447C200.679 255.361 199.174 256.693 198.054 258.325C196.933 259.958 196.231 261.841 196.01 263.809V263.809Z" fill="#0063D2"/>
<path d="M150.185 248.759C154.672 247.774 158.816 245.61 162.188 242.49C165.56 239.37 168.039 235.407 169.37 231.009C164.111 226.687 164.319 226.858 164.225 226.78C164.199 226.739 164.187 226.691 164.19 226.642C164.193 226.594 164.212 226.547 164.242 226.51C164.273 226.472 164.315 226.445 164.362 226.433C164.409 226.42 164.459 226.423 164.505 226.44C172.584 229.182 182.337 230.003 190.941 230.91C193.236 231.15 195.543 230.605 197.488 229.366C207.895 222.479 217.606 214.597 226.485 205.829C220.908 206.618 206.551 196.339 205.816 191.044C200.86 198.788 195.141 206.018 188.745 212.623C188.724 212.646 188.698 212.665 188.669 212.677C188.64 212.688 188.609 212.694 188.578 212.692C179.002 212.523 165.598 212.615 156.755 209.183C156.895 209.918 156.971 210.665 156.982 211.413C157.023 213.793 155.519 217.358 152.253 221.331C149.294 224.82 145.871 227.888 142.08 230.45L141.964 229.974C152.777 222.411 156.568 214.751 156.56 211.368C156.547 210.126 156.347 208.894 155.967 207.711C155.831 208.263 155.569 208.775 155.202 209.207C154.834 209.64 154.371 209.982 153.849 210.206C153.328 210.429 152.761 210.529 152.194 210.497C151.627 210.465 151.076 210.302 150.583 210.021C150.592 210.78 150.366 211.524 149.936 212.149C149.505 212.775 148.891 213.252 148.179 213.514C147.466 213.776 146.69 213.811 145.956 213.614C145.223 213.417 144.569 212.998 144.084 212.413C143.813 213.114 143.335 213.714 142.713 214.135C142.09 214.555 141.354 214.774 140.603 214.763C139.853 214.752 139.123 214.511 138.514 214.073C137.904 213.635 137.443 213.021 137.193 212.313C136.631 213.009 135.834 213.476 134.952 213.627C134.07 213.777 133.163 213.6 132.402 213.129C131.813 212.766 131.338 212.244 131.033 211.622C130.727 211.001 130.603 210.306 130.676 209.618C130.087 210.007 129.401 210.221 128.696 210.237C127.991 210.252 127.296 210.067 126.691 209.703C125.958 209.26 125.403 208.574 125.122 207.764C124.841 206.954 124.852 206.072 125.153 205.269C124.413 205.408 123.648 205.316 122.961 205.006C122.275 204.695 121.7 204.181 121.316 203.533C120.932 202.885 120.756 202.134 120.813 201.383C120.869 200.632 121.156 199.916 121.633 199.333C120.902 199.191 120.231 198.831 119.709 198.299C119.187 197.767 118.84 197.089 118.712 196.355C118.585 195.621 118.684 194.866 118.996 194.189C119.307 193.513 119.818 192.947 120.458 192.567C119.806 192.177 119.291 191.594 118.985 190.898C118.678 190.203 118.594 189.429 118.746 188.684C118.897 187.939 119.276 187.26 119.83 186.739C120.384 186.219 121.086 185.883 121.839 185.778C121.296 185.188 120.96 184.437 120.883 183.639C120.807 182.84 120.994 182.039 121.416 181.357L121.563 181.177C121.966 180.514 122.569 179.995 123.285 179.695C124.001 179.395 124.794 179.33 125.549 179.509C125.257 178.793 125.198 178.004 125.38 177.253C125.562 176.502 125.977 175.827 126.565 175.325C127.153 174.824 127.884 174.52 128.655 174.458C129.425 174.396 130.196 174.579 130.856 174.98C130.855 174.228 131.086 173.493 131.516 172.876C131.946 172.258 132.555 171.788 133.262 171.528C133.968 171.268 134.737 171.232 135.464 171.423C136.192 171.615 136.844 172.025 137.33 172.599C137.607 171.902 138.091 171.306 138.717 170.891C139.343 170.477 140.08 170.265 140.83 170.282C141.581 170.3 142.308 170.547 142.913 170.99C143.519 171.433 143.974 172.051 144.218 172.761C144.784 172.099 145.566 171.66 146.426 171.522C147.286 171.384 148.166 171.556 148.911 172.006C149.494 172.36 149.966 172.869 150.276 173.477C150.586 174.084 150.72 174.765 150.665 175.445C151.315 175 152.091 174.776 152.878 174.806C153.665 174.836 154.421 175.118 155.036 175.611C155.65 176.104 156.09 176.781 156.29 177.542C156.491 178.304 156.441 179.11 156.148 179.841C156.888 179.71 157.65 179.809 158.331 180.124C159.013 180.439 159.581 180.956 159.96 181.604C160.339 182.252 160.51 183.001 160.451 183.749C160.391 184.498 160.103 185.21 159.627 185.79C160.359 185.935 161.029 186.3 161.549 186.835C162.069 187.371 162.413 188.052 162.536 188.788C162.659 189.524 162.555 190.28 162.237 190.955C161.92 191.631 161.404 192.194 160.759 192.569C161.295 192.885 161.742 193.333 162.058 193.869C162.373 194.406 162.548 195.014 162.564 195.637C164.725 198.618 163.589 201.138 160.401 202.877C160.76 203.346 161.605 204.516 162.601 205.984C171.837 203.196 180.655 199.174 188.815 194.028C192.161 191.002 195.332 187.788 198.312 184.401L198.53 184.849C195.569 188.226 192.411 191.425 189.072 194.429C180.902 199.579 172.071 203.596 162.821 206.372C163.771 207.797 164.607 209.294 165.321 210.851C172.692 212.044 181.08 212.076 188.52 212.184C195.009 205.479 200.793 198.125 205.781 190.238C207.659 186.749 208.421 182.766 207.962 178.83C207.597 176.247 207.388 173.128 208.433 172.878C209.479 172.628 211.057 176.048 212.137 179.092C213.529 175.728 214.52 172.212 215.089 168.617C215.616 165.739 217.612 165.778 217.758 169.226C217.788 170.585 217.729 171.945 217.582 173.297C218.278 171.429 218.87 169.525 219.355 167.591C219.935 164.803 222.075 165.073 221.962 168.546C221.847 170.304 221.626 172.054 221.3 173.786C222.046 172.165 222.612 170.744 222.858 170.059C223.813 167.373 225.921 167.932 225.322 171.323C225.026 172.892 224.631 174.442 224.14 175.961C224.568 175.267 224.895 174.696 225.148 174.175C225.699 173.043 226.323 172.495 226.828 172.671C227.332 172.848 227.564 173.974 227.189 175.568C225.44 182.095 223.212 188.485 220.525 194.686C223.613 197.002 230.419 203.357 227.573 205.392C218.472 214.467 208.49 222.614 197.774 229.712C195.736 231.027 193.312 231.61 190.899 231.367C184.043 230.822 177.224 229.879 170.477 228.544C169.557 232.894 167.61 236.961 164.8 240.407C161.126 244.861 156.066 247.955 150.428 249.197C150.359 249.029 150.277 248.898 150.185 248.759ZM161.509 205.23L158.034 203.847C157.99 203.828 157.952 203.796 157.927 203.756C157.902 203.715 157.89 203.667 157.893 203.619C157.896 203.571 157.914 203.525 157.944 203.488C157.974 203.45 158.015 203.423 158.061 203.41C160.126 202.825 162.891 201.215 163.228 199.051C163.564 196.887 161.425 194.4 157.098 191.604C152.771 188.809 150.68 189.213 149.867 190.067C148.494 191.506 149.202 195.099 150.7 197.249C150.813 197.342 150.981 197.813 150.753 198.148C150.525 198.484 150.011 198.569 149.037 198.481C146.127 198.165 146.902 202.448 151.777 201.858C152.368 201.942 152.915 202.218 153.332 202.645C155.011 204.238 156.172 206.297 156.668 208.556C159.286 209.563 162.005 210.289 164.777 210.721C163.837 208.806 162.744 206.97 161.509 205.23V205.23ZM226.707 175.441C227.088 173.82 226.831 173.15 226.643 173.09C226.454 173.03 226.039 173.323 225.57 174.395C225.141 175.263 224.54 176.227 223.59 177.729C223.513 177.823 223.27 178.717 222.621 180.355C222.612 180.387 222.597 180.417 222.576 180.443C222.555 180.468 222.529 180.49 222.499 180.504C222.47 180.519 222.437 180.527 222.404 180.529C222.371 180.53 222.337 180.524 222.307 180.511C222.276 180.499 222.248 180.479 222.226 180.455C222.203 180.431 222.186 180.402 222.175 180.371C222.164 180.339 222.161 180.306 222.164 180.273C222.167 180.24 222.178 180.208 222.195 180.179C223.326 177.288 224.216 174.309 224.856 171.272C225.135 169.679 224.751 168.951 224.438 168.869C224.126 168.786 223.652 169.189 223.288 170.269C222.625 172.064 221.856 173.819 220.983 175.522C220.678 177.126 220.37 178.504 220.197 179.235C220.121 179.52 219.667 179.417 219.751 179.122C220.594 175.639 221.179 172.099 221.5 168.53C221.564 166.871 221.072 166.197 220.755 166.158C220.438 166.12 220.04 166.585 219.817 167.685C219.158 170.234 218.343 172.739 217.375 175.187C217.23 176.289 217.072 177.157 216.991 177.582C216.986 177.613 216.974 177.642 216.956 177.667C216.939 177.693 216.917 177.715 216.891 177.733C216.865 177.75 216.836 177.761 216.806 177.767C216.775 177.773 216.744 177.772 216.714 177.766C216.655 177.752 216.605 177.716 216.572 177.666C216.54 177.615 216.528 177.555 216.539 177.496C217.082 174.763 217.329 171.98 217.276 169.195C217.24 167.581 216.775 167.008 216.502 166.974C216.229 166.94 215.773 167.515 215.562 168.658C214.885 173.217 213.495 177.642 211.442 181.769C211.411 181.818 211.363 181.854 211.307 181.87C211.251 181.885 211.191 181.879 211.139 181.852C211.087 181.825 211.047 181.78 211.027 181.726C211.007 181.671 211.008 181.611 211.03 181.557C211.36 180.925 211.647 180.305 211.927 179.695C211.832 179.617 209.643 173.064 208.598 173.314C208.36 173.372 207.858 174.465 208.468 178.754C208.93 182.692 208.208 186.678 206.395 190.204C205.728 192.096 209.437 196.587 214.932 200.391C215.49 200.849 216.136 201.221 216.756 201.604C219.346 197.219 225.016 182.608 226.707 175.441Z" fill="#000001"/>
<path d="M36.2059 226.22C36.0879 225.708 35.821 225.243 35.4389 224.883C35.0568 224.523 34.5766 224.284 34.0589 224.197C33.5412 224.109 33.0092 224.178 32.5301 224.392C32.051 224.607 31.6463 224.959 31.3671 225.404C31.0879 225.848 30.9466 226.366 30.9612 226.89C30.9758 227.415 31.1456 227.924 31.449 228.352C31.7525 228.781 32.1761 229.11 32.6664 229.297C33.1567 229.485 33.6916 229.524 34.2037 229.408C34.8909 229.249 35.4874 228.824 35.8626 228.227C36.2377 227.63 36.3612 226.908 36.2059 226.22V226.22ZM33.115 224.678C33.5373 224.58 33.979 224.609 34.3845 224.762C34.79 224.915 35.1411 225.185 35.3932 225.538C35.6453 225.89 35.7873 226.31 35.801 226.743C35.8148 227.176 35.6998 227.604 35.4706 227.972C35.2414 228.339 34.9082 228.631 34.5133 228.81C34.1183 228.988 33.6793 229.045 33.2517 228.975C32.8241 228.904 32.4272 228.707 32.1111 228.411C31.795 228.114 31.574 227.731 31.4759 227.308C31.3555 226.742 31.4629 226.151 31.775 225.663C32.087 225.175 32.5786 224.829 33.1434 224.701L33.115 224.678Z" fill="#0063D2"/>
<path d="M35.3362 266.092C34.7593 265.618 34.9282 264.409 35.8387 262.511L27.3914 255.204C12.3535 248.993 6.51547 244.797 -0.184827 238.275C-0.215054 238.245 -0.236607 238.208 -0.247165 238.167C-0.257723 238.126 -0.25689 238.083 -0.244743 238.042C-0.232597 238.002 -0.209604 237.965 -0.178244 237.937C-0.146885 237.908 -0.10835 237.889 -0.0667944 237.881C7.32371 236.602 26.6637 238.948 32.7718 241.369C32.8002 241.385 32.8258 241.406 32.8475 241.431C36.1288 245.226 39.7568 248.707 43.6844 251.828C45.1039 250.332 49.4682 245.948 51.0106 247.31C58.3674 253.785 75.0869 268.478 77.6096 270.615C78.9171 269.487 82.9824 266.314 87.7233 262.667C70.6413 260.64 68.8726 256.873 65.9963 250.673C62.0577 242.238 52.8219 218.498 49.923 210.109C49.2104 209.048 51.3543 207.577 52.3922 206.893L48.4721 196.333C39.6964 187.979 34.8304 182.87 28.2624 172.274C28.2447 172.234 28.2385 172.191 28.2442 172.148C28.25 172.105 28.2676 172.065 28.2951 172.031C28.3225 171.998 28.3587 171.973 28.3996 171.959C28.4406 171.945 28.4846 171.942 28.5267 171.952C36.8216 173.429 52.8309 180.945 59.0624 185.608C59.0846 185.614 59.1053 185.625 59.1232 185.64C59.1411 185.654 59.1558 185.673 59.1664 185.693C60.8395 190.618 63.5803 198.101 64.9612 201.55C66.6981 201.075 72.1238 199.719 72.7653 201.387C74.2657 205.346 84.6886 234.468 85.301 236.017C87.2108 235.622 95.9452 235.098 102.458 234.27L102.666 234.711C95.7761 235.593 86.8222 236.095 85.2181 236.504C84.8613 236.591 85.4367 237.761 75.6606 210.629C69.4354 215.763 61.6241 218.583 53.5548 218.609C56.3577 226.016 63.2288 243.628 66.4498 250.507C69.3366 256.636 71.0546 260.33 88.2866 262.29C91.7909 259.608 107.647 247.49 108.443 246.829L108.642 247.262C107.666 248.044 79.7037 269.436 77.8463 271.079C77.8034 271.114 77.75 271.133 77.6948 271.134C77.6396 271.134 77.5859 271.116 77.5422 271.082C76.1045 269.901 66.0369 261.055 57.9183 253.907C54.8525 261.609 49.5795 267.466 42.8523 272.238C51.5035 280.03 63.0544 290.078 68.1942 293.716C79.0991 301.427 77.8607 301.661 122.045 274.918L122.242 275.333C78.6668 301.722 79.029 301.956 68.5886 294.548C60.3902 288.808 42.1119 272.406 35.3362 266.092ZM60.9775 192.475C56.7978 193.155 52.7463 194.469 48.963 196.372L54.0219 210.039C58.233 209.237 62.321 207.887 66.1813 206.023C64.4229 201.915 62.643 196.966 61.0154 192.506L60.9775 192.475ZM75.3816 210.178C74.2122 206.934 73.1787 204.104 72.4937 202.257C70.4519 205.841 54.3254 211.81 50.5294 210.528C51.2056 212.463 52.1904 215.063 53.3035 218.085C61.3701 218.129 69.1965 215.342 75.4195 210.209L75.3816 210.178ZM29.242 256.249C29.7623 256.677 39.1337 264.807 38.6307 264.378C41.8502 261.688 44.697 258.581 47.096 255.139C43.6256 252.615 40.3452 249.839 37.2813 246.834C35.1015 250.345 32.4158 253.515 29.311 256.242L29.242 256.249ZM57.4021 253.61C55.0619 251.56 52.9014 249.657 51.1698 248.139C51.1336 252.039 40.0829 265.619 36.1275 266.267C37.8485 267.856 39.9797 269.813 42.3439 271.931C49.7145 266.8 54.6416 260.786 57.4711 253.603L57.4021 253.61Z" fill="#000001"/>
</g>
<path opacity="0.58" d="M294.174 228.728C295.272 227.406 295.807 225.703 295.664 223.981C295.521 222.26 294.712 220.656 293.409 219.512V219.512L291.016 217.527L297.716 209.435L304.722 215.216C304.85 215.296 305.001 215.329 305.15 215.312C305.299 215.295 305.438 215.228 305.543 215.122C305.648 215.016 305.714 214.877 305.73 214.728C305.746 214.579 305.712 214.428 305.631 214.301L298.625 208.47L301.031 205.55C301.67 204.907 300.549 204.088 300.107 204.633L297.726 207.528C295.333 205.543 293.807 203.633 290.466 204.05C289.217 204.157 288.027 204.618 287.037 205.38C286.047 206.141 285.298 207.172 284.877 208.35C284.457 209.529 284.383 210.806 284.664 212.031C284.946 213.256 285.57 214.379 286.465 215.267L289.308 217.698L282.607 225.789L275.452 219.959C275.324 219.879 275.173 219.845 275.024 219.862C274.875 219.88 274.737 219.946 274.632 220.053C274.526 220.159 274.46 220.297 274.444 220.447C274.428 220.596 274.463 220.746 274.543 220.874L281.574 226.729L279.144 229.625C279.02 229.749 278.951 229.918 278.952 230.095C278.954 230.272 279.025 230.441 279.151 230.566C279.277 230.691 279.447 230.761 279.623 230.761C279.8 230.762 279.968 230.692 280.092 230.567L282.473 227.672L284.866 229.657C285.542 230.212 286.32 230.628 287.155 230.882C287.99 231.136 288.866 231.222 289.731 231.136C290.597 231.049 291.435 230.792 292.198 230.379C292.96 229.965 293.632 229.404 294.174 228.728V228.728ZM287.45 214.574C286.857 214.149 286.357 213.607 285.98 212.982C285.604 212.357 285.359 211.662 285.263 210.941C285.166 210.219 285.219 209.487 285.417 208.79C285.616 208.093 285.957 207.445 286.419 206.888C286.88 206.33 287.453 205.875 288.1 205.551C288.747 205.226 289.456 205.039 290.182 205.001C290.907 204.963 291.634 205.075 292.317 205.33C293 205.585 293.624 205.977 294.151 206.483L296.545 208.467L289.844 216.559L287.45 214.574ZM289.599 229.737C288.919 229.809 288.232 229.745 287.575 229.549C286.919 229.352 286.307 229.027 285.775 228.593L283.331 226.558L290.007 218.442L292.401 220.427C293.197 221.084 293.786 221.958 294.097 222.941C294.408 223.923 294.426 224.973 294.15 225.961C293.874 226.948 293.315 227.832 292.542 228.502C291.769 229.173 290.815 229.602 289.797 229.738L289.599 229.737Z" fill="#0063D2"/>
<path d="M294.979 115.593C294.536 113.525 293.295 111.712 291.522 110.541C289.748 109.37 287.581 108.933 285.484 109.322V109.322L281.743 110.128L279.014 97.4925L289.933 95.1136C290.108 95.0499 290.255 94.9298 290.352 94.7727C290.449 94.6156 290.49 94.4307 290.467 94.2482C290.445 94.0656 290.361 93.896 290.229 93.7671C290.097 93.6381 289.924 93.5572 289.74 93.5376L278.772 95.8793L277.777 91.332C277.641 90.2246 275.996 90.6861 276.187 91.5273L277.176 96.032C273.436 96.8373 270.429 96.8608 268.291 100.409C267.443 101.698 266.985 103.2 266.969 104.737C266.952 106.274 267.379 107.783 268.199 109.085C269.019 110.388 270.198 111.431 271.597 112.091C272.996 112.751 274.557 113 276.096 112.81L280.61 111.91L283.34 124.545L272.259 127.03C272.084 127.094 271.937 127.214 271.84 127.371C271.743 127.528 271.702 127.713 271.725 127.896C271.747 128.078 271.831 128.248 271.963 128.377C272.095 128.506 272.268 128.587 272.452 128.606L283.463 126.259L284.415 130.812C284.441 131.027 284.553 131.222 284.724 131.355C284.896 131.488 285.114 131.548 285.331 131.521C285.547 131.494 285.745 131.384 285.879 131.213C286.014 131.042 286.074 130.826 286.048 130.611L285.059 126.107L288.799 125.301C289.85 125.07 290.844 124.634 291.725 124.019C292.605 123.405 293.355 122.624 293.929 121.721C294.504 120.818 294.893 119.811 295.073 118.759C295.253 117.708 295.221 116.631 294.979 115.593V115.593ZM276.176 111.33C275.314 111.581 274.409 111.653 273.518 111.541C272.627 111.43 271.769 111.138 270.998 110.683C270.226 110.228 269.558 109.62 269.035 108.897C268.512 108.175 268.145 107.352 267.957 106.482C267.769 105.612 267.764 104.712 267.942 103.839C268.121 102.966 268.479 102.138 268.994 101.407C269.509 100.677 270.17 100.059 270.936 99.5921C271.702 99.1255 272.557 98.8201 273.446 98.6951L277.186 97.8899L279.916 110.525L276.176 111.33ZM292.476 120.786C292.029 121.497 291.444 122.114 290.754 122.599C290.065 123.085 289.285 123.43 288.461 123.614L284.634 124.429L281.862 111.799L285.602 110.994C286.843 110.724 288.137 110.818 289.323 111.265C290.51 111.712 291.539 112.493 292.285 113.511C293.03 114.53 293.459 115.742 293.52 117C293.581 118.258 293.27 119.507 292.627 120.594L292.476 120.786Z" fill="#0063D2"/>
<path d="M251.259 258.664C251.11 257.678 250.579 256.79 249.779 256.188C248.978 255.586 247.972 255.317 246.974 255.44V255.44L245.191 255.711L244.273 249.689L249.478 248.886C249.561 248.861 249.634 248.808 249.684 248.737C249.734 248.666 249.759 248.58 249.754 248.494C249.748 248.407 249.714 248.325 249.655 248.261C249.597 248.196 249.518 248.153 249.432 248.139L244.206 248.923L243.869 246.755C243.837 246.231 243.05 246.4 243.115 246.801L243.451 248.949C241.668 249.219 240.253 249.143 239.145 250.751C238.709 251.333 238.45 252.025 238.398 252.748C238.346 253.47 238.503 254.192 238.851 254.829C239.199 255.465 239.723 255.99 240.362 256.341C241.001 256.691 241.728 256.854 242.458 256.809L244.607 256.516L245.525 262.538L240.241 263.387C240.158 263.412 240.085 263.464 240.035 263.535C239.985 263.606 239.96 263.692 239.965 263.778C239.971 263.865 240.005 263.947 240.064 264.011C240.122 264.076 240.201 264.119 240.287 264.134L245.534 263.348L245.85 265.517C245.856 265.618 245.903 265.714 245.98 265.781C246.057 265.849 246.158 265.883 246.26 265.877C246.363 265.87 246.459 265.824 246.527 265.748C246.595 265.671 246.63 265.571 246.624 265.47L246.289 263.322L248.071 263.052C248.572 262.973 249.052 262.797 249.484 262.533C249.916 262.27 250.291 261.924 250.588 261.516C250.884 261.108 251.096 260.646 251.211 260.156C251.327 259.666 251.343 259.159 251.259 258.664V258.664ZM242.538 256.115C242.125 256.208 241.697 256.216 241.281 256.138C240.866 256.06 240.471 255.897 240.121 255.661C239.771 255.425 239.475 255.12 239.25 254.765C239.024 254.41 238.876 254.012 238.812 253.597C238.749 253.183 238.773 252.759 238.882 252.354C238.991 251.948 239.183 251.569 239.447 251.24C239.71 250.912 240.039 250.64 240.413 250.443C240.786 250.245 241.197 250.127 241.619 250.094L243.402 249.823L244.32 255.845L242.538 256.115ZM249.931 261.034C249.7 261.356 249.407 261.629 249.069 261.837C248.731 262.046 248.354 262.185 247.961 262.248L246.138 262.521L245.199 256.5L246.981 256.23C247.573 256.139 248.178 256.22 248.724 256.465C249.269 256.709 249.73 257.106 250.052 257.607C250.373 258.107 250.54 258.69 250.532 259.283C250.524 259.877 250.342 260.455 250.008 260.948L249.931 261.034Z" fill="#0063D2"/>
<path opacity="0.44" d="M292.259 319.664C292.11 318.678 291.579 317.79 290.779 317.188C289.978 316.586 288.972 316.317 287.974 316.44V316.44L286.191 316.711L285.273 310.689L290.478 309.886C290.561 309.861 290.634 309.808 290.684 309.737C290.734 309.666 290.759 309.58 290.754 309.494C290.748 309.407 290.714 309.325 290.655 309.261C290.597 309.196 290.518 309.153 290.432 309.139L285.206 309.923L284.869 307.755C284.837 307.231 284.05 307.4 284.115 307.801L284.451 309.949C282.668 310.219 281.253 310.143 280.145 311.751C279.709 312.333 279.45 313.025 279.398 313.748C279.346 314.47 279.503 315.192 279.851 315.829C280.199 316.465 280.723 316.99 281.362 317.341C282.001 317.691 282.728 317.854 283.458 317.809L285.607 317.516L286.525 323.538L281.241 324.387C281.158 324.412 281.085 324.464 281.035 324.535C280.985 324.606 280.96 324.692 280.965 324.778C280.971 324.865 281.005 324.947 281.064 325.011C281.122 325.076 281.201 325.119 281.287 325.134L286.534 324.348L286.85 326.517C286.856 326.618 286.903 326.714 286.98 326.781C287.057 326.849 287.158 326.883 287.26 326.877C287.363 326.87 287.459 326.824 287.527 326.748C287.595 326.671 287.63 326.571 287.624 326.47L287.289 324.322L289.071 324.052C289.572 323.973 290.052 323.797 290.484 323.533C290.916 323.27 291.291 322.924 291.588 322.516C291.884 322.108 292.096 321.646 292.211 321.156C292.327 320.666 292.343 320.159 292.259 319.664V319.664ZM283.538 317.115C283.125 317.208 282.697 317.216 282.281 317.138C281.866 317.06 281.471 316.897 281.121 316.661C280.771 316.425 280.475 316.12 280.25 315.765C280.024 315.41 279.876 315.012 279.812 314.597C279.749 314.183 279.773 313.759 279.882 313.354C279.991 312.948 280.183 312.569 280.447 312.24C280.71 311.912 281.039 311.64 281.413 311.443C281.786 311.245 282.197 311.127 282.619 311.094L284.402 310.823L285.32 316.845L283.538 317.115ZM290.931 322.034C290.7 322.356 290.407 322.629 290.069 322.837C289.731 323.046 289.354 323.185 288.961 323.248L287.138 323.521L286.199 317.5L287.981 317.23C288.573 317.139 289.178 317.22 289.724 317.465C290.269 317.709 290.73 318.106 291.052 318.607C291.373 319.107 291.54 319.69 291.532 320.283C291.524 320.877 291.342 321.455 291.008 321.948L290.931 322.034Z" fill="#0063D2"/>
</g>
<defs>
<clipPath id="clip0_5611_66767">
<rect width="360" height="381" fill="white"/>
</clipPath>
<clipPath id="clip1_5611_66767">
<rect width="244.865" height="244.865" fill="white" transform="matrix(-0.634965 0.772541 0.772541 0.634965 116.48 36)"/>
</clipPath>
</defs>
</svg>
