<svg width="360" height="305" viewBox="0 0 360 305" fill="none" xmlns="http://www.w3.org/2000/svg">
<g opacity="0.7">
<path d="M181.811 9.93994L216.377 5.1554L203.196 37.8551L181.811 9.93994Z" fill="#84C4FF"/>
<path d="M192.848 29.9457L175.684 7.53999L203.428 3.69974L192.848 29.9457Z" stroke="#222222" stroke-width="4"/>
</g>
<path d="M102.839 100.225L87.807 110.967L77.0196 95.4766L61.9875 106.219L51.2001 90.7284L36.1679 101.471L25.3805 85.9802L10.3483 96.7224" stroke="#84C4FF" stroke-width="4"/>
<path d="M101.522 108.366L86.4896 119.108L75.7023 103.617L60.6701 114.36L49.8827 98.8693L34.8505 109.611L24.0631 94.1211L9.03096 104.863" stroke="#381DDB" stroke-width="4"/>
<path d="M369.986 230.916C381.503 206.424 383.712 178.574 376.2 152.572C368.688 126.569 351.968 104.192 329.166 89.6231C306.364 75.0539 279.039 69.2889 252.297 73.4055C225.556 77.5221 201.227 91.2385 183.858 111.992C183.802 112.058 183.775 112.145 183.782 112.231C183.79 112.318 183.832 112.398 183.898 112.454C183.965 112.51 184.051 112.537 184.138 112.53C184.224 112.522 184.305 112.481 184.361 112.414C201.634 91.8005 225.816 78.1806 252.392 74.0975C278.968 70.0144 306.121 75.7472 328.781 90.2255C351.441 104.704 368.06 126.938 375.533 152.776C383.006 178.614 380.824 206.29 369.393 230.636C369.359 230.715 369.358 230.803 369.388 230.882C369.418 230.962 369.478 231.026 369.555 231.062C369.632 231.099 369.72 231.104 369.8 231.076C369.881 231.049 369.947 230.991 369.986 230.916Z" fill="#0063D2"/>
<path d="M238.897 180.508C239.28 176.063 240.621 171.756 242.827 167.887C245.033 164.017 248.05 160.679 251.668 158.104C251.739 158.055 251.826 158.037 251.91 158.052C251.994 158.067 252.069 158.115 252.118 158.186C252.168 158.256 252.188 158.343 252.174 158.428C252.16 158.514 252.114 158.59 252.045 158.641L251.845 158.784C251.744 162.736 251.548 170.228 251.305 175.488C247.957 174.588 244.596 173.732 241.224 172.92C238.868 179.437 238.82 186.573 241.091 193.121C243.361 199.669 247.809 205.225 253.681 208.847C259.553 212.47 266.488 213.937 273.311 212.999C280.134 212.062 286.426 208.777 291.12 203.703C294.228 194.349 291.699 183.281 287.744 178.818L291.521 163.121L291.371 162.946C291.316 162.881 291.287 162.797 291.292 162.711C291.297 162.626 291.335 162.545 291.398 162.488C291.461 162.43 291.544 162.399 291.629 162.402C291.714 162.405 291.795 162.442 291.854 162.504C295.265 166.279 297.688 170.852 298.905 175.807C300.122 180.762 300.093 185.945 298.822 190.887C297.551 195.828 295.077 200.373 291.625 204.11C288.172 207.847 283.849 210.66 279.047 212.292C274.245 213.925 269.114 214.327 264.119 213.462C259.123 212.597 254.421 210.492 250.436 207.337C246.451 204.182 243.309 200.078 241.295 195.394C239.28 190.709 238.456 185.594 238.897 180.508Z" fill="#0063D2"/>
<path d="M367.658 234.996C367.693 234.92 367.697 234.833 367.67 234.754C367.643 234.674 367.586 234.608 367.513 234.569C367.439 234.53 367.353 234.521 367.272 234.543C367.192 234.566 367.123 234.618 367.08 234.69C360.12 247.957 350.561 259.673 338.978 269.132C327.394 278.591 314.026 285.597 299.677 289.729C285.329 293.86 270.297 295.032 255.485 293.174C240.674 291.316 226.391 286.465 213.494 278.915C213.419 278.871 213.329 278.859 213.245 278.881C213.161 278.903 213.089 278.958 213.045 279.033C213.001 279.109 212.989 279.199 213.011 279.283C213.033 279.368 213.087 279.44 213.163 279.484C226.136 287.079 240.504 291.957 255.403 293.826C270.302 295.695 285.423 294.516 299.856 290.36C314.29 286.203 327.737 279.156 339.389 269.642C351.041 260.127 360.657 248.342 367.658 234.996Z" fill="#0063D2"/>
<path d="M269.355 254.297C280.307 254.271 291.105 251.698 300.904 246.779C310.702 241.861 319.236 234.73 325.838 225.944C332.44 217.159 336.931 206.957 338.959 196.137C340.988 185.317 340.499 174.172 337.53 163.574C337.504 163.493 337.448 163.426 337.374 163.386C337.3 163.346 337.213 163.337 337.132 163.359C337.051 163.382 336.982 163.435 336.938 163.507C336.895 163.58 336.881 163.666 336.9 163.749C340.106 175.142 340.411 187.162 337.788 198.705C335.164 210.248 329.695 220.942 321.885 229.805C314.075 238.667 304.173 245.413 293.091 249.421C282.009 253.43 270.102 254.574 258.466 252.746C246.829 250.919 235.836 246.179 226.498 238.963C217.161 231.748 209.777 222.287 205.028 211.453C200.278 200.618 198.314 188.756 199.317 176.959C200.32 165.162 204.258 153.807 210.768 143.94C210.813 143.868 210.828 143.78 210.809 143.697C210.791 143.613 210.742 143.54 210.671 143.493C210.6 143.445 210.514 143.427 210.43 143.443C210.346 143.459 210.272 143.506 210.223 143.576C203.128 154.32 199.066 166.798 198.468 179.68C197.87 192.562 200.759 205.366 206.827 216.728C212.895 228.09 221.915 237.585 232.926 244.2C243.937 250.816 256.527 254.306 269.355 254.297Z" fill="#0063D2"/>
<path d="M207.256 165.973C222.121 168.202 236.85 171.257 251.374 175.123L251.462 173.229L288.089 178.562L288.113 178.447C292.958 183.869 295.681 199.046 288.679 209.058C285.468 213.537 280.648 216.601 275.229 217.609C259.754 221.165 233.4 211.969 220.18 206.8C220.897 219.312 221.482 236.061 222.525 254.554C213.36 258.042 203.355 258.678 193.822 256.379C190.983 234.013 188.18 208.799 187.233 183.932C187.129 181.366 187.594 178.808 188.594 176.442C189.594 174.076 191.104 171.959 193.017 170.244C194.929 168.528 197.197 167.256 199.659 166.517C202.12 165.779 204.715 165.593 207.256 165.973Z" fill="#E6E7E8"/>
<path d="M173.469 134.453C174.543 152.499 180.707 177.531 182.76 194.079C183.577 200.558 183.278 207.122 181.876 213.509C181.818 213.724 181.805 213.948 181.838 214.168C181.87 214.388 181.947 214.6 182.065 214.792C182.183 214.983 182.339 215.151 182.524 215.285C182.709 215.418 182.92 215.516 183.144 215.571C183.368 215.627 183.602 215.639 183.832 215.608C184.061 215.577 184.282 215.503 184.482 215.39C184.681 215.277 184.856 215.128 184.995 214.95C185.135 214.772 185.236 214.57 185.294 214.355C186.594 207.546 186.705 200.578 185.623 193.734C183.036 177.191 176.061 152.253 174.42 134.387C174.405 134.27 174.344 134.163 174.249 134.089C174.155 134.014 174.034 133.977 173.912 133.986C173.789 133.994 173.675 134.047 173.593 134.134C173.51 134.221 173.466 134.336 173.469 134.453Z" fill="#0063D2"/>
<path d="M103.357 172.484L110.046 173.068C111.628 173.201 113.198 172.703 114.413 171.682C115.629 170.662 116.392 169.202 116.536 167.62C117.116 161.037 117.048 160.92 117.193 160.746C117.237 160.691 117.297 160.653 117.365 160.635C117.433 160.618 117.505 160.623 117.57 160.649C117.635 160.675 117.689 160.722 117.726 160.782C117.762 160.841 117.779 160.911 117.773 160.981L117.189 167.674C117.121 168.459 117.207 169.249 117.444 170C117.681 170.75 118.063 171.447 118.569 172.05C119.075 172.653 119.695 173.15 120.392 173.514C121.09 173.877 121.853 174.099 122.637 174.168L129.327 174.752C129.37 174.753 129.412 174.764 129.451 174.782C129.49 174.8 129.525 174.826 129.554 174.857C129.583 174.889 129.606 174.926 129.621 174.967C129.636 175.007 129.642 175.05 129.64 175.093C129.638 175.136 129.628 175.178 129.61 175.217C129.592 175.257 129.566 175.292 129.535 175.321C129.503 175.35 129.466 175.373 129.425 175.387C129.385 175.402 129.342 175.409 129.299 175.407L122.581 174.821C121.797 174.753 121.007 174.839 120.257 175.076C119.506 175.313 118.81 175.695 118.207 176.201C117.604 176.707 117.107 177.327 116.744 178.026C116.381 178.724 116.158 179.488 116.09 180.272L115.506 186.965C115.499 187.052 115.457 187.132 115.391 187.188C115.324 187.244 115.238 187.272 115.152 187.264C115.065 187.257 114.985 187.216 114.929 187.149C114.873 187.082 114.846 186.996 114.853 186.91L115.437 180.216C115.572 178.633 115.075 177.061 114.054 175.843C113.034 174.626 111.572 173.863 109.991 173.721L103.299 173.137C103.256 173.134 103.215 173.121 103.176 173.101C103.138 173.082 103.104 173.054 103.077 173.021C103.049 172.988 103.028 172.95 103.015 172.909C103.002 172.868 102.997 172.825 103.001 172.782C103.005 172.739 103.017 172.697 103.037 172.659C103.057 172.621 103.084 172.587 103.117 172.559C103.15 172.531 103.188 172.511 103.229 172.498C103.271 172.485 103.314 172.48 103.357 172.484ZM115.942 178.185C116.353 177.225 116.984 176.374 117.783 175.701C118.583 175.029 119.53 174.554 120.546 174.314C119.587 173.902 118.737 173.27 118.066 172.469C117.395 171.669 116.92 170.722 116.681 169.705C116.268 170.666 115.636 171.517 114.836 172.189C114.035 172.861 113.088 173.336 112.071 173.575C113.033 173.986 113.886 174.617 114.559 175.418C115.233 176.218 115.709 177.167 115.949 178.185H115.942Z" fill="#0063D2"/>
<path d="M216.781 188.985L222.187 190.044C222.267 190.059 222.338 190.104 222.387 190.17C222.436 190.237 222.459 190.319 222.452 190.402C222.444 190.485 222.406 190.562 222.346 190.618C222.286 190.673 222.208 190.704 222.126 190.703C221.954 190.703 220.312 190.35 216.659 189.631C216.584 189.606 216.521 189.553 216.482 189.484C216.442 189.414 216.428 189.332 216.443 189.253C216.458 189.174 216.501 189.103 216.563 189.054C216.625 189.005 216.703 188.98 216.781 188.985Z" fill="#000001"/>
<path d="M231.386 191.563L236.804 192.624C236.882 192.64 236.952 192.686 236.999 192.752C237.046 192.817 237.069 192.899 237.061 192.98C237.054 193.061 237.017 193.137 236.959 193.193C236.9 193.248 236.824 193.28 236.744 193.281C236.571 193.281 234.925 192.928 231.263 192.208C231.19 192.181 231.128 192.129 231.09 192.06C231.051 191.991 231.038 191.91 231.053 191.831C231.068 191.753 231.109 191.683 231.171 191.634C231.232 191.585 231.308 191.559 231.386 191.563Z" fill="#000001"/>
<path d="M208.173 189.844C209.782 188.932 211.657 188.603 213.481 188.912C213.565 188.925 213.651 188.905 213.72 188.857C213.79 188.808 213.837 188.734 213.853 188.651C213.87 188.567 213.853 188.481 213.806 188.41C213.76 188.339 213.687 188.289 213.605 188.27C211.683 187.9 209.692 188.243 208.005 189.234C207.943 189.271 207.895 189.327 207.868 189.393C207.841 189.46 207.836 189.534 207.855 189.603C207.874 189.672 207.916 189.734 207.973 189.777C208.031 189.821 208.101 189.844 208.173 189.844Z" fill="#000001"/>
<path d="M131.406 271.457L148.525 243.922C148.563 243.862 148.619 243.816 148.685 243.791C148.752 243.766 148.825 243.763 148.893 243.782C148.961 243.802 149.021 243.843 149.064 243.9C149.107 243.957 149.13 244.026 149.13 244.097V258.168L173.769 239.73C164.346 223.691 159.09 205.55 158.48 186.961C157.871 168.372 161.927 149.927 170.28 133.306C170.319 133.228 170.388 133.169 170.47 133.142C170.553 133.114 170.643 133.121 170.721 133.16C170.798 133.199 170.857 133.267 170.885 133.35C170.912 133.432 170.905 133.522 170.866 133.6C158.641 157.925 155.814 185.897 162.925 212.172C170.036 238.448 186.586 261.185 209.414 276.038C209.487 276.086 209.538 276.16 209.556 276.245C209.573 276.331 209.557 276.419 209.509 276.492C209.461 276.565 209.387 276.616 209.301 276.634C209.216 276.651 209.127 276.635 209.054 276.587C194.786 267.315 182.832 254.901 174.11 240.297L149.498 258.715L163.71 263.536C163.777 263.558 163.836 263.602 163.876 263.66C163.917 263.719 163.937 263.789 163.934 263.86C163.931 263.931 163.905 263.999 163.86 264.054C163.815 264.109 163.753 264.148 163.684 264.165C129.477 272.456 131.623 272.098 131.426 271.825C131.386 271.772 131.363 271.709 131.36 271.644C131.356 271.578 131.373 271.513 131.406 271.457Z" fill="#0063D2"/>
<path d="M204.655 201.589L204.406 196.176C204.407 196.094 204.437 196.016 204.491 195.957C204.546 195.899 204.619 195.864 204.698 195.86C204.776 195.856 204.852 195.883 204.912 195.936C204.971 195.99 205.009 196.064 205.017 196.146L205.266 201.558C205.265 201.64 205.235 201.718 205.18 201.777C205.126 201.836 205.052 201.871 204.974 201.875C204.896 201.879 204.82 201.851 204.76 201.798C204.701 201.745 204.663 201.67 204.655 201.589Z" fill="#000001"/>
<path d="M207.541 246.562C207.462 246.563 207.386 246.533 207.328 246.477C207.271 246.42 207.236 246.343 207.232 246.261L206.985 240.884C206.982 240.842 206.988 240.8 207.001 240.76C207.014 240.72 207.034 240.683 207.061 240.652C207.088 240.621 207.121 240.595 207.157 240.577C207.194 240.559 207.233 240.549 207.273 240.547C207.354 240.543 207.433 240.572 207.494 240.629C207.554 240.685 207.59 240.764 207.595 240.849L207.843 246.225C207.845 246.269 207.839 246.312 207.825 246.352C207.81 246.393 207.789 246.43 207.76 246.461C207.732 246.493 207.698 246.518 207.66 246.535C207.623 246.553 207.582 246.562 207.541 246.562Z" fill="#000001"/>
<path d="M206.687 231.953C206.608 231.954 206.531 231.923 206.473 231.867C206.415 231.811 206.379 231.734 206.374 231.651L206.125 226.27C206.121 226.186 206.15 226.104 206.204 226.041C206.259 225.979 206.335 225.942 206.416 225.938C206.497 225.934 206.576 225.963 206.636 226.02C206.696 226.077 206.732 226.156 206.736 226.24L206.984 231.621C206.986 231.663 206.979 231.705 206.965 231.744C206.951 231.784 206.93 231.82 206.902 231.851C206.874 231.882 206.841 231.907 206.804 231.924C206.767 231.942 206.728 231.952 206.687 231.953Z" fill="#000001"/>
<path d="M205.826 217.344C205.747 217.344 205.671 217.308 205.613 217.244C205.555 217.18 205.52 217.092 205.514 216.999L205.266 210.849C205.262 210.753 205.291 210.659 205.345 210.588C205.4 210.516 205.476 210.474 205.557 210.469C205.638 210.465 205.717 210.498 205.777 210.563C205.837 210.628 205.873 210.718 205.876 210.814L206.125 216.964C206.127 217.061 206.098 217.156 206.042 217.227C205.986 217.298 205.908 217.34 205.826 217.344Z" fill="#000001"/>
<path d="M171.655 128.769C171.505 128.743 171.355 128.713 171.207 128.682C168.325 128.064 168.624 123.953 171.348 123.185C170.835 122.863 170.433 122.39 170.198 121.831C169.962 121.272 169.905 120.655 170.033 120.062C170.161 119.469 170.468 118.93 170.913 118.519C171.358 118.107 171.919 117.843 172.52 117.761C171.985 117.354 171.605 116.777 171.442 116.124C171.28 115.472 171.345 114.784 171.627 114.173C171.908 113.563 172.39 113.067 172.991 112.767C173.593 112.468 174.279 112.383 174.936 112.526C174.936 112.526 177.377 112.969 178.169 113.128C178.853 111.118 180.088 111.01 183.468 111.383C187.879 111.868 188.555 111.943 189.698 114.665C191.409 118.746 193.061 119.847 194.348 120.271C194.676 119.548 195.025 118.82 195.394 118.086C195.426 118.023 195.477 117.972 195.54 117.941C195.603 117.91 195.674 117.899 195.743 117.911C196.352 118.023 256.713 129.307 263.913 129.968C268.796 130.415 271.257 126.077 271.967 121.243C270.971 121.261 269.984 121.037 269.093 120.591C268.202 120.144 267.433 119.487 266.852 118.677C265.423 116.379 265.84 112.66 268.088 107.624C271.16 97.3926 271.486 88.8783 278.084 89.3128C284.729 89.7526 296.664 102.619 291.767 109.887C287.602 116.081 281.999 119.688 281.323 124.633C281.671 124.663 282.043 124.696 282.435 124.735C282.8 122.189 283.895 122.077 287.11 122.117C291.062 122.168 291.671 122.175 292.925 124.496C293.674 126.135 294.855 127.539 296.341 128.556C297.096 127.15 297.925 125.785 298.825 124.468C299.125 124.085 299.186 124.108 299.523 124.173C300.834 124.422 307.11 126.141 338.288 135.929C346.897 138.633 351.069 144.009 350.438 151.199C350.276 153.054 349.752 154.858 348.893 156.51C348.034 158.161 346.858 159.627 345.433 160.824C344.007 162.02 342.36 162.924 340.585 163.483C338.81 164.042 336.943 164.245 335.089 164.081L292.567 160.825L288.257 178.625C293.125 184.263 295.788 199.187 288.808 209.316L293.648 233.995C331.712 220.943 330.005 221.458 330.235 221.547C331.706 223.006 333.062 224.577 334.29 226.247C338.679 224.079 343.235 222.27 347.914 220.837C347.991 220.814 348.074 220.82 348.147 220.854C357.915 225.405 372.466 229.48 388.174 240.555C388.225 240.591 388.266 240.642 388.289 240.701C388.313 240.76 388.319 240.824 388.306 240.887C388.294 240.949 388.264 241.006 388.219 241.052C388.175 241.097 388.119 241.129 388.057 241.143C378.029 243.156 367.819 244.117 357.592 244.01C352.226 243.814 346.853 244.086 341.534 244.823C341.872 247.116 342.065 249.427 342.111 251.744C341.978 251.919 344.3 250.995 289.858 271.607C287.351 272.555 284.671 272.962 281.995 272.802C279.32 272.642 276.708 271.918 274.331 270.678C271.954 269.438 269.865 267.709 268.202 265.606C266.539 263.502 265.339 261.071 264.68 258.471L254.292 217.591C242.759 215.263 231.465 211.875 220.555 207.469C220.874 213.132 222.299 244.685 222.863 254.604C222.866 254.674 222.847 254.744 222.808 254.802C222.77 254.861 222.714 254.906 222.648 254.931C221.127 255.494 219.601 255.983 218.068 256.398C218.895 261.753 219.267 267.168 219.179 272.586C219.179 272.961 219.216 272.874 218.924 273.189C218.438 273.713 217.006 275.243 212.82 280.245C205.072 289.494 198.216 297.242 187.894 304.936C187.843 304.974 187.783 304.996 187.719 304.999C187.656 305.003 187.593 304.989 187.538 304.958C187.483 304.926 187.438 304.88 187.408 304.824C187.378 304.768 187.366 304.704 187.371 304.641C188.593 294.481 190.864 284.475 194.147 274.783C195.839 269.305 198.174 263.354 198.527 257.643C196.965 257.425 195.405 257.131 193.847 256.761C193.782 256.746 193.724 256.711 193.68 256.661C193.635 256.612 193.607 256.55 193.598 256.484C191.057 236.433 188.017 210.096 187.029 184.181C186.925 181.573 187.398 178.974 188.413 176.57C189.429 174.166 190.962 172.015 192.903 170.272C194.845 168.529 197.147 167.236 199.645 166.485C202.144 165.734 204.777 165.545 207.357 165.929C222.046 168.136 236.602 171.148 250.961 174.953C250.961 174.953 251.623 153.18 251.658 151.688C188.822 140.404 191.459 140.952 191.303 140.762C191.076 139.723 190.93 138.668 190.866 137.606C187.727 137.039 180.658 136.018 176.095 135.209C174.351 134.902 171.909 134.336 171.329 134.233C168.419 133.711 168.777 129.389 171.655 128.769ZM380.459 241.874C382.852 241.525 385.062 241.134 387.185 240.673C371.847 230.019 357.632 225.981 347.984 221.51C346.157 222.069 344.347 222.687 342.596 223.35C351.109 227.041 366.117 231.984 380.459 241.874ZM171.337 128.04C173.057 128.41 175.03 128.457 178.457 128.79C181.799 129.117 182.643 125.241 179.441 124.7C177.613 124.391 172.802 123.721 172.265 123.721C169.487 123.721 168.943 127.525 171.346 128.04H171.337ZM172.098 122.763C173.861 123.188 175.804 123.286 179.312 123.709C179.755 123.818 180.223 123.776 180.639 123.588C181.056 123.4 181.397 123.077 181.609 122.672C181.772 122.324 181.847 121.941 181.828 121.556C181.809 121.172 181.697 120.799 181.5 120.468C179.408 123.585 176.753 122.492 177.018 120.419L177.21 118.89C176.667 118.815 174.29 118.527 173.58 118.419C170.338 117.92 169.585 122.155 172.107 122.763H172.098ZM174.806 113.173C171.821 112.622 170.992 116.758 173.345 117.411C174.647 117.736 175.969 117.974 177.302 118.123C177.449 116.657 177.674 115.201 177.977 113.76C177.105 113.592 176.617 113.507 174.815 113.173H174.806ZM281.586 115.826C282.017 115.044 282.284 114.873 282.458 114.812C288.468 112.639 286.86 107.308 283.703 109.28C282.608 109.964 281.917 110.153 281.464 109.903C280.962 109.622 280.969 108.966 281.03 108.43C281.642 102.944 276.824 92.1852 270.003 105.197C266.318 112.264 264.15 120.094 272.058 120.592C273.349 120.656 274.643 120.555 275.909 120.292C276.35 120.187 276.497 120.597 276.291 120.815L271.857 124.546C271.271 126.504 270.08 128.227 268.456 129.467C270.621 131.049 273.311 131.741 275.97 131.399C276.042 130.923 276.24 130.476 276.543 130.102C276.845 129.728 277.243 129.442 277.693 129.274C277.227 128.921 276.89 128.424 276.734 127.861C276.577 127.298 276.609 126.699 276.825 126.156C277.041 125.613 277.43 125.156 277.93 124.854C278.431 124.553 279.017 124.425 279.598 124.489L280.55 124.569C280.016 122.25 280.315 119.761 281.595 115.826H281.586ZM292.339 124.803C291.268 122.82 291.03 122.819 287.038 122.768C283.899 122.733 283.295 122.798 283.027 125.127C283.014 125.21 282.971 125.286 282.907 125.34C282.843 125.394 282.762 125.423 282.678 125.422C281.82 125.333 279.538 125.141 279.538 125.141C276.905 124.916 276.535 128.565 278.619 128.932C278.886 128.977 279.156 129.017 279.437 129.049C279.847 129.096 279.87 129.792 279.397 129.762C279.352 129.762 279.129 129.762 278.98 129.745C276.134 129.581 275.808 133.315 278.054 133.631C278.926 133.748 279.326 133.731 279.542 133.762C279.623 133.773 279.697 133.815 279.749 133.878C279.801 133.941 279.828 134.021 279.824 134.103C279.82 134.184 279.786 134.262 279.728 134.319C279.67 134.377 279.592 134.411 279.51 134.415L278.788 134.395C275.982 134.303 275.747 137.969 277.951 138.224C278.345 138.27 278.741 138.292 279.162 138.306C279.251 138.305 279.337 138.339 279.401 138.402C279.465 138.464 279.501 138.549 279.503 138.639C279.504 138.728 279.469 138.814 279.407 138.878C279.345 138.942 279.26 138.979 279.17 138.98C276.495 138.98 276.312 142.487 278.448 142.674C281.239 142.92 284.588 143.362 289.543 143.624C290.61 143.681 291.678 143.749 292.714 143.815C292.638 138.729 293.774 133.698 296.027 129.138C294.424 128.06 293.15 126.56 292.347 124.803H292.339ZM299.347 124.859C294.54 131.561 292.502 139.86 293.659 148.028L303.902 151.182C302.702 141.903 304.741 134.128 309.965 128.064L299.347 124.859ZM289.726 169.728C288.589 163.409 288.174 161.235 288.062 160.45C287.971 159.82 288.107 159.828 288.515 159.823C290.124 159.804 297.894 160.31 335.14 163.422C338.707 163.728 342.25 162.607 344.993 160.304C347.735 158.002 349.454 154.706 349.773 151.138C350.373 144.288 346.332 139.243 338.087 136.552L310.662 128.281C305.369 134.294 303.337 142.067 304.602 151.403L331.214 159.605C331.288 159.629 331.351 159.678 331.392 159.745C331.433 159.811 331.449 159.89 331.438 159.967C331.426 160.044 331.387 160.114 331.328 160.165C331.269 160.217 331.194 160.245 331.116 160.246C330.964 160.246 293.268 148.609 293.207 148.58C293.171 148.559 293.138 148.532 293.112 148.5C293.086 148.467 293.067 148.43 293.055 148.389C292.874 147.096 292.767 145.794 292.735 144.489C284.56 143.966 281.954 143.777 281.021 143.679C278.532 143.423 277.358 143.402 276.697 142.332C276.366 141.753 276.263 141.072 276.409 140.421C276.555 139.77 276.939 139.197 277.486 138.816C277.017 138.637 276.61 138.326 276.314 137.92C276.019 137.514 275.849 137.031 275.823 136.529C275.798 136.028 275.919 135.53 276.172 135.096C276.425 134.662 276.798 134.312 277.247 134.087C276.868 133.902 276.546 133.618 276.316 133.264C276.086 132.911 275.957 132.501 275.942 132.08C273.701 132.355 271.429 131.934 269.435 130.874C263.201 146.871 262.367 159.195 261.917 174.744L287.622 178.469L289.726 169.728ZM265.308 258.316C265.943 260.827 267.102 263.175 268.707 265.207C270.312 267.238 272.329 268.908 274.624 270.106C276.919 271.303 279.441 272.002 282.025 272.157C284.609 272.312 287.196 271.918 289.618 271.003L341.497 251.35C340.866 239.474 338.058 230.545 330.007 222.221C290.842 235.649 293.429 234.824 293.233 234.71C293.038 234.597 293.408 236.185 288.282 210.047C285.029 214.248 280.35 217.111 275.131 218.095C274.97 218.13 274.128 218.334 272.656 218.694L273.771 223.636C273.79 223.721 273.774 223.81 273.728 223.884C273.682 223.957 273.608 224.009 273.523 224.029C273.438 224.048 273.349 224.032 273.275 223.986C273.202 223.939 273.15 223.866 273.13 223.781L272.021 218.851C268.896 219.613 263.522 220.929 256.265 222.701L265.308 258.316ZM189.401 295.312C188.878 297.987 188.4 301.071 188.097 303.983C203.058 292.668 211.21 280.505 218.513 272.682C218.563 270.291 218.513 267.876 218.368 265.487C210.267 274.547 203.302 284.641 189.407 295.307L189.401 295.312ZM251.615 175.142C253.982 175.773 256.158 176.375 258.262 176.983C258.339 177.011 258.402 177.068 258.439 177.141C258.477 177.214 258.485 177.299 258.463 177.378C258.441 177.457 258.39 177.525 258.321 177.568C258.251 177.612 258.168 177.628 258.087 177.613C241.402 172.85 224.426 169.169 207.267 166.594C204.782 166.224 202.247 166.406 199.841 167.129C197.435 167.852 195.219 169.097 193.349 170.775C191.48 172.453 190.003 174.524 189.025 176.839C188.048 179.154 187.592 181.656 187.692 184.167C188.671 209.96 191.693 236.181 194.227 256.191C198.545 257.206 202.982 257.622 207.413 257.428L207.319 255.468C207.316 255.425 207.322 255.381 207.336 255.339C207.35 255.298 207.372 255.26 207.401 255.228C207.43 255.195 207.466 255.169 207.505 255.15C207.545 255.131 207.587 255.121 207.631 255.119C207.719 255.115 207.804 255.146 207.869 255.204C207.934 255.263 207.974 255.344 207.98 255.431L208.074 257.388C212.903 257.09 217.663 256.087 222.202 254.409C221.649 244.573 220.219 212.942 219.892 207.216C217.864 206.421 216.238 205.768 214.941 205.232C214.901 205.216 214.865 205.192 214.834 205.161C214.804 205.131 214.779 205.095 214.763 205.055C214.746 205.015 214.738 204.973 214.737 204.929C214.737 204.886 214.746 204.844 214.762 204.804C214.778 204.764 214.802 204.728 214.833 204.697C214.863 204.666 214.899 204.642 214.939 204.626C214.979 204.609 215.021 204.6 215.065 204.6C215.108 204.6 215.15 204.609 215.19 204.625C230.539 210.965 258.211 220.929 274.555 217.539C280.04 216.608 284.941 213.558 288.2 209.047C294.827 199.562 292.591 184.766 287.839 179.134L276.882 177.546L276.359 182.754C276.348 182.839 276.305 182.917 276.238 182.97C276.171 183.024 276.086 183.049 276 183.04C275.915 183.032 275.836 182.99 275.781 182.924C275.726 182.858 275.7 182.773 275.707 182.687L276.23 177.452L251.686 173.894L251.615 175.142ZM202.507 142.208L239.624 148.873L252.044 146.873C252.091 146.865 252.14 146.867 252.187 146.881C252.233 146.894 252.276 146.917 252.312 146.949C252.349 146.98 252.378 147.02 252.397 147.064C252.416 147.108 252.425 147.156 252.424 147.204L251.707 173.245L261.263 174.63C261.717 159.02 262.564 146.639 268.857 130.527C268.511 130.316 268.178 130.083 267.861 129.829C266.638 130.489 265.243 130.765 263.86 130.621C258.556 130.137 224.724 123.878 206.773 120.599C203.303 127.241 201.823 134.745 202.51 142.208H202.507ZM191.85 140.289L201.834 142.081C201.182 134.622 202.659 127.132 206.093 120.48C200.686 119.492 196.849 118.786 195.863 118.604C192.012 126.291 190.697 133.392 191.854 140.296L191.85 140.289ZM190.828 136.942C190.638 131.403 191.752 125.898 194.079 120.869C192.063 120.171 190.514 118.313 189.089 114.915C188.097 112.549 187.832 112.521 183.334 112.025C180.079 111.666 179.148 111.564 178.57 114.107C178.286 115.355 178.106 117.058 177.672 120.496C177.43 122.424 180.662 122.85 182.446 116.657C182.472 116.577 182.528 116.51 182.602 116.47C182.677 116.43 182.763 116.421 182.845 116.443C182.926 116.465 182.995 116.518 183.038 116.59C183.082 116.663 183.096 116.749 183.077 116.831C181.565 122.272 183.449 125.934 186.565 127.591C186.639 127.634 186.693 127.703 186.717 127.785C186.74 127.867 186.731 127.954 186.691 128.029C186.652 128.104 186.584 128.161 186.504 128.188C186.423 128.214 186.335 128.208 186.258 128.171C185.254 127.644 184.373 126.91 183.674 126.017C182.974 125.125 182.471 124.094 182.198 122.993C182.03 123.329 181.788 123.623 181.489 123.851C181.191 124.08 180.845 124.238 180.477 124.312C183.154 125.445 182.423 129.117 179.322 129.443C183.361 130.031 182.411 134.985 178.371 134.706C177.573 134.65 176.859 134.61 176.21 134.575C180.505 135.376 186.328 136.142 190.832 136.949L190.828 136.942ZM171.5 133.516C173.198 133.828 175.037 133.814 178.408 134.039C181.638 134.259 182.366 130.52 179.27 130.089C176.844 129.752 175.15 129.595 172.733 129.357C169.656 129.066 169.074 133.074 171.5 133.516Z" fill="#000001"/>
<path d="M182.266 184.041L281.196 143.438C281.645 143.485 282.118 143.533 282.609 143.578C179.502 185.899 182.571 184.684 182.397 184.684C182.321 184.686 182.246 184.66 182.186 184.611C182.126 184.563 182.085 184.494 182.069 184.418C182.054 184.341 182.065 184.262 182.101 184.193C182.137 184.124 182.195 184.07 182.266 184.041Z" fill="#0063D2"/>
<path d="M183.801 126.572C194.74 119.215 207.511 115.049 220.684 114.539C220.727 114.538 220.77 114.528 220.809 114.51C220.848 114.492 220.883 114.467 220.913 114.435C220.942 114.404 220.965 114.367 220.98 114.327C220.995 114.286 221.002 114.243 221.001 114.2C220.999 114.157 220.989 114.115 220.971 114.076C220.954 114.036 220.928 114.001 220.897 113.972C220.865 113.942 220.828 113.919 220.788 113.904C220.748 113.889 220.705 113.882 220.662 113.884C207.425 114.358 194.589 118.543 183.616 125.96C183.551 125.996 183.501 126.054 183.473 126.123C183.446 126.192 183.443 126.268 183.464 126.34C183.485 126.411 183.531 126.472 183.592 126.515C183.653 126.557 183.727 126.577 183.801 126.572Z" fill="#0063D2"/>
<path d="M269.142 131.412C269.209 131.413 269.275 131.392 269.33 131.354C269.386 131.316 269.428 131.262 269.451 131.199C269.475 131.136 269.478 131.067 269.461 131.002C269.444 130.937 269.408 130.879 269.357 130.835C261.277 123.94 251.754 118.943 241.489 116.213C241.404 116.19 241.315 116.201 241.239 116.244C241.163 116.288 241.107 116.359 241.084 116.443C241.061 116.528 241.072 116.617 241.115 116.693C241.159 116.769 241.23 116.825 241.314 116.848C251.539 119.622 261.035 124.592 269.142 131.412Z" fill="#0063D2"/>
<path d="M273.416 131.991L307.926 106.575L317.731 77.1778C317.792 76.9947 315.325 78.8972 366.434 40.6779C366.49 40.6361 366.558 40.6132 366.628 40.6126C366.698 40.612 366.766 40.6337 366.823 40.6745C366.879 40.7154 366.922 40.7733 366.943 40.8398C366.964 40.9063 366.964 40.9779 366.942 41.0441L357.26 70.0718L387.951 69.1109C388.021 69.1086 388.09 69.1287 388.148 69.1683C388.205 69.2079 388.249 69.2648 388.272 69.3308C388.295 69.3968 388.296 69.4685 388.275 69.5352C388.255 69.602 388.213 69.6605 388.157 69.7021C337.435 107.292 339.414 105.89 339.238 105.895L308.318 107.1L273.804 132.52C273.734 132.571 273.647 132.593 273.561 132.58C273.475 132.567 273.397 132.52 273.346 132.45C273.294 132.38 273.273 132.292 273.286 132.206C273.299 132.12 273.346 132.043 273.416 131.991ZM370.766 81.7833L341.043 82.6273L325.373 94.3475L355.136 93.3692L370.766 81.7833ZM334.355 65.4908L324.989 93.8121L340.509 82.1966L349.994 53.795L334.355 65.4908ZM350.921 53.1096L341.447 81.513L356.521 70.2392L365.979 41.8306L350.921 53.1096ZM354.217 94.0476L324.462 95.0258L309.244 106.408L339.112 105.245L354.217 94.0476Z" fill="#0063D2"/>
<path d="M261.466 43.2624C261.933 42.7654 263.335 41.0791 268.115 35.4571C268.169 35.3907 268.196 35.3055 268.188 35.2199C268.181 35.1343 268.14 35.0551 268.074 34.9993C268.009 34.9435 267.924 34.9156 267.839 34.9217C267.753 34.9277 267.673 34.9672 267.616 35.0316L261.241 42.53L255.544 30.1907C255.507 30.1116 255.441 30.0503 255.359 30.0202C255.277 29.9901 255.187 29.9937 255.108 30.0303C255.028 30.0668 254.967 30.1333 254.937 30.215C254.907 30.2968 254.911 30.3872 254.947 30.4662C259.23 39.7381 260.423 42.4166 260.834 43.1769C261.002 43.4717 261.115 43.6373 261.466 43.2624Z" fill="#0063D2"/>
<path d="M250.588 146.019C250.55 146.455 250.687 146.889 250.969 147.224C251.25 147.559 251.654 147.769 252.09 147.807C252.527 147.845 252.96 147.708 253.296 147.426C253.631 147.145 253.841 146.741 253.879 146.305C253.897 146.089 253.873 145.871 253.808 145.664C253.743 145.457 253.637 145.266 253.498 145.099C253.358 144.933 253.187 144.796 252.995 144.696C252.803 144.596 252.592 144.535 252.376 144.516C252.16 144.498 251.943 144.522 251.736 144.587C251.529 144.652 251.337 144.758 251.171 144.897C251.005 145.037 250.868 145.208 250.768 145.4C250.668 145.592 250.607 145.803 250.588 146.019Z" fill="#000001"/>
<path d="M134.414 126.094C134.739 126.024 135.048 125.893 135.324 125.708L231.03 135.929C230.775 136.085 230.55 136.284 230.362 136.516C127.102 125.489 135.249 126.446 134.414 126.094Z" fill="#0063D2"/>
<path d="M158.49 61.3718C225.845 117.504 235.298 125.22 236.39 126.305L236.363 126.516C236.118 126.491 235.84 126.465 235.621 126.446L158.069 61.8757C158.036 61.8481 158.009 61.8143 157.989 61.7761C157.969 61.738 157.957 61.6963 157.953 61.6533C157.949 61.6104 157.954 61.5672 157.966 61.5261C157.979 61.4849 158 61.4467 158.028 61.4136C158.055 61.3805 158.089 61.3532 158.127 61.3332C158.165 61.3132 158.207 61.3009 158.25 61.297C158.293 61.2931 158.336 61.2977 158.377 61.3105C158.418 61.3234 158.457 61.3442 158.49 61.3718Z" fill="#0063D2"/>
<path d="M75.6325 193.725C75.1893 191.657 73.9487 189.845 72.1749 188.673C70.4012 187.502 68.2347 187.065 66.137 187.455L62.3968 188.26L59.6669 175.625L70.5867 173.246C70.761 173.182 70.9086 173.062 71.0055 172.905C71.1024 172.748 71.1429 172.563 71.1205 172.38C71.098 172.198 71.014 172.028 70.8819 171.899C70.7499 171.77 70.5777 171.69 70.3932 171.67L59.4251 174.012L58.4303 169.464C58.2943 168.357 56.6495 168.818 56.8401 169.66L57.8297 174.164C54.0895 174.97 51.0821 174.993 48.944 178.542C48.0967 179.831 47.638 181.332 47.6218 182.869C47.6057 184.406 48.0327 185.915 48.8527 187.218C49.6727 188.52 50.8515 189.563 52.2505 190.223C53.6494 190.883 55.2103 191.133 56.7494 190.943L61.2633 190.042L63.9931 202.678L52.9118 205.163C52.7376 205.226 52.59 205.347 52.4931 205.504C52.3962 205.661 52.3557 205.846 52.3781 206.028C52.4005 206.211 52.4846 206.38 52.6166 206.509C52.7487 206.638 52.9209 206.719 53.1054 206.739L64.1164 204.392L65.0683 208.944C65.0946 209.159 65.2059 209.354 65.3777 209.487C65.5495 209.62 65.7677 209.68 65.9842 209.653C66.2008 209.627 66.398 209.516 66.5325 209.345C66.667 209.175 66.7278 208.958 66.7014 208.744L65.7119 204.239L69.4521 203.434C70.5028 203.202 71.4973 202.766 72.3779 202.152C73.2585 201.537 74.0079 200.756 74.5826 199.853C75.1573 198.95 75.546 197.944 75.7262 196.892C75.9065 195.84 75.8746 194.764 75.6325 193.725ZM56.8294 189.463C55.9669 189.713 55.0619 189.785 54.1709 189.674C53.2799 189.562 52.4221 189.27 51.6509 188.815C50.8797 188.36 50.2117 187.752 49.6885 187.03C49.1654 186.307 48.7984 185.485 48.6103 184.614C48.4223 183.744 48.4173 182.844 48.5956 181.971C48.774 181.098 49.1318 180.27 49.6469 179.54C50.162 178.809 50.8232 178.191 51.5892 177.724C52.3553 177.258 53.2099 176.952 54.0995 176.827L57.8397 176.022L60.5696 188.657L56.8294 189.463ZM73.1292 198.918C72.6822 199.63 72.0969 200.246 71.4075 200.732C70.7181 201.217 69.9384 201.562 69.1139 201.746L65.2877 202.562L62.5148 189.932L66.2551 189.126C67.4967 188.856 68.79 188.951 69.9768 189.398C71.1637 189.845 72.1926 190.625 72.9379 191.644C73.6832 192.662 74.1125 193.874 74.1733 195.132C74.2341 196.39 73.9237 197.639 73.2802 198.726L73.1292 198.918Z" fill="#0063D2"/>
</svg>
