<svg width="16" height="17" viewBox="0 0 16 17" fill="none" xmlns="http://www.w3.org/2000/svg">
<path fill-rule="evenodd" clip-rule="evenodd" d="M11.2 4.80347C11.2 3.03867 9.7648 1.60347 8 1.60347C6.2352 1.60347 4.8 3.03867 4.8 4.80347C4.8 6.56827 6.2352 8.00347 8 8.00347C9.7648 8.00347 11.2 6.56827 11.2 4.80347ZM16 16.0035H12V14.4035H14.2272C13.5664 11.3747 11.028 9.60347 8 9.60347C4.972 9.60347 2.4336 11.3747 1.7728 14.4035H4V16.0035H0C0 12.3595 2.0664 9.64187 4.9936 8.54187C4.43347 8.09309 3.98144 7.52408 3.67097 6.87697C3.3605 6.22986 3.19954 5.5212 3.2 4.80347C3.19941 3.9919 3.40461 3.19344 3.79641 2.48272C4.1882 1.77199 4.7538 1.17221 5.44035 0.739437C6.12689 0.306663 6.91195 0.0550262 7.72215 0.0080492C8.53235 -0.0389278 9.34124 0.120289 10.0732 0.470816C10.8052 0.821343 11.4363 1.35174 11.9076 2.01242C12.3789 2.6731 12.675 3.44249 12.7682 4.24868C12.8614 5.05487 12.7487 5.87154 12.4406 6.62234C12.1325 7.37314 11.6391 8.03356 11.0064 8.54187C13.9336 9.64187 16 12.3595 16 16.0035ZM9.9312 11.8091L11.0624 12.9411L8 16.0035L5.7376 13.7411L6.8688 12.6091L8 13.7411L9.9312 11.8091Z" fill="#00192F"/>
</svg>
