<svg width="7" height="14" viewBox="0 0 7 14" fill="none" xmlns="http://www.w3.org/2000/svg">
<path d="M7 7C7 6.79839 6.92843 6.6129 6.79243 6.46774L1.12372 0.209677C0.994888 0.0725806 0.837423 0 0.651329 0C0.286299 0 0 0.314516 0 0.733871C0 0.935484 0.0715746 1.12097 0.186094 1.25806L5.39673 7L0.186094 12.7419C0.0715746 12.879 0 13.0565 0 13.2661C0 13.6855 0.286299 14 0.651329 14C0.837423 14 0.994888 13.9274 1.12372 13.7823L6.79243 7.53226C6.92843 7.37903 7 7.20161 7 7Z" fill="#696F8C"/>
</svg>
